<svg width="400" height="300" viewBox="0 0 400 300" xmlns="http://www.w3.org/2000/svg"><rect width="100%" height="100%" fill="#f8f9fa"/><defs>
            <radialGradient id="grad_0" cx="40%" cy="40%" r="80%" fx="30%" fy="30%">
                <stop offset="0%" style="stop-color:#fefccf;stop-opacity:1" />
                <stop offset="90%" style="stop-color:#e5e3bb;stop-opacity:0.4" />
            </radialGradient>
            
            <radialGradient id="grad_1" cx="40%" cy="40%" r="80%" fx="30%" fy="30%">
                <stop offset="0%" style="stop-color:#fdfacd;stop-opacity:1" />
                <stop offset="90%" style="stop-color:#e5e3bb;stop-opacity:0.4" />
            </radialGradient>
            
            <radialGradient id="grad_2" cx="40%" cy="40%" r="80%" fx="30%" fy="30%">
                <stop offset="0%" style="stop-color:#faf7ca;stop-opacity:1" />
                <stop offset="90%" style="stop-color:#e5e3bb;stop-opacity:0.4" />
            </radialGradient>
            
            <radialGradient id="grad_3" cx="40%" cy="40%" r="80%" fx="30%" fy="30%">
                <stop offset="0%" style="stop-color:#f8f5c7;stop-opacity:1" />
                <stop offset="90%" style="stop-color:#e5e3bb;stop-opacity:0.4" />
            </radialGradient>
            
            <radialGradient id="grad_4" cx="40%" cy="40%" r="80%" fx="30%" fy="30%">
                <stop offset="0%" style="stop-color:#f4f0c2;stop-opacity:1" />
                <stop offset="90%" style="stop-color:#e5e3bb;stop-opacity:0.4" />
            </radialGradient>
            
            <radialGradient id="grad_5" cx="40%" cy="40%" r="80%" fx="30%" fy="30%">
                <stop offset="0%" style="stop-color:#f2eebf;stop-opacity:1" />
                <stop offset="90%" style="stop-color:#e5e3bb;stop-opacity:0.4" />
            </radialGradient>
            
            <radialGradient id="grad_6" cx="40%" cy="40%" r="80%" fx="30%" fy="30%">
                <stop offset="0%" style="stop-color:#f0ecbd;stop-opacity:1" />
                <stop offset="90%" style="stop-color:#e5e3bb;stop-opacity:0.4" />
            </radialGradient>
            
            <radialGradient id="grad_7" cx="40%" cy="40%" r="80%" fx="30%" fy="30%">
                <stop offset="0%" style="stop-color:#ede8b9;stop-opacity:1" />
                <stop offset="90%" style="stop-color:#e5e3bb;stop-opacity:0.4" />
            </radialGradient>
            
            <radialGradient id="grad_8" cx="40%" cy="40%" r="80%" fx="30%" fy="30%">
                <stop offset="0%" style="stop-color:#eae5b5;stop-opacity:1" />
                <stop offset="90%" style="stop-color:#e5e3bb;stop-opacity:0.4" />
            </radialGradient>
            
            <radialGradient id="grad_9" cx="40%" cy="40%" r="80%" fx="30%" fy="30%">
                <stop offset="0%" style="stop-color:#e8e2b2;stop-opacity:1" />
                <stop offset="90%" style="stop-color:#e5e3bb;stop-opacity:0.4" />
            </radialGradient>
            </defs><circle cx="189.47151042758225" cy="19.080376695971864" r="16.260209247122695" fill="rgba(0,0,0,0.1)" /><circle cx="187.47151042758225" cy="17.080376695971864" r="16.260209247122695" fill="url(#grad_8)" stroke="rgba(0,0,0,0.05)" stroke-width="1"/><circle cx="263.8883125644487" cy="27.316514453898115" r="22.2592207434396" fill="rgba(0,0,0,0.1)" /><circle cx="261.8883125644487" cy="25.316514453898115" r="22.2592207434396" fill="url(#grad_4)" stroke="rgba(0,0,0,0.05)" stroke-width="1"/><circle cx="137.09779904540466" cy="30.035536364171378" r="19.510340710487625" fill="rgba(0,0,0,0.1)" /><circle cx="135.09779904540466" cy="28.035536364171378" r="19.510340710487625" fill="url(#grad_5)" stroke="rgba(0,0,0,0.05)" stroke-width="1"/><circle cx="164.3749811915855" cy="23.56974662848006" r="15.338280981882802" fill="rgba(0,0,0,0.1)" /><circle cx="162.3749811915855" cy="21.56974662848006" r="15.338280981882802" fill="url(#grad_7)" stroke="rgba(0,0,0,0.05)" stroke-width="1"/><circle cx="299.85448443210254" cy="24.645090172975973" r="20.02683937865463" fill="rgba(0,0,0,0.1)" /><circle cx="297.85448443210254" cy="22.645090172975973" r="20.02683937865463" fill="url(#grad_8)" stroke="rgba(0,0,0,0.05)" stroke-width="1"/><circle cx="113.52225619943766" cy="36.470449133352524" r="28.10026137140713" fill="rgba(0,0,0,0.1)" /><circle cx="111.52225619943766" cy="34.470449133352524" r="28.10026137140713" fill="url(#grad_9)" stroke="rgba(0,0,0,0.05)" stroke-width="1"/><circle cx="353.0325129970269" cy="28.157266715119214" r="16.003081665931628" fill="rgba(0,0,0,0.1)" /><circle cx="351.0325129970269" cy="26.157266715119214" r="16.003081665931628" fill="url(#grad_8)" stroke="rgba(0,0,0,0.05)" stroke-width="1"/><circle cx="204.52731958285796" cy="35.2575156692962" r="30.57961039519897" fill="rgba(0,0,0,0.1)" /><circle cx="202.52731958285796" cy="33.2575156692962" r="30.57961039519897" fill="url(#grad_3)" stroke="rgba(0,0,0,0.05)" stroke-width="1"/><circle cx="44.89585303534929" cy="38.44410215675407" r="20.005525083128" fill="rgba(0,0,0,0.1)" /><circle cx="42.89585303534929" cy="36.44410215675407" r="20.005525083128" fill="url(#grad_4)" stroke="rgba(0,0,0,0.05)" stroke-width="1"/><circle cx="195.69234660358416" cy="38.57409133474219" r="24.824342740781645" fill="rgba(0,0,0,0.1)" /><circle cx="193.69234660358416" cy="36.57409133474219" r="24.824342740781645" fill="url(#grad_2)" stroke="rgba(0,0,0,0.05)" stroke-width="1"/><circle cx="49.34356493819889" cy="32.5883669780591" r="22.502032712985105" fill="rgba(0,0,0,0.1)" /><circle cx="47.34356493819889" cy="30.5883669780591" r="22.502032712985105" fill="url(#grad_7)" stroke="rgba(0,0,0,0.05)" stroke-width="1"/><circle cx="60.533731980524855" cy="43.07573339095468" r="22.9541119511739" fill="rgba(0,0,0,0.1)" /><circle cx="58.533731980524855" cy="41.07573339095468" r="22.9541119511739" fill="url(#grad_9)" stroke="rgba(0,0,0,0.05)" stroke-width="1"/><circle cx="353.5250531037658" cy="41.55197578980223" r="17.464880360961416" fill="rgba(0,0,0,0.1)" /><circle cx="351.5250531037658" cy="39.55197578980223" r="17.464880360961416" fill="url(#grad_6)" stroke="rgba(0,0,0,0.05)" stroke-width="1"/><circle cx="157.2378151336046" cy="47.78770846227087" r="27.25352816949117" fill="rgba(0,0,0,0.1)" /><circle cx="155.2378151336046" cy="45.78770846227087" r="27.25352816949117" fill="url(#grad_5)" stroke="rgba(0,0,0,0.05)" stroke-width="1"/><circle cx="247.25905175795407" cy="41.14444987661922" r="25.600488075458415" fill="rgba(0,0,0,0.1)" /><circle cx="245.25905175795407" cy="39.14444987661922" r="25.600488075458415" fill="url(#grad_9)" stroke="rgba(0,0,0,0.05)" stroke-width="1"/><circle cx="356.45715393213305" cy="47.936429697180785" r="27.633361753971165" fill="rgba(0,0,0,0.1)" /><circle cx="354.45715393213305" cy="45.936429697180785" r="27.633361753971165" fill="url(#grad_6)" stroke="rgba(0,0,0,0.05)" stroke-width="1"/><circle cx="248.52771525186222" cy="44.23184447996207" r="29.70724068513052" fill="rgba(0,0,0,0.1)" /><circle cx="246.52771525186222" cy="42.23184447996207" r="29.70724068513052" fill="url(#grad_9)" stroke="rgba(0,0,0,0.05)" stroke-width="1"/><circle cx="360.18366381150037" cy="51.38649795869193" r="18.015100865969828" fill="rgba(0,0,0,0.1)" /><circle cx="358.18366381150037" cy="49.38649795869193" r="18.015100865969828" fill="url(#grad_9)" stroke="rgba(0,0,0,0.05)" stroke-width="1"/><circle cx="307.62503599529396" cy="46.63586949989299" r="22.900248022659476" fill="rgba(0,0,0,0.1)" /><circle cx="305.62503599529396" cy="44.63586949989299" r="22.900248022659476" fill="url(#grad_1)" stroke="rgba(0,0,0,0.05)" stroke-width="1"/><circle cx="353.60931887399386" cy="48.584037991987586" r="28.908862698175227" fill="rgba(0,0,0,0.1)" /><circle cx="351.60931887399386" cy="46.584037991987586" r="28.908862698175227" fill="url(#grad_2)" stroke="rgba(0,0,0,0.05)" stroke-width="1"/><circle cx="103.68426311271936" cy="46.09624379652118" r="28.615751460110577" fill="rgba(0,0,0,0.1)" /><circle cx="101.68426311271936" cy="44.09624379652118" r="28.615751460110577" fill="url(#grad_4)" stroke="rgba(0,0,0,0.05)" stroke-width="1"/><circle cx="363.40714894238045" cy="52.52284394975315" r="17.59828000422544" fill="rgba(0,0,0,0.1)" /><circle cx="361.40714894238045" cy="50.52284394975315" r="17.59828000422544" fill="url(#grad_4)" stroke="rgba(0,0,0,0.05)" stroke-width="1"/><circle cx="99.68547491007054" cy="53.500889820211796" r="33.43355618663607" fill="rgba(0,0,0,0.1)" /><circle cx="97.68547491007054" cy="51.500889820211796" r="33.43355618663607" fill="url(#grad_4)" stroke="rgba(0,0,0,0.05)" stroke-width="1"/><circle cx="223.71804405606318" cy="51.28402347409569" r="21.253461742721562" fill="rgba(0,0,0,0.1)" /><circle cx="221.71804405606318" cy="49.28402347409569" r="21.253461742721562" fill="url(#grad_0)" stroke="rgba(0,0,0,0.05)" stroke-width="1"/><circle cx="352.19196003174625" cy="54.88342500461783" r="23.138395792795563" fill="rgba(0,0,0,0.1)" /><circle cx="350.19196003174625" cy="52.88342500461783" r="23.138395792795563" fill="url(#grad_2)" stroke="rgba(0,0,0,0.05)" stroke-width="1"/><circle cx="366.5052532469666" cy="61.03523932581998" r="23.623129434319267" fill="rgba(0,0,0,0.1)" /><circle cx="364.5052532469666" cy="59.03523932581998" r="23.623129434319267" fill="url(#grad_2)" stroke="rgba(0,0,0,0.05)" stroke-width="1"/><circle cx="131.87146452381975" cy="62.16159266014661" r="21.674389149843797" fill="rgba(0,0,0,0.1)" /><circle cx="129.87146452381975" cy="60.16159266014661" r="21.674389149843797" fill="url(#grad_1)" stroke="rgba(0,0,0,0.05)" stroke-width="1"/><circle cx="86.18285333550763" cy="54.408291157826326" r="27.634349669508296" fill="rgba(0,0,0,0.1)" /><circle cx="84.18285333550763" cy="52.408291157826326" r="27.634349669508296" fill="url(#grad_1)" stroke="rgba(0,0,0,0.05)" stroke-width="1"/><circle cx="336.57624116474136" cy="56.23199318491493" r="23.673749469692076" fill="rgba(0,0,0,0.1)" /><circle cx="334.57624116474136" cy="54.23199318491493" r="23.673749469692076" fill="url(#grad_6)" stroke="rgba(0,0,0,0.05)" stroke-width="1"/><circle cx="117.80677777716313" cy="62.897535436421364" r="24.052692128157165" fill="rgba(0,0,0,0.1)" /><circle cx="115.80677777716313" cy="60.897535436421364" r="24.052692128157165" fill="url(#grad_6)" stroke="rgba(0,0,0,0.05)" stroke-width="1"/><circle cx="207.7823617700306" cy="56.88161171696339" r="27.09051943349342" fill="rgba(0,0,0,0.1)" /><circle cx="205.7823617700306" cy="54.88161171696339" r="27.09051943349342" fill="url(#grad_0)" stroke="rgba(0,0,0,0.05)" stroke-width="1"/><circle cx="189.74990885608327" cy="59.15721107731771" r="15.40932771685355" fill="rgba(0,0,0,0.1)" /><circle cx="187.74990885608327" cy="57.15721107731771" r="15.40932771685355" fill="url(#grad_6)" stroke="rgba(0,0,0,0.05)" stroke-width="1"/><circle cx="202.89618139907847" cy="59.593842821441484" r="30.304243636247502" fill="rgba(0,0,0,0.1)" /><circle cx="200.89618139907847" cy="57.593842821441484" r="30.304243636247502" fill="url(#grad_6)" stroke="rgba(0,0,0,0.05)" stroke-width="1"/><circle cx="238.01317006513966" cy="63.28598950602826" r="19.915971334761355" fill="rgba(0,0,0,0.1)" /><circle cx="236.01317006513966" cy="61.28598950602826" r="19.915971334761355" fill="url(#grad_8)" stroke="rgba(0,0,0,0.05)" stroke-width="1"/><circle cx="285.97897631523495" cy="62.07781503765898" r="21.183531853885928" fill="rgba(0,0,0,0.1)" /><circle cx="283.97897631523495" cy="60.07781503765898" r="21.183531853885928" fill="url(#grad_1)" stroke="rgba(0,0,0,0.05)" stroke-width="1"/><circle cx="133.78474207190743" cy="64.30796071439215" r="34.31365158284254" fill="rgba(0,0,0,0.1)" /><circle cx="131.78474207190743" cy="62.307960714392145" r="34.31365158284254" fill="url(#grad_9)" stroke="rgba(0,0,0,0.05)" stroke-width="1"/><circle cx="318.4804298145286" cy="65.95559135001682" r="23.424332268252215" fill="rgba(0,0,0,0.1)" /><circle cx="316.4804298145286" cy="63.95559135001682" r="23.424332268252215" fill="url(#grad_6)" stroke="rgba(0,0,0,0.05)" stroke-width="1"/><circle cx="175.04658055543442" cy="66.50124139377044" r="20.19057120234809" fill="rgba(0,0,0,0.1)" /><circle cx="173.04658055543442" cy="64.50124139377044" r="20.19057120234809" fill="url(#grad_7)" stroke="rgba(0,0,0,0.05)" stroke-width="1"/><circle cx="71.44628450765336" cy="69.91409688890425" r="27.05955265218814" fill="rgba(0,0,0,0.1)" /><circle cx="69.44628450765336" cy="67.91409688890425" r="27.05955265218814" fill="url(#grad_2)" stroke="rgba(0,0,0,0.05)" stroke-width="1"/><circle cx="46.46468219705387" cy="67.22399029720928" r="20.065573129565422" fill="rgba(0,0,0,0.1)" /><circle cx="44.46468219705387" cy="65.22399029720928" r="20.065573129565422" fill="url(#grad_8)" stroke="rgba(0,0,0,0.05)" stroke-width="1"/><circle cx="200.64497278102795" cy="74.16527151409306" r="21.705799239727163" fill="rgba(0,0,0,0.1)" /><circle cx="198.64497278102795" cy="72.16527151409306" r="21.705799239727163" fill="url(#grad_6)" stroke="rgba(0,0,0,0.05)" stroke-width="1"/><circle cx="119.39027965139142" cy="69.21805023067125" r="19.04450245534234" fill="rgba(0,0,0,0.1)" /><circle cx="117.39027965139142" cy="67.21805023067125" r="19.04450245534234" fill="url(#grad_7)" stroke="rgba(0,0,0,0.05)" stroke-width="1"/><circle cx="69.49339300263495" cy="75.67602361550874" r="21.913422052343044" fill="rgba(0,0,0,0.1)" /><circle cx="67.49339300263495" cy="73.67602361550874" r="21.913422052343044" fill="url(#grad_5)" stroke="rgba(0,0,0,0.05)" stroke-width="1"/><circle cx="351.041433911759" cy="73.89694105137602" r="24.317436096984864" fill="rgba(0,0,0,0.1)" /><circle cx="349.041433911759" cy="71.89694105137602" r="24.317436096984864" fill="url(#grad_7)" stroke="rgba(0,0,0,0.05)" stroke-width="1"/><circle cx="313.95701838094004" cy="67.6152256834609" r="15.35696412567059" fill="rgba(0,0,0,0.1)" /><circle cx="311.95701838094004" cy="65.6152256834609" r="15.35696412567059" fill="url(#grad_2)" stroke="rgba(0,0,0,0.05)" stroke-width="1"/><circle cx="64.18370860155453" cy="73.05827280719902" r="25.90687647810866" fill="rgba(0,0,0,0.1)" /><circle cx="62.18370860155453" cy="71.05827280719902" r="25.90687647810866" fill="url(#grad_2)" stroke="rgba(0,0,0,0.05)" stroke-width="1"/><circle cx="44.62057567473316" cy="73.52904303780255" r="32.108499530020524" fill="rgba(0,0,0,0.1)" /><circle cx="42.62057567473316" cy="71.52904303780255" r="32.108499530020524" fill="url(#grad_0)" stroke="rgba(0,0,0,0.05)" stroke-width="1"/><circle cx="368.83610296068974" cy="81.68285208552581" r="29.123102001824783" fill="rgba(0,0,0,0.1)" /><circle cx="366.83610296068974" cy="79.68285208552581" r="29.123102001824783" fill="url(#grad_6)" stroke="rgba(0,0,0,0.05)" stroke-width="1"/><circle cx="291.99849891577236" cy="80.224715984245" r="22.776352650614395" fill="rgba(0,0,0,0.1)" /><circle cx="289.99849891577236" cy="78.224715984245" r="22.776352650614395" fill="url(#grad_4)" stroke="rgba(0,0,0,0.05)" stroke-width="1"/><circle cx="58.76866468403486" cy="82.57084648903287" r="29.679864036329665" fill="rgba(0,0,0,0.1)" /><circle cx="56.76866468403486" cy="80.57084648903287" r="29.679864036329665" fill="url(#grad_1)" stroke="rgba(0,0,0,0.05)" stroke-width="1"/><circle cx="357.46703259207305" cy="78.40398616722827" r="26.730754249380563" fill="rgba(0,0,0,0.1)" /><circle cx="355.46703259207305" cy="76.40398616722827" r="26.730754249380563" fill="url(#grad_2)" stroke="rgba(0,0,0,0.05)" stroke-width="1"/><circle cx="251.34423949178964" cy="82.92681611795744" r="17.218285265600496" fill="rgba(0,0,0,0.1)" /><circle cx="249.34423949178964" cy="80.92681611795744" r="17.218285265600496" fill="url(#grad_3)" stroke="rgba(0,0,0,0.05)" stroke-width="1"/><circle cx="233.7127728122144" cy="89.33529086488727" r="20.656827215913257" fill="rgba(0,0,0,0.1)" /><circle cx="231.7127728122144" cy="87.33529086488727" r="20.656827215913257" fill="url(#grad_7)" stroke="rgba(0,0,0,0.05)" stroke-width="1"/><circle cx="98.84235793280435" cy="85.70728894886744" r="26.79147142434583" fill="rgba(0,0,0,0.1)" /><circle cx="96.84235793280435" cy="83.70728894886744" r="26.79147142434583" fill="url(#grad_9)" stroke="rgba(0,0,0,0.05)" stroke-width="1"/><circle cx="120.1634113670069" cy="84.51338572260926" r="31.101511822738967" fill="rgba(0,0,0,0.1)" /><circle cx="118.1634113670069" cy="82.51338572260926" r="31.101511822738967" fill="url(#grad_7)" stroke="rgba(0,0,0,0.05)" stroke-width="1"/><circle cx="321.28215666841544" cy="88.49155053481974" r="20.311498610171377" fill="rgba(0,0,0,0.1)" /><circle cx="319.28215666841544" cy="86.49155053481974" r="20.311498610171377" fill="url(#grad_8)" stroke="rgba(0,0,0,0.05)" stroke-width="1"/><circle cx="155.36920003574147" cy="88.84915561450461" r="28.637176239067962" fill="rgba(0,0,0,0.1)" /><circle cx="153.36920003574147" cy="86.84915561450461" r="28.637176239067962" fill="url(#grad_7)" stroke="rgba(0,0,0,0.05)" stroke-width="1"/><circle cx="213.62295739465395" cy="95.9307860082276" r="23.531270770232382" fill="rgba(0,0,0,0.1)" /><circle cx="211.62295739465395" cy="93.9307860082276" r="23.531270770232382" fill="url(#grad_7)" stroke="rgba(0,0,0,0.05)" stroke-width="1"/><circle cx="159.15205201268756" cy="89.68061631656657" r="34.95261988514151" fill="rgba(0,0,0,0.1)" /><circle cx="157.15205201268756" cy="87.68061631656657" r="34.95261988514151" fill="url(#grad_2)" stroke="rgba(0,0,0,0.05)" stroke-width="1"/><circle cx="98.28497168520823" cy="96.91436015258438" r="18.827337408764343" fill="rgba(0,0,0,0.1)" /><circle cx="96.28497168520823" cy="94.91436015258438" r="18.827337408764343" fill="url(#grad_5)" stroke="rgba(0,0,0,0.05)" stroke-width="1"/><circle cx="143.74194164597253" cy="93.28307837989883" r="27.703605395047667" fill="rgba(0,0,0,0.1)" /><circle cx="141.74194164597253" cy="91.28307837989883" r="27.703605395047667" fill="url(#grad_0)" stroke="rgba(0,0,0,0.05)" stroke-width="1"/><circle cx="142.80839098043467" cy="93.57060041507611" r="30.4386465959866" fill="rgba(0,0,0,0.1)" /><circle cx="140.80839098043467" cy="91.57060041507611" r="30.4386465959866" fill="url(#grad_8)" stroke="rgba(0,0,0,0.05)" stroke-width="1"/><circle cx="79.6537436112556" cy="102.39342909019726" r="31.44252674783234" fill="rgba(0,0,0,0.1)" /><circle cx="77.6537436112556" cy="100.39342909019726" r="31.44252674783234" fill="url(#grad_7)" stroke="rgba(0,0,0,0.05)" stroke-width="1"/><circle cx="177.28987762451533" cy="96.82217629973286" r="28.609231990294965" fill="rgba(0,0,0,0.1)" /><circle cx="175.28987762451533" cy="94.82217629973286" r="28.609231990294965" fill="url(#grad_4)" stroke="rgba(0,0,0,0.05)" stroke-width="1"/><circle cx="148.47009988032613" cy="107.5349727554977" r="20.736700021990373" fill="rgba(0,0,0,0.1)" /><circle cx="146.47009988032613" cy="105.5349727554977" r="20.736700021990373" fill="url(#grad_3)" stroke="rgba(0,0,0,0.05)" stroke-width="1"/><circle cx="224.55119431686128" cy="111.12528570454836" r="24.828083422335645" fill="rgba(0,0,0,0.1)" /><circle cx="222.55119431686128" cy="109.12528570454836" r="24.828083422335645" fill="url(#grad_6)" stroke="rgba(0,0,0,0.05)" stroke-width="1"/><circle cx="184.2183545905957" cy="116.26478658419536" r="15.943378778389715" fill="rgba(0,0,0,0.1)" /><circle cx="182.2183545905957" cy="114.26478658419536" r="15.943378778389715" fill="url(#grad_5)" stroke="rgba(0,0,0,0.05)" stroke-width="1"/><circle cx="226.01825703102543" cy="119.30074800528098" r="22.190161357513176" fill="rgba(0,0,0,0.1)" /><circle cx="224.01825703102543" cy="117.30074800528098" r="22.190161357513176" fill="url(#grad_9)" stroke="rgba(0,0,0,0.05)" stroke-width="1"/><circle cx="355.67499003469" cy="117.70533585819321" r="32.2201718337913" fill="rgba(0,0,0,0.1)" /><circle cx="353.67499003469" cy="115.70533585819321" r="32.2201718337913" fill="url(#grad_1)" stroke="rgba(0,0,0,0.05)" stroke-width="1"/><circle cx="357.38457566202237" cy="115.34225325162151" r="27.567633642077165" fill="rgba(0,0,0,0.1)" /><circle cx="355.38457566202237" cy="113.34225325162151" r="27.567633642077165" fill="url(#grad_2)" stroke="rgba(0,0,0,0.05)" stroke-width="1"/><circle cx="36.13805919270396" cy="122.58164464919612" r="31.74495304837887" fill="rgba(0,0,0,0.1)" /><circle cx="34.13805919270396" cy="120.58164464919612" r="31.74495304837887" fill="url(#grad_8)" stroke="rgba(0,0,0,0.05)" stroke-width="1"/><circle cx="368.2250022600802" cy="121.0755710931877" r="33.24092972228716" fill="rgba(0,0,0,0.1)" /><circle cx="366.2250022600802" cy="119.0755710931877" r="33.24092972228716" fill="url(#grad_7)" stroke="rgba(0,0,0,0.05)" stroke-width="1"/><circle cx="138.58329418791703" cy="120.68623073104496" r="30.15274672700195" fill="rgba(0,0,0,0.1)" /><circle cx="136.58329418791703" cy="118.68623073104496" r="30.15274672700195" fill="url(#grad_3)" stroke="rgba(0,0,0,0.05)" stroke-width="1"/><circle cx="119.10589851952946" cy="128.9513003909201" r="23.738673291055598" fill="rgba(0,0,0,0.1)" /><circle cx="117.10589851952946" cy="126.9513003909201" r="23.738673291055598" fill="url(#grad_2)" stroke="rgba(0,0,0,0.05)" stroke-width="1"/><circle cx="240.00477749614078" cy="126.9241489020439" r="33.63041015756146" fill="rgba(0,0,0,0.1)" /><circle cx="238.00477749614078" cy="124.9241489020439" r="33.63041015756146" fill="url(#grad_2)" stroke="rgba(0,0,0,0.05)" stroke-width="1"/><circle cx="364.0492280172642" cy="131.77447933956716" r="28.512049039434935" fill="rgba(0,0,0,0.1)" /><circle cx="362.0492280172642" cy="129.77447933956716" r="28.512049039434935" fill="url(#grad_1)" stroke="rgba(0,0,0,0.05)" stroke-width="1"/><circle cx="309.39057187419183" cy="129.70027348502055" r="15.975005226324972" fill="rgba(0,0,0,0.1)" /><circle cx="307.39057187419183" cy="127.70027348502056" r="15.975005226324972" fill="url(#grad_4)" stroke="rgba(0,0,0,0.05)" stroke-width="1"/><circle cx="188.2254186843235" cy="128.0322242198259" r="18.980296905809432" fill="rgba(0,0,0,0.1)" /><circle cx="186.2254186843235" cy="126.0322242198259" r="18.980296905809432" fill="url(#grad_8)" stroke="rgba(0,0,0,0.05)" stroke-width="1"/><circle cx="241.78332270842753" cy="128.85921845614163" r="25.021810815828765" fill="rgba(0,0,0,0.1)" /><circle cx="239.78332270842753" cy="126.85921845614163" r="25.021810815828765" fill="url(#grad_9)" stroke="rgba(0,0,0,0.05)" stroke-width="1"/><circle cx="267.7188672803361" cy="132.0942368978274" r="21.600975003737137" fill="rgba(0,0,0,0.1)" /><circle cx="265.7188672803361" cy="130.0942368978274" r="21.600975003737137" fill="url(#grad_2)" stroke="rgba(0,0,0,0.05)" stroke-width="1"/><circle cx="248.08200929943754" cy="138.19478143831657" r="28.538555450557396" fill="rgba(0,0,0,0.1)" /><circle cx="246.08200929943754" cy="136.19478143831657" r="28.538555450557396" fill="url(#grad_4)" stroke="rgba(0,0,0,0.05)" stroke-width="1"/><circle cx="63.653391279580624" cy="132.1922836928133" r="25.913385689359544" fill="rgba(0,0,0,0.1)" /><circle cx="61.653391279580624" cy="130.1922836928133" r="25.913385689359544" fill="url(#grad_9)" stroke="rgba(0,0,0,0.05)" stroke-width="1"/><circle cx="247.98301707958257" cy="135.0396248199708" r="24.19568438604117" fill="rgba(0,0,0,0.1)" /><circle cx="245.98301707958257" cy="133.0396248199708" r="24.19568438604117" fill="url(#grad_4)" stroke="rgba(0,0,0,0.05)" stroke-width="1"/><circle cx="60.55911900947725" cy="132.43370018809017" r="17.551625096459077" fill="rgba(0,0,0,0.1)" /><circle cx="58.55911900947725" cy="130.43370018809017" r="17.551625096459077" fill="url(#grad_4)" stroke="rgba(0,0,0,0.05)" stroke-width="1"/><circle cx="116.46926074675274" cy="137.27614745549488" r="33.902743488211755" fill="rgba(0,0,0,0.1)" /><circle cx="114.46926074675274" cy="135.27614745549488" r="33.902743488211755" fill="url(#grad_9)" stroke="rgba(0,0,0,0.05)" stroke-width="1"/><circle cx="280.38106770865454" cy="132.30039071265287" r="21.40988595247144" fill="rgba(0,0,0,0.1)" /><circle cx="278.38106770865454" cy="130.30039071265287" r="21.40988595247144" fill="url(#grad_6)" stroke="rgba(0,0,0,0.05)" stroke-width="1"/><circle cx="133.60992809704706" cy="140.55416685429276" r="26.114026073444613" fill="rgba(0,0,0,0.1)" /><circle cx="131.60992809704706" cy="138.55416685429276" r="26.114026073444613" fill="url(#grad_3)" stroke="rgba(0,0,0,0.05)" stroke-width="1"/><circle cx="100.57168173524094" cy="136.23469240286641" r="17.39230881672277" fill="rgba(0,0,0,0.1)" /><circle cx="98.57168173524094" cy="134.23469240286641" r="17.39230881672277" fill="url(#grad_3)" stroke="rgba(0,0,0,0.05)" stroke-width="1"/><circle cx="128.88571962205182" cy="139.1731071681311" r="34.529673342648806" fill="rgba(0,0,0,0.1)" /><circle cx="126.88571962205182" cy="137.1731071681311" r="34.529673342648806" fill="url(#grad_8)" stroke="rgba(0,0,0,0.05)" stroke-width="1"/><circle cx="86.4927431957951" cy="135.62078243588263" r="23.44413925059129" fill="rgba(0,0,0,0.1)" /><circle cx="84.4927431957951" cy="133.62078243588263" r="23.44413925059129" fill="url(#grad_6)" stroke="rgba(0,0,0,0.05)" stroke-width="1"/><circle cx="161.32243444417497" cy="139.44411475444772" r="24.018384279128895" fill="rgba(0,0,0,0.1)" /><circle cx="159.32243444417497" cy="137.44411475444772" r="24.018384279128895" fill="url(#grad_7)" stroke="rgba(0,0,0,0.05)" stroke-width="1"/><circle cx="136.5674606267929" cy="143.92270330343814" r="15.432889464563065" fill="rgba(0,0,0,0.1)" /><circle cx="134.5674606267929" cy="141.92270330343814" r="15.432889464563065" fill="url(#grad_2)" stroke="rgba(0,0,0,0.05)" stroke-width="1"/><circle cx="379.2884166064913" cy="149.34814140117197" r="18.6257555978085" fill="rgba(0,0,0,0.1)" /><circle cx="377.2884166064913" cy="147.34814140117197" r="18.6257555978085" fill="url(#grad_5)" stroke="rgba(0,0,0,0.05)" stroke-width="1"/><circle cx="293.35969498080254" cy="147.11476825570517" r="25.776730853114138" fill="rgba(0,0,0,0.1)" /><circle cx="291.35969498080254" cy="145.11476825570517" r="25.776730853114138" fill="url(#grad_9)" stroke="rgba(0,0,0,0.05)" stroke-width="1"/><circle cx="111.99177059959732" cy="150.1088347129577" r="33.81100214050573" fill="rgba(0,0,0,0.1)" /><circle cx="109.99177059959732" cy="148.1088347129577" r="33.81100214050573" fill="url(#grad_1)" stroke="rgba(0,0,0,0.05)" stroke-width="1"/><circle cx="193.16565525571315" cy="155.21223603139347" r="23.026490246501236" fill="rgba(0,0,0,0.1)" /><circle cx="191.16565525571315" cy="153.21223603139347" r="23.026490246501236" fill="url(#grad_8)" stroke="rgba(0,0,0,0.05)" stroke-width="1"/><circle cx="125.45326460604684" cy="148.53884011971633" r="33.56595427819346" fill="rgba(0,0,0,0.1)" /><circle cx="123.45326460604684" cy="146.53884011971633" r="33.56595427819346" fill="url(#grad_1)" stroke="rgba(0,0,0,0.05)" stroke-width="1"/><circle cx="74.98763096350513" cy="155.08156894377004" r="18.964577007291116" fill="rgba(0,0,0,0.1)" /><circle cx="72.98763096350513" cy="153.08156894377004" r="18.964577007291116" fill="url(#grad_7)" stroke="rgba(0,0,0,0.05)" stroke-width="1"/><circle cx="375.98978352768376" cy="151.06318463642813" r="21.127374650443606" fill="rgba(0,0,0,0.1)" /><circle cx="373.98978352768376" cy="149.06318463642813" r="21.127374650443606" fill="url(#grad_3)" stroke="rgba(0,0,0,0.05)" stroke-width="1"/><circle cx="238.92222966622444" cy="150.61803899175663" r="20.301433138351264" fill="rgba(0,0,0,0.1)" /><circle cx="236.92222966622444" cy="148.61803899175663" r="20.301433138351264" fill="url(#grad_5)" stroke="rgba(0,0,0,0.05)" stroke-width="1"/><circle cx="209.85598295266738" cy="156.80175598940215" r="29.98340646663173" fill="rgba(0,0,0,0.1)" /><circle cx="207.85598295266738" cy="154.80175598940215" r="29.98340646663173" fill="url(#grad_6)" stroke="rgba(0,0,0,0.05)" stroke-width="1"/><circle cx="365.32873396383593" cy="152.04042757903602" r="23.591539571602596" fill="rgba(0,0,0,0.1)" /><circle cx="363.32873396383593" cy="150.04042757903602" r="23.591539571602596" fill="url(#grad_4)" stroke="rgba(0,0,0,0.05)" stroke-width="1"/><circle cx="143.62597116334103" cy="156.2069570496122" r="28.29815344761996" fill="rgba(0,0,0,0.1)" /><circle cx="141.62597116334103" cy="154.2069570496122" r="28.29815344761996" fill="url(#grad_3)" stroke="rgba(0,0,0,0.05)" stroke-width="1"/><circle cx="304.4826331084927" cy="161.38114304056987" r="26.896356204664222" fill="rgba(0,0,0,0.1)" /><circle cx="302.4826331084927" cy="159.38114304056987" r="26.896356204664222" fill="url(#grad_1)" stroke="rgba(0,0,0,0.05)" stroke-width="1"/><circle cx="152.90173524820656" cy="159.02598810690043" r="31.70285450952058" fill="rgba(0,0,0,0.1)" /><circle cx="150.90173524820656" cy="157.02598810690043" r="31.70285450952058" fill="url(#grad_2)" stroke="rgba(0,0,0,0.05)" stroke-width="1"/><circle cx="127.32803220513591" cy="158.62128738556873" r="20.235309758368167" fill="rgba(0,0,0,0.1)" /><circle cx="125.32803220513591" cy="156.62128738556873" r="20.235309758368167" fill="url(#grad_2)" stroke="rgba(0,0,0,0.05)" stroke-width="1"/><circle cx="243.00692665348313" cy="159.37980937024068" r="18.242674195995857" fill="rgba(0,0,0,0.1)" /><circle cx="241.00692665348313" cy="157.37980937024068" r="18.242674195995857" fill="url(#grad_9)" stroke="rgba(0,0,0,0.05)" stroke-width="1"/><circle cx="169.11013983722972" cy="163.09473540710127" r="34.01139901766291" fill="rgba(0,0,0,0.1)" /><circle cx="167.11013983722972" cy="161.09473540710127" r="34.01139901766291" fill="url(#grad_6)" stroke="rgba(0,0,0,0.05)" stroke-width="1"/><circle cx="229.54312669015098" cy="158.86446294900372" r="34.538220158522066" fill="rgba(0,0,0,0.1)" /><circle cx="227.54312669015098" cy="156.86446294900372" r="34.538220158522066" fill="url(#grad_7)" stroke="rgba(0,0,0,0.05)" stroke-width="1"/><circle cx="115.35854373037739" cy="164.9153395674314" r="31.404415966403985" fill="rgba(0,0,0,0.1)" /><circle cx="113.35854373037739" cy="162.9153395674314" r="31.404415966403985" fill="url(#grad_2)" stroke="rgba(0,0,0,0.05)" stroke-width="1"/><circle cx="262.13471166877963" cy="160.061940939491" r="31.95063985504653" fill="rgba(0,0,0,0.1)" /><circle cx="260.13471166877963" cy="158.061940939491" r="31.95063985504653" fill="url(#grad_3)" stroke="rgba(0,0,0,0.05)" stroke-width="1"/><circle cx="344.2771567019098" cy="169.31678336178516" r="27.69297912550505" fill="rgba(0,0,0,0.1)" /><circle cx="342.2771567019098" cy="167.31678336178516" r="27.69297912550505" fill="url(#grad_4)" stroke="rgba(0,0,0,0.05)" stroke-width="1"/><circle cx="333.21191252582497" cy="170.86992169167723" r="18.51587528443411" fill="rgba(0,0,0,0.1)" /><circle cx="331.21191252582497" cy="168.86992169167723" r="18.51587528443411" fill="url(#grad_8)" stroke="rgba(0,0,0,0.05)" stroke-width="1"/><circle cx="316.84227206868917" cy="170.46165208421627" r="17.960085169112855" fill="rgba(0,0,0,0.1)" /><circle cx="314.84227206868917" cy="168.46165208421627" r="17.960085169112855" fill="url(#grad_6)" stroke="rgba(0,0,0,0.05)" stroke-width="1"/><circle cx="144.4968700687471" cy="168.64932798210214" r="19.924520345134674" fill="rgba(0,0,0,0.1)" /><circle cx="142.4968700687471" cy="166.64932798210214" r="19.924520345134674" fill="url(#grad_2)" stroke="rgba(0,0,0,0.05)" stroke-width="1"/><circle cx="246.37925335305977" cy="167.23373988945744" r="29.687685969726" fill="rgba(0,0,0,0.1)" /><circle cx="244.37925335305977" cy="165.23373988945744" r="29.687685969726" fill="url(#grad_8)" stroke="rgba(0,0,0,0.05)" stroke-width="1"/><circle cx="355.43495211385306" cy="176.44196122393623" r="16.926893551070307" fill="rgba(0,0,0,0.1)" /><circle cx="353.43495211385306" cy="174.44196122393623" r="16.926893551070307" fill="url(#grad_1)" stroke="rgba(0,0,0,0.05)" stroke-width="1"/><circle cx="244.99296264912013" cy="168.21668264146186" r="21.75580474064125" fill="rgba(0,0,0,0.1)" /><circle cx="242.99296264912013" cy="166.21668264146186" r="21.75580474064125" fill="url(#grad_9)" stroke="rgba(0,0,0,0.05)" stroke-width="1"/><circle cx="143.09103818883932" cy="169.90132719259867" r="21.254831426417926" fill="rgba(0,0,0,0.1)" /><circle cx="141.09103818883932" cy="167.90132719259867" r="21.254831426417926" fill="url(#grad_6)" stroke="rgba(0,0,0,0.05)" stroke-width="1"/><circle cx="299.92012086734945" cy="177.13923731924146" r="24.487114056757697" fill="rgba(0,0,0,0.1)" /><circle cx="297.92012086734945" cy="175.13923731924146" r="24.487114056757697" fill="url(#grad_2)" stroke="rgba(0,0,0,0.05)" stroke-width="1"/><circle cx="211.48470404362587" cy="169.8021144406008" r="34.7294414127707" fill="rgba(0,0,0,0.1)" /><circle cx="209.48470404362587" cy="167.8021144406008" r="34.7294414127707" fill="url(#grad_9)" stroke="rgba(0,0,0,0.05)" stroke-width="1"/><circle cx="141.0259049892218" cy="173.05609591768604" r="34.35634946619267" fill="rgba(0,0,0,0.1)" /><circle cx="139.0259049892218" cy="171.05609591768604" r="34.35634946619267" fill="url(#grad_1)" stroke="rgba(0,0,0,0.05)" stroke-width="1"/><circle cx="62.29512346519644" cy="177.7374291068785" r="33.780237928716375" fill="rgba(0,0,0,0.1)" /><circle cx="60.29512346519644" cy="175.7374291068785" r="33.780237928716375" fill="url(#grad_4)" stroke="rgba(0,0,0,0.05)" stroke-width="1"/><circle cx="120.85409652070959" cy="175.59537606801075" r="28.085475970951588" fill="rgba(0,0,0,0.1)" /><circle cx="118.85409652070959" cy="173.59537606801075" r="28.085475970951588" fill="url(#grad_5)" stroke="rgba(0,0,0,0.05)" stroke-width="1"/><circle cx="145.94171664869185" cy="174.1526669811042" r="23.522858535337747" fill="rgba(0,0,0,0.1)" /><circle cx="143.94171664869185" cy="172.1526669811042" r="23.522858535337747" fill="url(#grad_9)" stroke="rgba(0,0,0,0.05)" stroke-width="1"/><circle cx="89.08500220677601" cy="176.91746294446358" r="33.63313293700357" fill="rgba(0,0,0,0.1)" /><circle cx="87.08500220677601" cy="174.91746294446358" r="33.63313293700357" fill="url(#grad_1)" stroke="rgba(0,0,0,0.05)" stroke-width="1"/><circle cx="348.8228389549914" cy="174.19118944381296" r="32.793368344841724" fill="rgba(0,0,0,0.1)" /><circle cx="346.8228389549914" cy="172.19118944381296" r="32.793368344841724" fill="url(#grad_0)" stroke="rgba(0,0,0,0.05)" stroke-width="1"/><circle cx="81.75627728119424" cy="175.85886883873778" r="15.084397521535525" fill="rgba(0,0,0,0.1)" /><circle cx="79.75627728119424" cy="173.85886883873778" r="15.084397521535525" fill="url(#grad_7)" stroke="rgba(0,0,0,0.05)" stroke-width="1"/><circle cx="290.3039503990718" cy="175.0077056990751" r="29.975705374281205" fill="rgba(0,0,0,0.1)" /><circle cx="288.3039503990718" cy="173.0077056990751" r="29.975705374281205" fill="url(#grad_0)" stroke="rgba(0,0,0,0.05)" stroke-width="1"/><circle cx="40.10190352410455" cy="180.3139925151433" r="22.206608198107908" fill="rgba(0,0,0,0.1)" /><circle cx="38.10190352410455" cy="178.3139925151433" r="22.206608198107908" fill="url(#grad_5)" stroke="rgba(0,0,0,0.05)" stroke-width="1"/><circle cx="169.8213065006025" cy="174.5293225245906" r="28.49646769807808" fill="rgba(0,0,0,0.1)" /><circle cx="167.8213065006025" cy="172.5293225245906" r="28.49646769807808" fill="url(#grad_3)" stroke="rgba(0,0,0,0.05)" stroke-width="1"/><circle cx="196.73693744384494" cy="182.01643072430562" r="29.285942876936193" fill="rgba(0,0,0,0.1)" /><circle cx="194.73693744384494" cy="180.01643072430562" r="29.285942876936193" fill="url(#grad_3)" stroke="rgba(0,0,0,0.05)" stroke-width="1"/><circle cx="281.62058156355556" cy="189.9429224141824" r="22.91550999084965" fill="rgba(0,0,0,0.1)" /><circle cx="279.62058156355556" cy="187.9429224141824" r="22.91550999084965" fill="url(#grad_5)" stroke="rgba(0,0,0,0.05)" stroke-width="1"/><circle cx="144.5454219065488" cy="184.88382417052577" r="26.019254937317235" fill="rgba(0,0,0,0.1)" /><circle cx="142.5454219065488" cy="182.88382417052577" r="26.019254937317235" fill="url(#grad_6)" stroke="rgba(0,0,0,0.05)" stroke-width="1"/><circle cx="44.7515208971581" cy="185.71854207927976" r="16.422896704127524" fill="rgba(0,0,0,0.1)" /><circle cx="42.7515208971581" cy="183.71854207927976" r="16.422896704127524" fill="url(#grad_6)" stroke="rgba(0,0,0,0.05)" stroke-width="1"/><circle cx="298.09247293020064" cy="192.07421639160907" r="28.02615634047933" fill="rgba(0,0,0,0.1)" /><circle cx="296.09247293020064" cy="190.07421639160907" r="28.02615634047933" fill="url(#grad_7)" stroke="rgba(0,0,0,0.05)" stroke-width="1"/><circle cx="242.67820496664635" cy="191.85924302459205" r="25.338015085341237" fill="rgba(0,0,0,0.1)" /><circle cx="240.67820496664635" cy="189.85924302459205" r="25.338015085341237" fill="url(#grad_8)" stroke="rgba(0,0,0,0.05)" stroke-width="1"/><circle cx="336.47073897393426" cy="186.49896590808976" r="25.61072495902452" fill="rgba(0,0,0,0.1)" /><circle cx="334.47073897393426" cy="184.49896590808976" r="25.61072495902452" fill="url(#grad_3)" stroke="rgba(0,0,0,0.05)" stroke-width="1"/><circle cx="234.37469339279073" cy="185.51382681895367" r="15.974911500801" fill="rgba(0,0,0,0.1)" /><circle cx="232.37469339279073" cy="183.51382681895367" r="15.974911500801" fill="url(#grad_0)" stroke="rgba(0,0,0,0.05)" stroke-width="1"/><circle cx="73.82592512782077" cy="189.53777862718823" r="26.614623246326648" fill="rgba(0,0,0,0.1)" /><circle cx="71.82592512782077" cy="187.53777862718823" r="26.614623246326648" fill="url(#grad_6)" stroke="rgba(0,0,0,0.05)" stroke-width="1"/><circle cx="320.99335005964747" cy="187.61177088816714" r="25.946828578546665" fill="rgba(0,0,0,0.1)" /><circle cx="318.99335005964747" cy="185.61177088816714" r="25.946828578546665" fill="url(#grad_1)" stroke="rgba(0,0,0,0.05)" stroke-width="1"/><circle cx="255.37271705255455" cy="197.69019715323003" r="22.823594548864364" fill="rgba(0,0,0,0.1)" /><circle cx="253.37271705255455" cy="195.69019715323003" r="22.823594548864364" fill="url(#grad_0)" stroke="rgba(0,0,0,0.05)" stroke-width="1"/><circle cx="243.68662952475574" cy="199.56482134443394" r="34.0025430155435" fill="rgba(0,0,0,0.1)" /><circle cx="241.68662952475574" cy="197.56482134443394" r="34.0025430155435" fill="url(#grad_1)" stroke="rgba(0,0,0,0.05)" stroke-width="1"/><circle cx="306.1146201519636" cy="194.70004982960359" r="30.363900393100117" fill="rgba(0,0,0,0.1)" /><circle cx="304.1146201519636" cy="192.70004982960359" r="30.363900393100117" fill="url(#grad_7)" stroke="rgba(0,0,0,0.05)" stroke-width="1"/><circle cx="74.14980624649259" cy="194.1504554426643" r="28.134350686602875" fill="rgba(0,0,0,0.1)" /><circle cx="72.14980624649259" cy="192.1504554426643" r="28.134350686602875" fill="url(#grad_9)" stroke="rgba(0,0,0,0.05)" stroke-width="1"/><circle cx="293.6739770019867" cy="196.92213838044506" r="34.12366028356377" fill="rgba(0,0,0,0.1)" /><circle cx="291.6739770019867" cy="194.92213838044506" r="34.12366028356377" fill="url(#grad_9)" stroke="rgba(0,0,0,0.05)" stroke-width="1"/><circle cx="204.8857054825993" cy="194.28500133203258" r="27.328290288038854" fill="rgba(0,0,0,0.1)" /><circle cx="202.8857054825993" cy="192.28500133203258" r="27.328290288038854" fill="url(#grad_6)" stroke="rgba(0,0,0,0.05)" stroke-width="1"/><circle cx="279.21261437238775" cy="192.9902198772849" r="26.469137391810246" fill="rgba(0,0,0,0.1)" /><circle cx="277.21261437238775" cy="190.9902198772849" r="26.469137391810246" fill="url(#grad_9)" stroke="rgba(0,0,0,0.05)" stroke-width="1"/><circle cx="326.28278703204944" cy="198.4863799167248" r="24.811954244730927" fill="rgba(0,0,0,0.1)" /><circle cx="324.28278703204944" cy="196.4863799167248" r="24.811954244730927" fill="url(#grad_0)" stroke="rgba(0,0,0,0.05)" stroke-width="1"/><circle cx="309.66451249335967" cy="201.86468551418096" r="28.06486676282506" fill="rgba(0,0,0,0.1)" /><circle cx="307.66451249335967" cy="199.86468551418096" r="28.06486676282506" fill="url(#grad_7)" stroke="rgba(0,0,0,0.05)" stroke-width="1"/><circle cx="261.9264839755533" cy="201.30533672769067" r="23.170205184020126" fill="rgba(0,0,0,0.1)" /><circle cx="259.9264839755533" cy="199.30533672769067" r="23.170205184020126" fill="url(#grad_5)" stroke="rgba(0,0,0,0.05)" stroke-width="1"/><circle cx="225.10104662154913" cy="196.09897455234184" r="30.43848568533395" fill="rgba(0,0,0,0.1)" /><circle cx="223.10104662154913" cy="194.09897455234184" r="30.43848568533395" fill="url(#grad_8)" stroke="rgba(0,0,0,0.05)" stroke-width="1"/><circle cx="280.5567496466855" cy="202.9017970618739" r="24.221762304913653" fill="rgba(0,0,0,0.1)" /><circle cx="278.5567496466855" cy="200.9017970618739" r="24.221762304913653" fill="url(#grad_8)" stroke="rgba(0,0,0,0.05)" stroke-width="1"/><circle cx="311.9799858775316" cy="200.97005305251383" r="20.135147987914465" fill="rgba(0,0,0,0.1)" /><circle cx="309.9799858775316" cy="198.97005305251383" r="20.135147987914465" fill="url(#grad_0)" stroke="rgba(0,0,0,0.05)" stroke-width="1"/><circle cx="280.8521155956104" cy="199.56488320622003" r="21.611379459692884" fill="rgba(0,0,0,0.1)" /><circle cx="278.8521155956104" cy="197.56488320622003" r="21.611379459692884" fill="url(#grad_4)" stroke="rgba(0,0,0,0.05)" stroke-width="1"/><circle cx="120.808537798564" cy="204.79181891520608" r="17.717554394521898" fill="rgba(0,0,0,0.1)" /><circle cx="118.808537798564" cy="202.79181891520608" r="17.717554394521898" fill="url(#grad_2)" stroke="rgba(0,0,0,0.05)" stroke-width="1"/><circle cx="301.55218506038113" cy="208.70300978826475" r="29.55856307116179" fill="rgba(0,0,0,0.1)" /><circle cx="299.55218506038113" cy="206.70300978826475" r="29.55856307116179" fill="url(#grad_2)" stroke="rgba(0,0,0,0.05)" stroke-width="1"/><circle cx="86.19842353726263" cy="205.9243036627272" r="18.57422087943333" fill="rgba(0,0,0,0.1)" /><circle cx="84.19842353726263" cy="203.9243036627272" r="18.57422087943333" fill="url(#grad_7)" stroke="rgba(0,0,0,0.05)" stroke-width="1"/><circle cx="231.40183144274087" cy="206.84769883431463" r="33.0166711330817" fill="rgba(0,0,0,0.1)" /><circle cx="229.40183144274087" cy="204.84769883431463" r="33.0166711330817" fill="url(#grad_7)" stroke="rgba(0,0,0,0.05)" stroke-width="1"/><circle cx="207.78191090377254" cy="208.20003003891824" r="33.07025415298884" fill="rgba(0,0,0,0.1)" /><circle cx="205.78191090377254" cy="206.20003003891824" r="33.07025415298884" fill="url(#grad_1)" stroke="rgba(0,0,0,0.05)" stroke-width="1"/><circle cx="145.40395116581072" cy="201.7564074896523" r="32.461844883357884" fill="rgba(0,0,0,0.1)" /><circle cx="143.40395116581072" cy="199.7564074896523" r="32.461844883357884" fill="url(#grad_5)" stroke="rgba(0,0,0,0.05)" stroke-width="1"/><circle cx="24.500416788355402" cy="206.16106014665976" r="17.185933615173017" fill="rgba(0,0,0,0.1)" /><circle cx="22.500416788355402" cy="204.16106014665976" r="17.185933615173017" fill="url(#grad_1)" stroke="rgba(0,0,0,0.05)" stroke-width="1"/><circle cx="254.8623807567321" cy="203.3811126219423" r="32.54994754361889" fill="rgba(0,0,0,0.1)" /><circle cx="252.8623807567321" cy="201.3811126219423" r="32.54994754361889" fill="url(#grad_1)" stroke="rgba(0,0,0,0.05)" stroke-width="1"/><circle cx="67.02849816429189" cy="207.32486991377266" r="26.73300972466485" fill="rgba(0,0,0,0.1)" /><circle cx="65.02849816429189" cy="205.32486991377266" r="26.73300972466485" fill="url(#grad_7)" stroke="rgba(0,0,0,0.05)" stroke-width="1"/><circle cx="375.13094354119914" cy="204.04202651374354" r="17.412111276947012" fill="rgba(0,0,0,0.1)" /><circle cx="373.13094354119914" cy="202.04202651374354" r="17.412111276947012" fill="url(#grad_6)" stroke="rgba(0,0,0,0.05)" stroke-width="1"/><circle cx="46.055676989872985" cy="207.92076850921856" r="21.36695140412658" fill="rgba(0,0,0,0.1)" /><circle cx="44.055676989872985" cy="205.92076850921856" r="21.36695140412658" fill="url(#grad_1)" stroke="rgba(0,0,0,0.05)" stroke-width="1"/><circle cx="227.16056587524346" cy="210.21527599598858" r="21.03106715044089" fill="rgba(0,0,0,0.1)" /><circle cx="225.16056587524346" cy="208.21527599598858" r="21.03106715044089" fill="url(#grad_7)" stroke="rgba(0,0,0,0.05)" stroke-width="1"/><circle cx="335.7653382570479" cy="214.4548702607319" r="22.835358020411952" fill="rgba(0,0,0,0.1)" /><circle cx="333.7653382570479" cy="212.4548702607319" r="22.835358020411952" fill="url(#grad_6)" stroke="rgba(0,0,0,0.05)" stroke-width="1"/><circle cx="70.25893883845364" cy="217.4470046802702" r="27.25387450572157" fill="rgba(0,0,0,0.1)" /><circle cx="68.25893883845364" cy="215.4470046802702" r="27.25387450572157" fill="url(#grad_8)" stroke="rgba(0,0,0,0.05)" stroke-width="1"/><circle cx="321.977214770913" cy="220.42330691663813" r="27.331605111886812" fill="rgba(0,0,0,0.1)" /><circle cx="319.977214770913" cy="218.42330691663813" r="27.331605111886812" fill="url(#grad_7)" stroke="rgba(0,0,0,0.05)" stroke-width="1"/><circle cx="292.6612960935655" cy="219.03359872032982" r="15.493131074251046" fill="rgba(0,0,0,0.1)" /><circle cx="290.6612960935655" cy="217.03359872032982" r="15.493131074251046" fill="url(#grad_2)" stroke="rgba(0,0,0,0.05)" stroke-width="1"/><circle cx="304.81518961875383" cy="225.49604511653445" r="20.62103922902938" fill="rgba(0,0,0,0.1)" /><circle cx="302.81518961875383" cy="223.49604511653445" r="20.62103922902938" fill="url(#grad_7)" stroke="rgba(0,0,0,0.05)" stroke-width="1"/><circle cx="62.66445876322999" cy="223.37890026371326" r="32.41000572711579" fill="rgba(0,0,0,0.1)" /><circle cx="60.66445876322999" cy="221.37890026371326" r="32.41000572711579" fill="url(#grad_0)" stroke="rgba(0,0,0,0.05)" stroke-width="1"/><circle cx="126.77512560605108" cy="226.7888818726352" r="19.36149329218234" fill="rgba(0,0,0,0.1)" /><circle cx="124.77512560605108" cy="224.7888818726352" r="19.36149329218234" fill="url(#grad_1)" stroke="rgba(0,0,0,0.05)" stroke-width="1"/><circle cx="89.95489479719816" cy="223.52575873714105" r="18.481161387300865" fill="rgba(0,0,0,0.1)" /><circle cx="87.95489479719816" cy="221.52575873714105" r="18.481161387300865" fill="url(#grad_9)" stroke="rgba(0,0,0,0.05)" stroke-width="1"/><circle cx="234.7833099943901" cy="230.9335292526177" r="27.437020825905833" fill="rgba(0,0,0,0.1)" /><circle cx="232.7833099943901" cy="228.9335292526177" r="27.437020825905833" fill="url(#grad_9)" stroke="rgba(0,0,0,0.05)" stroke-width="1"/><circle cx="75.11842834102461" cy="224.98351678463374" r="17.39616865140897" fill="rgba(0,0,0,0.1)" /><circle cx="73.11842834102461" cy="222.98351678463374" r="17.39616865140897" fill="url(#grad_2)" stroke="rgba(0,0,0,0.05)" stroke-width="1"/><circle cx="321.17081776152787" cy="227.4651194422695" r="22.828867951642522" fill="rgba(0,0,0,0.1)" /><circle cx="319.17081776152787" cy="225.4651194422695" r="22.828867951642522" fill="url(#grad_3)" stroke="rgba(0,0,0,0.05)" stroke-width="1"/><circle cx="267.1341079329718" cy="232.51383513713196" r="21.214648615820238" fill="rgba(0,0,0,0.1)" /><circle cx="265.1341079329718" cy="230.51383513713196" r="21.214648615820238" fill="url(#grad_6)" stroke="rgba(0,0,0,0.05)" stroke-width="1"/><circle cx="185.8998956994947" cy="229.57013980810657" r="26.048887803295468" fill="rgba(0,0,0,0.1)" /><circle cx="183.8998956994947" cy="227.57013980810657" r="26.048887803295468" fill="url(#grad_0)" stroke="rgba(0,0,0,0.05)" stroke-width="1"/><circle cx="157.4662963156214" cy="235.17387253410422" r="22.960439601520523" fill="rgba(0,0,0,0.1)" /><circle cx="155.4662963156214" cy="233.17387253410422" r="22.960439601520523" fill="url(#grad_6)" stroke="rgba(0,0,0,0.05)" stroke-width="1"/><circle cx="280.3701010773161" cy="229.22343095556045" r="27.430733220370485" fill="rgba(0,0,0,0.1)" /><circle cx="278.3701010773161" cy="227.22343095556045" r="27.430733220370485" fill="url(#grad_2)" stroke="rgba(0,0,0,0.05)" stroke-width="1"/><circle cx="162.06704959260736" cy="234.85544771149523" r="25.88341526062287" fill="rgba(0,0,0,0.1)" /><circle cx="160.06704959260736" cy="232.85544771149523" r="25.88341526062287" fill="url(#grad_6)" stroke="rgba(0,0,0,0.05)" stroke-width="1"/><circle cx="317.94623732994404" cy="230.86367388065554" r="20.183589383713755" fill="rgba(0,0,0,0.1)" /><circle cx="315.94623732994404" cy="228.86367388065554" r="20.183589383713755" fill="url(#grad_7)" stroke="rgba(0,0,0,0.05)" stroke-width="1"/><circle cx="50.721337004577364" cy="233.64242579736788" r="34.994705315958555" fill="rgba(0,0,0,0.1)" /><circle cx="48.721337004577364" cy="231.64242579736788" r="34.994705315958555" fill="url(#grad_2)" stroke="rgba(0,0,0,0.05)" stroke-width="1"/><circle cx="248.4078495807307" cy="240.78926459235848" r="33.5470970477271" fill="rgba(0,0,0,0.1)" /><circle cx="246.4078495807307" cy="238.78926459235848" r="33.5470970477271" fill="url(#grad_2)" stroke="rgba(0,0,0,0.05)" stroke-width="1"/><circle cx="30.997583126639718" cy="241.4341172689629" r="28.4906635947549" fill="rgba(0,0,0,0.1)" /><circle cx="28.997583126639718" cy="239.4341172689629" r="28.4906635947549" fill="url(#grad_4)" stroke="rgba(0,0,0,0.05)" stroke-width="1"/><circle cx="354.60331459353813" cy="233.31228073195624" r="30.05864230740708" fill="rgba(0,0,0,0.1)" /><circle cx="352.60331459353813" cy="231.31228073195624" r="30.05864230740708" fill="url(#grad_1)" stroke="rgba(0,0,0,0.05)" stroke-width="1"/><circle cx="157.9818241200852" cy="239.57484407692328" r="30.93447904199222" fill="rgba(0,0,0,0.1)" /><circle cx="155.9818241200852" cy="237.57484407692328" r="30.93447904199222" fill="url(#grad_5)" stroke="rgba(0,0,0,0.05)" stroke-width="1"/><circle cx="105.12942460104341" cy="237.39648330090083" r="19.70650124658865" fill="rgba(0,0,0,0.1)" /><circle cx="103.12942460104341" cy="235.39648330090083" r="19.70650124658865" fill="url(#grad_0)" stroke="rgba(0,0,0,0.05)" stroke-width="1"/><circle cx="181.70395135398314" cy="240.30718781869604" r="15.921676854420477" fill="rgba(0,0,0,0.1)" /><circle cx="179.70395135398314" cy="238.30718781869604" r="15.921676854420477" fill="url(#grad_2)" stroke="rgba(0,0,0,0.05)" stroke-width="1"/><circle cx="250.18993003927037" cy="239.89128727103414" r="17.843705029567257" fill="rgba(0,0,0,0.1)" /><circle cx="248.18993003927037" cy="237.89128727103414" r="17.843705029567257" fill="url(#grad_7)" stroke="rgba(0,0,0,0.05)" stroke-width="1"/><circle cx="108.50650480081335" cy="240.57025077094946" r="15.32670843164282" fill="rgba(0,0,0,0.1)" /><circle cx="106.50650480081335" cy="238.57025077094946" r="15.32670843164282" fill="url(#grad_9)" stroke="rgba(0,0,0,0.05)" stroke-width="1"/><circle cx="120.35849026513199" cy="242.78682620466438" r="31.43699663012779" fill="rgba(0,0,0,0.1)" /><circle cx="118.35849026513199" cy="240.78682620466438" r="31.43699663012779" fill="url(#grad_8)" stroke="rgba(0,0,0,0.05)" stroke-width="1"/><circle cx="250.27705137553667" cy="249.34222489141834" r="18.991099433200567" fill="rgba(0,0,0,0.1)" /><circle cx="248.27705137553667" cy="247.34222489141834" r="18.991099433200567" fill="url(#grad_8)" stroke="rgba(0,0,0,0.05)" stroke-width="1"/><circle cx="234.5742378058992" cy="248.00137245275667" r="28.775976972306403" fill="rgba(0,0,0,0.1)" /><circle cx="232.5742378058992" cy="246.00137245275667" r="28.775976972306403" fill="url(#grad_7)" stroke="rgba(0,0,0,0.05)" stroke-width="1"/><circle cx="297.3496443138857" cy="247.67998900565254" r="26.058135433382056" fill="rgba(0,0,0,0.1)" /><circle cx="295.3496443138857" cy="245.67998900565254" r="26.058135433382056" fill="url(#grad_5)" stroke="rgba(0,0,0,0.05)" stroke-width="1"/><circle cx="248.81146779378906" cy="247.01007953764557" r="32.75040815996505" fill="rgba(0,0,0,0.1)" /><circle cx="246.81146779378906" cy="245.01007953764557" r="32.75040815996505" fill="url(#grad_6)" stroke="rgba(0,0,0,0.05)" stroke-width="1"/><circle cx="333.4871360496323" cy="251.07479236184903" r="31.385452823317188" fill="rgba(0,0,0,0.1)" /><circle cx="331.4871360496323" cy="249.07479236184903" r="31.385452823317188" fill="url(#grad_6)" stroke="rgba(0,0,0,0.05)" stroke-width="1"/><circle cx="160.98774096609048" cy="256.41502493316443" r="20.273770219224417" fill="rgba(0,0,0,0.1)" /><circle cx="158.98774096609048" cy="254.41502493316446" r="20.273770219224417" fill="url(#grad_9)" stroke="rgba(0,0,0,0.05)" stroke-width="1"/><circle cx="103.53273702085615" cy="251.94732888294357" r="19.068246873955772" fill="rgba(0,0,0,0.1)" /><circle cx="101.53273702085615" cy="249.94732888294357" r="19.068246873955772" fill="url(#grad_9)" stroke="rgba(0,0,0,0.05)" stroke-width="1"/><circle cx="74.23301377959538" cy="254.26784350121906" r="24.57457945616159" fill="rgba(0,0,0,0.1)" /><circle cx="72.23301377959538" cy="252.26784350121906" r="24.57457945616159" fill="url(#grad_3)" stroke="rgba(0,0,0,0.05)" stroke-width="1"/><circle cx="168.6952217485953" cy="249.8797936755618" r="24.200473985210017" fill="rgba(0,0,0,0.1)" /><circle cx="166.6952217485953" cy="247.8797936755618" r="24.200473985210017" fill="url(#grad_1)" stroke="rgba(0,0,0,0.05)" stroke-width="1"/><circle cx="183.83008037293305" cy="258.9496857264238" r="16.334625699947544" fill="rgba(0,0,0,0.1)" /><circle cx="181.83008037293305" cy="256.9496857264238" r="16.334625699947544" fill="url(#grad_4)" stroke="rgba(0,0,0,0.05)" stroke-width="1"/><circle cx="338.27556779827444" cy="256.99980706338374" r="24.976127178657492" fill="rgba(0,0,0,0.1)" /><circle cx="336.27556779827444" cy="254.99980706338377" r="24.976127178657492" fill="url(#grad_6)" stroke="rgba(0,0,0,0.05)" stroke-width="1"/><circle cx="36.69312703015166" cy="258.65597250881183" r="19.589279463178286" fill="rgba(0,0,0,0.1)" /><circle cx="34.69312703015166" cy="256.65597250881183" r="19.589279463178286" fill="url(#grad_0)" stroke="rgba(0,0,0,0.05)" stroke-width="1"/><circle cx="364.7217357194225" cy="264.48658145025354" r="28.27333316399334" fill="rgba(0,0,0,0.1)" /><circle cx="362.7217357194225" cy="262.48658145025354" r="28.27333316399334" fill="url(#grad_8)" stroke="rgba(0,0,0,0.05)" stroke-width="1"/><circle cx="63.01841673372637" cy="266.92928055331515" r="15.37099377741608" fill="rgba(0,0,0,0.1)" /><circle cx="61.01841673372637" cy="264.92928055331515" r="15.37099377741608" fill="url(#grad_3)" stroke="rgba(0,0,0,0.05)" stroke-width="1"/><circle cx="274.17972277419153" cy="258.432941176795" r="27.25878555742696" fill="rgba(0,0,0,0.1)" /><circle cx="272.17972277419153" cy="256.432941176795" r="27.25878555742696" fill="url(#grad_6)" stroke="rgba(0,0,0,0.05)" stroke-width="1"/><circle cx="249.0074418865421" cy="263.3996878366628" r="18.88868948330655" fill="rgba(0,0,0,0.1)" /><circle cx="247.0074418865421" cy="261.3996878366628" r="18.88868948330655" fill="url(#grad_6)" stroke="rgba(0,0,0,0.05)" stroke-width="1"/><circle cx="326.97880196171496" cy="263.84419861247795" r="16.56870915838722" fill="rgba(0,0,0,0.1)" /><circle cx="324.97880196171496" cy="261.84419861247795" r="16.56870915838722" fill="url(#grad_0)" stroke="rgba(0,0,0,0.05)" stroke-width="1"/><circle cx="117.70977594327441" cy="266.07029990595333" r="17.085746546260484" fill="rgba(0,0,0,0.1)" /><circle cx="115.70977594327441" cy="264.07029990595333" r="17.085746546260484" fill="url(#grad_4)" stroke="rgba(0,0,0,0.05)" stroke-width="1"/><circle cx="370.96607929117266" cy="271.661586896453" r="26.88601726274856" fill="rgba(0,0,0,0.1)" /><circle cx="368.96607929117266" cy="269.661586896453" r="26.88601726274856" fill="url(#grad_3)" stroke="rgba(0,0,0,0.05)" stroke-width="1"/><circle cx="92.69933467075838" cy="269.8334824085456" r="22.666794406805366" fill="rgba(0,0,0,0.1)" /><circle cx="90.69933467075838" cy="267.8334824085456" r="22.666794406805366" fill="url(#grad_8)" stroke="rgba(0,0,0,0.05)" stroke-width="1"/><circle cx="127.34940371047728" cy="271.6510858987445" r="25.631962121853867" fill="rgba(0,0,0,0.1)" /><circle cx="125.34940371047728" cy="269.6510858987445" r="25.631962121853867" fill="url(#grad_0)" stroke="rgba(0,0,0,0.05)" stroke-width="1"/><circle cx="190.0036521753351" cy="270.8546044908036" r="26.768149215939587" fill="rgba(0,0,0,0.1)" /><circle cx="188.0036521753351" cy="268.8546044908036" r="26.768149215939587" fill="url(#grad_9)" stroke="rgba(0,0,0,0.05)" stroke-width="1"/><circle cx="122.97911312681913" cy="272.5184535126394" r="21.94319158691256" fill="rgba(0,0,0,0.1)" /><circle cx="120.97911312681913" cy="270.5184535126394" r="21.94319158691256" fill="url(#grad_4)" stroke="rgba(0,0,0,0.05)" stroke-width="1"/><circle cx="115.67531755557567" cy="277.47363556891435" r="18.82978615881141" fill="rgba(0,0,0,0.1)" /><circle cx="113.67531755557567" cy="275.47363556891435" r="18.82978615881141" fill="url(#grad_8)" stroke="rgba(0,0,0,0.05)" stroke-width="1"/><circle cx="52.064738575194205" cy="276.3102937328078" r="24.426244681743395" fill="rgba(0,0,0,0.1)" /><circle cx="50.064738575194205" cy="274.3102937328078" r="24.426244681743395" fill="url(#grad_8)" stroke="rgba(0,0,0,0.05)" stroke-width="1"/><circle cx="215.9410196759542" cy="279.4870933941442" r="16.34088554395263" fill="rgba(0,0,0,0.1)" /><circle cx="213.9410196759542" cy="277.4870933941442" r="16.34088554395263" fill="url(#grad_7)" stroke="rgba(0,0,0,0.05)" stroke-width="1"/></svg>