<svg width="400" height="300" viewBox="0 0 400 300" xmlns="http://www.w3.org/2000/svg"><rect width="100%" height="100%" fill="#f8f9fa"/><defs>
            <radialGradient id="grad_0" cx="40%" cy="40%" r="80%" fx="30%" fy="30%">
                <stop offset="0%" style="stop-color:#fdfdfd;stop-opacity:1" />
                <stop offset="90%" style="stop-color:#e2e2e2;stop-opacity:0.4" />
            </radialGradient>
            
            <radialGradient id="grad_1" cx="40%" cy="40%" r="80%" fx="30%" fy="30%">
                <stop offset="0%" style="stop-color:#f7f7f7;stop-opacity:1" />
                <stop offset="90%" style="stop-color:#e2e2e2;stop-opacity:0.4" />
            </radialGradient>
            
            <radialGradient id="grad_2" cx="40%" cy="40%" r="80%" fx="30%" fy="30%">
                <stop offset="0%" style="stop-color:#f4f4f4;stop-opacity:1" />
                <stop offset="90%" style="stop-color:#e2e2e2;stop-opacity:0.4" />
            </radialGradient>
            
            <radialGradient id="grad_3" cx="40%" cy="40%" r="80%" fx="30%" fy="30%">
                <stop offset="0%" style="stop-color:#f3f3f3;stop-opacity:1" />
                <stop offset="90%" style="stop-color:#e2e2e2;stop-opacity:0.4" />
            </radialGradient>
            
            <radialGradient id="grad_4" cx="40%" cy="40%" r="80%" fx="30%" fy="30%">
                <stop offset="0%" style="stop-color:#ededed;stop-opacity:1" />
                <stop offset="90%" style="stop-color:#e2e2e2;stop-opacity:0.4" />
            </radialGradient>
            
            <radialGradient id="grad_5" cx="40%" cy="40%" r="80%" fx="30%" fy="30%">
                <stop offset="0%" style="stop-color:#eaeaea;stop-opacity:1" />
                <stop offset="90%" style="stop-color:#e2e2e2;stop-opacity:0.4" />
            </radialGradient>
            
            <radialGradient id="grad_6" cx="40%" cy="40%" r="80%" fx="30%" fy="30%">
                <stop offset="0%" style="stop-color:#e8e8e8;stop-opacity:1" />
                <stop offset="90%" style="stop-color:#e2e2e2;stop-opacity:0.4" />
            </radialGradient>
            
            <radialGradient id="grad_7" cx="40%" cy="40%" r="80%" fx="30%" fy="30%">
                <stop offset="0%" style="stop-color:#e5e5e5;stop-opacity:1" />
                <stop offset="90%" style="stop-color:#e2e2e2;stop-opacity:0.4" />
            </radialGradient>
            
            <radialGradient id="grad_8" cx="40%" cy="40%" r="80%" fx="30%" fy="30%">
                <stop offset="0%" style="stop-color:#e1e1e1;stop-opacity:1" />
                <stop offset="90%" style="stop-color:#e2e2e2;stop-opacity:0.4" />
            </radialGradient>
            
            <radialGradient id="grad_9" cx="40%" cy="40%" r="80%" fx="30%" fy="30%">
                <stop offset="0%" style="stop-color:#dedede;stop-opacity:1" />
                <stop offset="90%" style="stop-color:#e2e2e2;stop-opacity:0.4" />
            </radialGradient>
            </defs><circle cx="209.8723545313201" cy="21.740812728047622" r="17.271834252591713" fill="rgba(0,0,0,0.1)" /><circle cx="207.8723545313201" cy="19.740812728047622" r="17.271834252591713" fill="url(#grad_2)" stroke="rgba(0,0,0,0.05)" stroke-width="1"/><circle cx="88.83053599644784" cy="31.038599231998322" r="28.543154540295305" fill="rgba(0,0,0,0.1)" /><circle cx="86.83053599644784" cy="29.038599231998322" r="28.543154540295305" fill="url(#grad_8)" stroke="rgba(0,0,0,0.05)" stroke-width="1"/><circle cx="144.29871212591337" cy="26.35437148147367" r="22.159759312557796" fill="rgba(0,0,0,0.1)" /><circle cx="142.29871212591337" cy="24.35437148147367" r="22.159759312557796" fill="url(#grad_9)" stroke="rgba(0,0,0,0.05)" stroke-width="1"/><circle cx="219.23358066485943" cy="30.30875550052602" r="17.73583512319784" fill="rgba(0,0,0,0.1)" /><circle cx="217.23358066485943" cy="28.30875550052602" r="17.73583512319784" fill="url(#grad_6)" stroke="rgba(0,0,0,0.05)" stroke-width="1"/><circle cx="258.579702610248" cy="25.44303065631177" r="17.506574578919466" fill="rgba(0,0,0,0.1)" /><circle cx="256.579702610248" cy="23.44303065631177" r="17.506574578919466" fill="url(#grad_0)" stroke="rgba(0,0,0,0.05)" stroke-width="1"/><circle cx="303.909657494" cy="23.68212150611428" r="20.778968539380706" fill="rgba(0,0,0,0.1)" /><circle cx="301.909657494" cy="21.68212150611428" r="20.778968539380706" fill="url(#grad_2)" stroke="rgba(0,0,0,0.05)" stroke-width="1"/><circle cx="223.48731097206624" cy="31.642096692952457" r="20.85029708761468" fill="rgba(0,0,0,0.1)" /><circle cx="221.48731097206624" cy="29.642096692952457" r="20.85029708761468" fill="url(#grad_8)" stroke="rgba(0,0,0,0.05)" stroke-width="1"/><circle cx="93.11857049131828" cy="31.862898501145583" r="23.449520081980396" fill="rgba(0,0,0,0.1)" /><circle cx="91.11857049131828" cy="29.862898501145583" r="23.449520081980396" fill="url(#grad_3)" stroke="rgba(0,0,0,0.05)" stroke-width="1"/><circle cx="43.4310025716194" cy="35.87266365973102" r="21.974270454870364" fill="rgba(0,0,0,0.1)" /><circle cx="41.4310025716194" cy="33.87266365973102" r="21.974270454870364" fill="url(#grad_1)" stroke="rgba(0,0,0,0.05)" stroke-width="1"/><circle cx="131.85810791742404" cy="37.79599190317059" r="31.488095869284653" fill="rgba(0,0,0,0.1)" /><circle cx="129.85810791742404" cy="35.79599190317059" r="31.488095869284653" fill="url(#grad_6)" stroke="rgba(0,0,0,0.05)" stroke-width="1"/><circle cx="251.8709117548351" cy="34.660824196670404" r="20.064395230577574" fill="rgba(0,0,0,0.1)" /><circle cx="249.8709117548351" cy="32.660824196670404" r="20.064395230577574" fill="url(#grad_4)" stroke="rgba(0,0,0,0.05)" stroke-width="1"/><circle cx="372.30735483919074" cy="41.79521113063963" r="25.836517604540287" fill="rgba(0,0,0,0.1)" /><circle cx="370.30735483919074" cy="39.79521113063963" r="25.836517604540287" fill="url(#grad_0)" stroke="rgba(0,0,0,0.05)" stroke-width="1"/><circle cx="356.42327116831314" cy="34.7403661061043" r="30.765706034089533" fill="rgba(0,0,0,0.1)" /><circle cx="354.42327116831314" cy="32.7403661061043" r="30.765706034089533" fill="url(#grad_2)" stroke="rgba(0,0,0,0.05)" stroke-width="1"/><circle cx="92.45970408663864" cy="40.3892941216878" r="15.894871084735158" fill="rgba(0,0,0,0.1)" /><circle cx="90.45970408663864" cy="38.3892941216878" r="15.894871084735158" fill="url(#grad_4)" stroke="rgba(0,0,0,0.05)" stroke-width="1"/><circle cx="84.25977452803485" cy="42.069238605913476" r="20.645807754744936" fill="rgba(0,0,0,0.1)" /><circle cx="82.25977452803485" cy="40.069238605913476" r="20.645807754744936" fill="url(#grad_3)" stroke="rgba(0,0,0,0.05)" stroke-width="1"/><circle cx="37.204488772887046" cy="41.44279270013131" r="19.09243103835194" fill="rgba(0,0,0,0.1)" /><circle cx="35.204488772887046" cy="39.44279270013131" r="19.09243103835194" fill="url(#grad_2)" stroke="rgba(0,0,0,0.05)" stroke-width="1"/><circle cx="65.20247689234981" cy="39.23301022509274" r="30.48285658975658" fill="rgba(0,0,0,0.1)" /><circle cx="63.202476892349814" cy="37.23301022509274" r="30.48285658975658" fill="url(#grad_2)" stroke="rgba(0,0,0,0.05)" stroke-width="1"/><circle cx="297.4382861888505" cy="47.09945365184434" r="20.331978246840904" fill="rgba(0,0,0,0.1)" /><circle cx="295.4382861888505" cy="45.09945365184434" r="20.331978246840904" fill="url(#grad_1)" stroke="rgba(0,0,0,0.05)" stroke-width="1"/><circle cx="352.31005754513006" cy="42.52193434561903" r="26.214862670566106" fill="rgba(0,0,0,0.1)" /><circle cx="350.31005754513006" cy="40.52193434561903" r="26.214862670566106" fill="url(#grad_4)" stroke="rgba(0,0,0,0.05)" stroke-width="1"/><circle cx="314.3033595623248" cy="43.92182322394045" r="20.31359237863582" fill="rgba(0,0,0,0.1)" /><circle cx="312.3033595623248" cy="41.92182322394045" r="20.31359237863582" fill="url(#grad_1)" stroke="rgba(0,0,0,0.05)" stroke-width="1"/><circle cx="118.66208559056632" cy="41.80595961405653" r="18.6690306488816" fill="rgba(0,0,0,0.1)" /><circle cx="116.66208559056632" cy="39.80595961405653" r="18.6690306488816" fill="url(#grad_8)" stroke="rgba(0,0,0,0.05)" stroke-width="1"/><circle cx="253.61671027443555" cy="46.81756288935999" r="24.728600330187664" fill="rgba(0,0,0,0.1)" /><circle cx="251.61671027443555" cy="44.81756288935999" r="24.728600330187664" fill="url(#grad_5)" stroke="rgba(0,0,0,0.05)" stroke-width="1"/><circle cx="138.30515510359382" cy="42.762743485813516" r="21.352457147303447" fill="rgba(0,0,0,0.1)" /><circle cx="136.30515510359382" cy="40.762743485813516" r="21.352457147303447" fill="url(#grad_2)" stroke="rgba(0,0,0,0.05)" stroke-width="1"/><circle cx="128.9943951585462" cy="50.131627728633006" r="33.47036316771148" fill="rgba(0,0,0,0.1)" /><circle cx="126.99439515854621" cy="48.131627728633006" r="33.47036316771148" fill="url(#grad_5)" stroke="rgba(0,0,0,0.05)" stroke-width="1"/><circle cx="73.16348456897396" cy="49.36505911226196" r="20.24849439276191" fill="rgba(0,0,0,0.1)" /><circle cx="71.16348456897396" cy="47.36505911226196" r="20.24849439276191" fill="url(#grad_1)" stroke="rgba(0,0,0,0.05)" stroke-width="1"/><circle cx="262.74877592455437" cy="44.853581959819095" r="20.969838064775633" fill="rgba(0,0,0,0.1)" /><circle cx="260.74877592455437" cy="42.853581959819095" r="20.969838064775633" fill="url(#grad_6)" stroke="rgba(0,0,0,0.05)" stroke-width="1"/><circle cx="220.97273235946008" cy="47.13664810120195" r="20.794920220340497" fill="rgba(0,0,0,0.1)" /><circle cx="218.97273235946008" cy="45.13664810120195" r="20.794920220340497" fill="url(#grad_4)" stroke="rgba(0,0,0,0.05)" stroke-width="1"/><circle cx="343.2723007605184" cy="47.22055723362075" r="20.10807688379562" fill="rgba(0,0,0,0.1)" /><circle cx="341.2723007605184" cy="45.22055723362075" r="20.10807688379562" fill="url(#grad_8)" stroke="rgba(0,0,0,0.05)" stroke-width="1"/><circle cx="39.91271605356221" cy="53.65022019156276" r="25.017251790919726" fill="rgba(0,0,0,0.1)" /><circle cx="37.91271605356221" cy="51.65022019156276" r="25.017251790919726" fill="url(#grad_1)" stroke="rgba(0,0,0,0.05)" stroke-width="1"/><circle cx="261.49332419457613" cy="52.54625518942903" r="31.41598424545911" fill="rgba(0,0,0,0.1)" /><circle cx="259.49332419457613" cy="50.54625518942903" r="31.41598424545911" fill="url(#grad_6)" stroke="rgba(0,0,0,0.05)" stroke-width="1"/><circle cx="225.42549764253118" cy="49.278865434974946" r="30.768022005173442" fill="rgba(0,0,0,0.1)" /><circle cx="223.42549764253118" cy="47.278865434974946" r="30.768022005173442" fill="url(#grad_4)" stroke="rgba(0,0,0,0.05)" stroke-width="1"/><circle cx="348.4855288420476" cy="49.36393015984801" r="21.29965277843264" fill="rgba(0,0,0,0.1)" /><circle cx="346.4855288420476" cy="47.36393015984801" r="21.29965277843264" fill="url(#grad_6)" stroke="rgba(0,0,0,0.05)" stroke-width="1"/><circle cx="231.27510580418172" cy="47.95876403238549" r="32.87371500970183" fill="rgba(0,0,0,0.1)" /><circle cx="229.27510580418172" cy="45.95876403238549" r="32.87371500970183" fill="url(#grad_7)" stroke="rgba(0,0,0,0.05)" stroke-width="1"/><circle cx="276.3521505029537" cy="55.037783617124845" r="19.86274780276941" fill="rgba(0,0,0,0.1)" /><circle cx="274.3521505029537" cy="53.037783617124845" r="19.86274780276941" fill="url(#grad_7)" stroke="rgba(0,0,0,0.05)" stroke-width="1"/><circle cx="219.32872431297034" cy="57.96522775748459" r="23.25284397056783" fill="rgba(0,0,0,0.1)" /><circle cx="217.32872431297034" cy="55.96522775748459" r="23.25284397056783" fill="url(#grad_2)" stroke="rgba(0,0,0,0.05)" stroke-width="1"/><circle cx="223.33070744974566" cy="57.216540141496225" r="34.547596729296984" fill="rgba(0,0,0,0.1)" /><circle cx="221.33070744974566" cy="55.216540141496225" r="34.547596729296984" fill="url(#grad_1)" stroke="rgba(0,0,0,0.05)" stroke-width="1"/><circle cx="278.2302521876336" cy="60.358895513788056" r="33.240174727285776" fill="rgba(0,0,0,0.1)" /><circle cx="276.2302521876336" cy="58.358895513788056" r="33.240174727285776" fill="url(#grad_7)" stroke="rgba(0,0,0,0.05)" stroke-width="1"/><circle cx="254.28150733613143" cy="58.517217369835066" r="19.865026060930226" fill="rgba(0,0,0,0.1)" /><circle cx="252.28150733613143" cy="56.517217369835066" r="19.865026060930226" fill="url(#grad_3)" stroke="rgba(0,0,0,0.05)" stroke-width="1"/><circle cx="185.30531525058217" cy="58.458201861970366" r="30.907154041404475" fill="rgba(0,0,0,0.1)" /><circle cx="183.30531525058217" cy="56.458201861970366" r="30.907154041404475" fill="url(#grad_6)" stroke="rgba(0,0,0,0.05)" stroke-width="1"/><circle cx="197.96368465018008" cy="59.71766670642256" r="34.20270930446894" fill="rgba(0,0,0,0.1)" /><circle cx="195.96368465018008" cy="57.71766670642256" r="34.20270930446894" fill="url(#grad_3)" stroke="rgba(0,0,0,0.05)" stroke-width="1"/><circle cx="110.17838016826559" cy="56.3498656911685" r="32.07721909712241" fill="rgba(0,0,0,0.1)" /><circle cx="108.17838016826559" cy="54.3498656911685" r="32.07721909712241" fill="url(#grad_2)" stroke="rgba(0,0,0,0.05)" stroke-width="1"/><circle cx="142.64332029035785" cy="55.56479664140312" r="23.506519342689558" fill="rgba(0,0,0,0.1)" /><circle cx="140.64332029035785" cy="53.56479664140312" r="23.506519342689558" fill="url(#grad_7)" stroke="rgba(0,0,0,0.05)" stroke-width="1"/><circle cx="94.68432708654512" cy="62.86052262143521" r="33.54109645000004" fill="rgba(0,0,0,0.1)" /><circle cx="92.68432708654512" cy="60.86052262143521" r="33.54109645000004" fill="url(#grad_4)" stroke="rgba(0,0,0,0.05)" stroke-width="1"/><circle cx="134.49013869895452" cy="61.27745310016999" r="30.028022682654782" fill="rgba(0,0,0,0.1)" /><circle cx="132.49013869895452" cy="59.27745310016999" r="30.028022682654782" fill="url(#grad_5)" stroke="rgba(0,0,0,0.05)" stroke-width="1"/><circle cx="293.08292331726426" cy="62.4461776189539" r="24.819403711956237" fill="rgba(0,0,0,0.1)" /><circle cx="291.08292331726426" cy="60.4461776189539" r="24.819403711956237" fill="url(#grad_0)" stroke="rgba(0,0,0,0.05)" stroke-width="1"/><circle cx="269.10842934865525" cy="61.2144056403456" r="32.79807080555355" fill="rgba(0,0,0,0.1)" /><circle cx="267.10842934865525" cy="59.2144056403456" r="32.79807080555355" fill="url(#grad_3)" stroke="rgba(0,0,0,0.05)" stroke-width="1"/><circle cx="338.6169441824866" cy="62.961346576022244" r="29.170655720976647" fill="rgba(0,0,0,0.1)" /><circle cx="336.6169441824866" cy="60.961346576022244" r="29.170655720976647" fill="url(#grad_8)" stroke="rgba(0,0,0,0.05)" stroke-width="1"/><circle cx="229.6807316969931" cy="60.01896947690376" r="18.00762211092815" fill="rgba(0,0,0,0.1)" /><circle cx="227.6807316969931" cy="58.01896947690376" r="18.00762211092815" fill="url(#grad_7)" stroke="rgba(0,0,0,0.05)" stroke-width="1"/><circle cx="371.7919353486834" cy="67.1390613847694" r="24.833415159990402" fill="rgba(0,0,0,0.1)" /><circle cx="369.7919353486834" cy="65.1390613847694" r="24.833415159990402" fill="url(#grad_4)" stroke="rgba(0,0,0,0.05)" stroke-width="1"/><circle cx="290.88102439938336" cy="69.86608457370063" r="32.2466083401305" fill="rgba(0,0,0,0.1)" /><circle cx="288.88102439938336" cy="67.86608457370063" r="32.2466083401305" fill="url(#grad_2)" stroke="rgba(0,0,0,0.05)" stroke-width="1"/><circle cx="75.0168325777325" cy="64.98949443381395" r="22.63725324640689" fill="rgba(0,0,0,0.1)" /><circle cx="73.0168325777325" cy="62.989494433813945" r="22.63725324640689" fill="url(#grad_9)" stroke="rgba(0,0,0,0.05)" stroke-width="1"/><circle cx="258.1304246797637" cy="65.30875465511839" r="31.888147508042408" fill="rgba(0,0,0,0.1)" /><circle cx="256.1304246797637" cy="63.30875465511839" r="31.888147508042408" fill="url(#grad_8)" stroke="rgba(0,0,0,0.05)" stroke-width="1"/><circle cx="55.75218216304965" cy="67.35064800869905" r="19.51306987770533" fill="rgba(0,0,0,0.1)" /><circle cx="53.75218216304965" cy="65.35064800869905" r="19.51306987770533" fill="url(#grad_3)" stroke="rgba(0,0,0,0.05)" stroke-width="1"/><circle cx="185.44081282163143" cy="70.60793415592741" r="27.33664445554759" fill="rgba(0,0,0,0.1)" /><circle cx="183.44081282163143" cy="68.60793415592741" r="27.33664445554759" fill="url(#grad_0)" stroke="rgba(0,0,0,0.05)" stroke-width="1"/><circle cx="306.1142986098578" cy="74.55484547690152" r="17.589925744054163" fill="rgba(0,0,0,0.1)" /><circle cx="304.1142986098578" cy="72.55484547690152" r="17.589925744054163" fill="url(#grad_4)" stroke="rgba(0,0,0,0.05)" stroke-width="1"/><circle cx="55.36045270805322" cy="70.02583798577695" r="15.657656338604234" fill="rgba(0,0,0,0.1)" /><circle cx="53.36045270805322" cy="68.02583798577695" r="15.657656338604234" fill="url(#grad_7)" stroke="rgba(0,0,0,0.05)" stroke-width="1"/><circle cx="68.07749396556218" cy="75.7129292697652" r="19.37545833860348" fill="rgba(0,0,0,0.1)" /><circle cx="66.07749396556218" cy="73.7129292697652" r="19.37545833860348" fill="url(#grad_0)" stroke="rgba(0,0,0,0.05)" stroke-width="1"/><circle cx="180.1399645299308" cy="67.83547677863929" r="27.37439893577502" fill="rgba(0,0,0,0.1)" /><circle cx="178.1399645299308" cy="65.83547677863929" r="27.37439893577502" fill="url(#grad_4)" stroke="rgba(0,0,0,0.05)" stroke-width="1"/><circle cx="94.04732133304978" cy="75.74064064197263" r="31.472223703609334" fill="rgba(0,0,0,0.1)" /><circle cx="92.04732133304978" cy="73.74064064197263" r="31.472223703609334" fill="url(#grad_0)" stroke="rgba(0,0,0,0.05)" stroke-width="1"/><circle cx="283.8922830666428" cy="69.50688534335407" r="29.170690756565975" fill="rgba(0,0,0,0.1)" /><circle cx="281.8922830666428" cy="67.50688534335407" r="29.170690756565975" fill="url(#grad_8)" stroke="rgba(0,0,0,0.05)" stroke-width="1"/><circle cx="194.54571264655988" cy="77.57429864931231" r="31.981930171761277" fill="rgba(0,0,0,0.1)" /><circle cx="192.54571264655988" cy="75.57429864931231" r="31.981930171761277" fill="url(#grad_8)" stroke="rgba(0,0,0,0.05)" stroke-width="1"/><circle cx="154.36169377625728" cy="80.4274763856135" r="23.809021215684034" fill="rgba(0,0,0,0.1)" /><circle cx="152.36169377625728" cy="78.4274763856135" r="23.809021215684034" fill="url(#grad_9)" stroke="rgba(0,0,0,0.05)" stroke-width="1"/><circle cx="277.0084101625465" cy="76.27033009136957" r="26.53957030537282" fill="rgba(0,0,0,0.1)" /><circle cx="275.0084101625465" cy="74.27033009136957" r="26.53957030537282" fill="url(#grad_9)" stroke="rgba(0,0,0,0.05)" stroke-width="1"/><circle cx="43.340282115815256" cy="75.72421389544701" r="22.566358839823337" fill="rgba(0,0,0,0.1)" /><circle cx="41.340282115815256" cy="73.72421389544701" r="22.566358839823337" fill="url(#grad_3)" stroke="rgba(0,0,0,0.05)" stroke-width="1"/><circle cx="349.7317358182104" cy="79.54100879351299" r="24.218987665705455" fill="rgba(0,0,0,0.1)" /><circle cx="347.7317358182104" cy="77.54100879351299" r="24.218987665705455" fill="url(#grad_6)" stroke="rgba(0,0,0,0.05)" stroke-width="1"/><circle cx="80.90326522915814" cy="77.51198941685205" r="30.926298706573252" fill="rgba(0,0,0,0.1)" /><circle cx="78.90326522915814" cy="75.51198941685205" r="30.926298706573252" fill="url(#grad_8)" stroke="rgba(0,0,0,0.05)" stroke-width="1"/><circle cx="44.48067544799788" cy="81.96575879255914" r="18.589950660205474" fill="rgba(0,0,0,0.1)" /><circle cx="42.48067544799788" cy="79.96575879255914" r="18.589950660205474" fill="url(#grad_2)" stroke="rgba(0,0,0,0.05)" stroke-width="1"/><circle cx="356.90813177901987" cy="80.1993166328086" r="28.751753321094096" fill="rgba(0,0,0,0.1)" /><circle cx="354.90813177901987" cy="78.1993166328086" r="28.751753321094096" fill="url(#grad_9)" stroke="rgba(0,0,0,0.05)" stroke-width="1"/><circle cx="98.25225466028701" cy="80.58303748311315" r="27.68330818381984" fill="rgba(0,0,0,0.1)" /><circle cx="96.25225466028701" cy="78.58303748311315" r="27.68330818381984" fill="url(#grad_4)" stroke="rgba(0,0,0,0.05)" stroke-width="1"/><circle cx="130.7176537355682" cy="85.72952015707095" r="34.02871501025958" fill="rgba(0,0,0,0.1)" /><circle cx="128.7176537355682" cy="83.72952015707095" r="34.02871501025958" fill="url(#grad_2)" stroke="rgba(0,0,0,0.05)" stroke-width="1"/><circle cx="335.90022274622584" cy="81.63657399868971" r="22.73298517100151" fill="rgba(0,0,0,0.1)" /><circle cx="333.90022274622584" cy="79.63657399868971" r="22.73298517100151" fill="url(#grad_8)" stroke="rgba(0,0,0,0.05)" stroke-width="1"/><circle cx="111.57688312805934" cy="84.63703650486232" r="27.731548994276558" fill="rgba(0,0,0,0.1)" /><circle cx="109.57688312805934" cy="82.63703650486232" r="27.731548994276558" fill="url(#grad_8)" stroke="rgba(0,0,0,0.05)" stroke-width="1"/><circle cx="364.91213995443303" cy="91.948236069828" r="25.165537382797208" fill="rgba(0,0,0,0.1)" /><circle cx="362.91213995443303" cy="89.948236069828" r="25.165537382797208" fill="url(#grad_5)" stroke="rgba(0,0,0,0.05)" stroke-width="1"/><circle cx="101.59784532946941" cy="83.75441110386765" r="22.339965846941404" fill="rgba(0,0,0,0.1)" /><circle cx="99.59784532946941" cy="81.75441110386765" r="22.339965846941404" fill="url(#grad_2)" stroke="rgba(0,0,0,0.05)" stroke-width="1"/><circle cx="206.33721750018114" cy="87.75768787504708" r="26.983551153601905" fill="rgba(0,0,0,0.1)" /><circle cx="204.33721750018114" cy="85.75768787504708" r="26.983551153601905" fill="url(#grad_7)" stroke="rgba(0,0,0,0.05)" stroke-width="1"/><circle cx="150.17855811487414" cy="91.6793554199417" r="16.04187210190459" fill="rgba(0,0,0,0.1)" /><circle cx="148.17855811487414" cy="89.6793554199417" r="16.04187210190459" fill="url(#grad_0)" stroke="rgba(0,0,0,0.05)" stroke-width="1"/><circle cx="302.4162607197182" cy="93.99075922550952" r="23.9186928699433" fill="rgba(0,0,0,0.1)" /><circle cx="300.4162607197182" cy="91.99075922550952" r="23.9186928699433" fill="url(#grad_8)" stroke="rgba(0,0,0,0.05)" stroke-width="1"/><circle cx="210.33158337774836" cy="88.04689589837112" r="16.49199689689141" fill="rgba(0,0,0,0.1)" /><circle cx="208.33158337774836" cy="86.04689589837112" r="16.49199689689141" fill="url(#grad_2)" stroke="rgba(0,0,0,0.05)" stroke-width="1"/><circle cx="299.96500862833216" cy="87.76470701768753" r="24.58917133569102" fill="rgba(0,0,0,0.1)" /><circle cx="297.96500862833216" cy="85.76470701768753" r="24.58917133569102" fill="url(#grad_5)" stroke="rgba(0,0,0,0.05)" stroke-width="1"/><circle cx="199.1448033746649" cy="88.99852257204347" r="17.463995221592835" fill="rgba(0,0,0,0.1)" /><circle cx="197.1448033746649" cy="86.99852257204347" r="17.463995221592835" fill="url(#grad_5)" stroke="rgba(0,0,0,0.05)" stroke-width="1"/><circle cx="59.736629681186564" cy="92.12159286912677" r="27.67750031300273" fill="rgba(0,0,0,0.1)" /><circle cx="57.736629681186564" cy="90.12159286912677" r="27.67750031300273" fill="url(#grad_4)" stroke="rgba(0,0,0,0.05)" stroke-width="1"/><circle cx="188.22350661230783" cy="93.0650928986052" r="33.02000728939356" fill="rgba(0,0,0,0.1)" /><circle cx="186.22350661230783" cy="91.0650928986052" r="33.02000728939356" fill="url(#grad_4)" stroke="rgba(0,0,0,0.05)" stroke-width="1"/><circle cx="283.1450692115898" cy="95.28785883524687" r="29.442638547869514" fill="rgba(0,0,0,0.1)" /><circle cx="281.1450692115898" cy="93.28785883524687" r="29.442638547869514" fill="url(#grad_0)" stroke="rgba(0,0,0,0.05)" stroke-width="1"/><circle cx="101.05673863791674" cy="89.60035236266962" r="23.36383178874145" fill="rgba(0,0,0,0.1)" /><circle cx="99.05673863791674" cy="87.60035236266962" r="23.36383178874145" fill="url(#grad_7)" stroke="rgba(0,0,0,0.05)" stroke-width="1"/><circle cx="258.16607338196565" cy="93.93623358361307" r="34.74824489482917" fill="rgba(0,0,0,0.1)" /><circle cx="256.16607338196565" cy="91.93623358361307" r="34.74824489482917" fill="url(#grad_6)" stroke="rgba(0,0,0,0.05)" stroke-width="1"/><circle cx="81.05847096106189" cy="93.75826256364532" r="18.48137241678508" fill="rgba(0,0,0,0.1)" /><circle cx="79.05847096106189" cy="91.75826256364532" r="18.48137241678508" fill="url(#grad_0)" stroke="rgba(0,0,0,0.05)" stroke-width="1"/><circle cx="102.32958698749508" cy="95.46674498058782" r="31.97584356633013" fill="rgba(0,0,0,0.1)" /><circle cx="100.32958698749508" cy="93.46674498058782" r="31.97584356633013" fill="url(#grad_0)" stroke="rgba(0,0,0,0.05)" stroke-width="1"/><circle cx="213.83544140055042" cy="92.33695291285711" r="25.53965559380424" fill="rgba(0,0,0,0.1)" /><circle cx="211.83544140055042" cy="90.33695291285711" r="25.53965559380424" fill="url(#grad_3)" stroke="rgba(0,0,0,0.05)" stroke-width="1"/><circle cx="282.45080306152386" cy="100.80721530531703" r="33.29756953211228" fill="rgba(0,0,0,0.1)" /><circle cx="280.45080306152386" cy="98.80721530531703" r="33.29756953211228" fill="url(#grad_4)" stroke="rgba(0,0,0,0.05)" stroke-width="1"/><circle cx="347.7459670837369" cy="98.66587363744208" r="15.07446054085732" fill="rgba(0,0,0,0.1)" /><circle cx="345.7459670837369" cy="96.66587363744208" r="15.07446054085732" fill="url(#grad_5)" stroke="rgba(0,0,0,0.05)" stroke-width="1"/><circle cx="37.68036171843021" cy="93.01324256986797" r="30.91362446227513" fill="rgba(0,0,0,0.1)" /><circle cx="35.68036171843021" cy="91.01324256986797" r="30.91362446227513" fill="url(#grad_5)" stroke="rgba(0,0,0,0.05)" stroke-width="1"/><circle cx="277.5612611224224" cy="96.61677620595087" r="22.93054253541311" fill="rgba(0,0,0,0.1)" /><circle cx="275.5612611224224" cy="94.61677620595087" r="22.93054253541311" fill="url(#grad_2)" stroke="rgba(0,0,0,0.05)" stroke-width="1"/><circle cx="340.00385724471704" cy="94.86045682866347" r="34.081220218785305" fill="rgba(0,0,0,0.1)" /><circle cx="338.00385724471704" cy="92.86045682866347" r="34.081220218785305" fill="url(#grad_0)" stroke="rgba(0,0,0,0.05)" stroke-width="1"/><circle cx="281.4245443075562" cy="101.91911985241414" r="16.4905932686452" fill="rgba(0,0,0,0.1)" /><circle cx="279.4245443075562" cy="99.91911985241414" r="16.4905932686452" fill="url(#grad_2)" stroke="rgba(0,0,0,0.05)" stroke-width="1"/><circle cx="51.67973186799199" cy="96.85897749063135" r="23.00120919452547" fill="rgba(0,0,0,0.1)" /><circle cx="49.67973186799199" cy="94.85897749063135" r="23.00120919452547" fill="url(#grad_9)" stroke="rgba(0,0,0,0.05)" stroke-width="1"/><circle cx="148.35569074459886" cy="101.17724835593192" r="19.416265078185944" fill="rgba(0,0,0,0.1)" /><circle cx="146.35569074459886" cy="99.17724835593192" r="19.416265078185944" fill="url(#grad_7)" stroke="rgba(0,0,0,0.05)" stroke-width="1"/><circle cx="199.03701966563085" cy="103.11922852873178" r="34.31162368616995" fill="rgba(0,0,0,0.1)" /><circle cx="197.03701966563085" cy="101.11922852873178" r="34.31162368616995" fill="url(#grad_5)" stroke="rgba(0,0,0,0.05)" stroke-width="1"/><circle cx="211.29360622179541" cy="105.40226482076615" r="26.461081816071708" fill="rgba(0,0,0,0.1)" /><circle cx="209.29360622179541" cy="103.40226482076615" r="26.461081816071708" fill="url(#grad_6)" stroke="rgba(0,0,0,0.05)" stroke-width="1"/><circle cx="70.87315024074015" cy="103.42407183240192" r="22.33759224392739" fill="rgba(0,0,0,0.1)" /><circle cx="68.87315024074015" cy="101.42407183240192" r="22.33759224392739" fill="url(#grad_8)" stroke="rgba(0,0,0,0.05)" stroke-width="1"/><circle cx="176.78742220566733" cy="105.25242608579053" r="33.236137933164486" fill="rgba(0,0,0,0.1)" /><circle cx="174.78742220566733" cy="103.25242608579053" r="33.236137933164486" fill="url(#grad_1)" stroke="rgba(0,0,0,0.05)" stroke-width="1"/><circle cx="242.57771215766655" cy="101.48163416734148" r="16.950301698151392" fill="rgba(0,0,0,0.1)" /><circle cx="240.57771215766655" cy="99.48163416734148" r="16.950301698151392" fill="url(#grad_8)" stroke="rgba(0,0,0,0.05)" stroke-width="1"/><circle cx="108.8449381537327" cy="105.2917358542139" r="31.533205677469592" fill="rgba(0,0,0,0.1)" /><circle cx="106.8449381537327" cy="103.2917358542139" r="31.533205677469592" fill="url(#grad_0)" stroke="rgba(0,0,0,0.05)" stroke-width="1"/><circle cx="215.06472506363252" cy="109.6341122520429" r="16.261169944283594" fill="rgba(0,0,0,0.1)" /><circle cx="213.06472506363252" cy="107.6341122520429" r="16.261169944283594" fill="url(#grad_0)" stroke="rgba(0,0,0,0.05)" stroke-width="1"/><circle cx="242.7973005002699" cy="108.16095469955364" r="15.561912522977314" fill="rgba(0,0,0,0.1)" /><circle cx="240.7973005002699" cy="106.16095469955364" r="15.561912522977314" fill="url(#grad_8)" stroke="rgba(0,0,0,0.05)" stroke-width="1"/><circle cx="74.74607118558815" cy="111.99124069750309" r="21.770288065740306" fill="rgba(0,0,0,0.1)" /><circle cx="72.74607118558815" cy="109.99124069750309" r="21.770288065740306" fill="url(#grad_5)" stroke="rgba(0,0,0,0.05)" stroke-width="1"/><circle cx="236.79483127472895" cy="107.50507676966436" r="28.82346601221939" fill="rgba(0,0,0,0.1)" /><circle cx="234.79483127472895" cy="105.50507676966436" r="28.82346601221939" fill="url(#grad_9)" stroke="rgba(0,0,0,0.05)" stroke-width="1"/><circle cx="252.45519420169697" cy="105.84229306580968" r="23.37330315202911" fill="rgba(0,0,0,0.1)" /><circle cx="250.45519420169697" cy="103.84229306580968" r="23.37330315202911" fill="url(#grad_5)" stroke="rgba(0,0,0,0.05)" stroke-width="1"/><circle cx="66.3245874423682" cy="110.68673169430036" r="31.727990082523142" fill="rgba(0,0,0,0.1)" /><circle cx="64.3245874423682" cy="108.68673169430036" r="31.727990082523142" fill="url(#grad_3)" stroke="rgba(0,0,0,0.05)" stroke-width="1"/><circle cx="309.80258233810287" cy="115.35536840386962" r="34.58123867680421" fill="rgba(0,0,0,0.1)" /><circle cx="307.80258233810287" cy="113.35536840386962" r="34.58123867680421" fill="url(#grad_3)" stroke="rgba(0,0,0,0.05)" stroke-width="1"/><circle cx="104.86003566448053" cy="116.1057772241855" r="31.119729591813936" fill="rgba(0,0,0,0.1)" /><circle cx="102.86003566448053" cy="114.1057772241855" r="31.119729591813936" fill="url(#grad_5)" stroke="rgba(0,0,0,0.05)" stroke-width="1"/><circle cx="171.86959646028717" cy="116.54024008736718" r="15.90979105852087" fill="rgba(0,0,0,0.1)" /><circle cx="169.86959646028717" cy="114.54024008736718" r="15.90979105852087" fill="url(#grad_8)" stroke="rgba(0,0,0,0.05)" stroke-width="1"/><circle cx="292.6806469806204" cy="117.91953942113992" r="27.34472901739519" fill="rgba(0,0,0,0.1)" /><circle cx="290.6806469806204" cy="115.91953942113992" r="27.34472901739519" fill="url(#grad_2)" stroke="rgba(0,0,0,0.05)" stroke-width="1"/><circle cx="176.0972336975616" cy="111.23256532117537" r="26.259265126653023" fill="rgba(0,0,0,0.1)" /><circle cx="174.0972336975616" cy="109.23256532117537" r="26.259265126653023" fill="url(#grad_7)" stroke="rgba(0,0,0,0.05)" stroke-width="1"/><circle cx="116.08880311051688" cy="112.93853703357387" r="23.700601606475647" fill="rgba(0,0,0,0.1)" /><circle cx="114.08880311051688" cy="110.93853703357387" r="23.700601606475647" fill="url(#grad_1)" stroke="rgba(0,0,0,0.05)" stroke-width="1"/><circle cx="335.1393607618118" cy="111.27276487822078" r="27.86609805297839" fill="rgba(0,0,0,0.1)" /><circle cx="333.1393607618118" cy="109.27276487822078" r="27.86609805297839" fill="url(#grad_3)" stroke="rgba(0,0,0,0.05)" stroke-width="1"/><circle cx="109.45608665019229" cy="119.13789436534431" r="31.344691379132936" fill="rgba(0,0,0,0.1)" /><circle cx="107.45608665019229" cy="117.13789436534431" r="31.344691379132936" fill="url(#grad_6)" stroke="rgba(0,0,0,0.05)" stroke-width="1"/><circle cx="139.56565075273443" cy="117.34346050987955" r="21.10965263750881" fill="rgba(0,0,0,0.1)" /><circle cx="137.56565075273443" cy="115.34346050987955" r="21.10965263750881" fill="url(#grad_2)" stroke="rgba(0,0,0,0.05)" stroke-width="1"/><circle cx="270.1736890685511" cy="119.87008363613435" r="16.75507499823628" fill="rgba(0,0,0,0.1)" /><circle cx="268.1736890685511" cy="117.87008363613435" r="16.75507499823628" fill="url(#grad_5)" stroke="rgba(0,0,0,0.05)" stroke-width="1"/><circle cx="191.15070121023427" cy="123.01841603253689" r="25.112370769170965" fill="rgba(0,0,0,0.1)" /><circle cx="189.15070121023427" cy="121.01841603253689" r="25.112370769170965" fill="url(#grad_3)" stroke="rgba(0,0,0,0.05)" stroke-width="1"/><circle cx="114.29005672940856" cy="123.04626320278769" r="27.379869973473593" fill="rgba(0,0,0,0.1)" /><circle cx="112.29005672940856" cy="121.04626320278769" r="27.379869973473593" fill="url(#grad_7)" stroke="rgba(0,0,0,0.05)" stroke-width="1"/><circle cx="51.242702658949014" cy="124.2639737689507" r="30.91170673772926" fill="rgba(0,0,0,0.1)" /><circle cx="49.242702658949014" cy="122.2639737689507" r="30.91170673772926" fill="url(#grad_5)" stroke="rgba(0,0,0,0.05)" stroke-width="1"/><circle cx="342.6380176920044" cy="127.03154303607573" r="24.217446894792367" fill="rgba(0,0,0,0.1)" /><circle cx="340.6380176920044" cy="125.03154303607573" r="24.217446894792367" fill="url(#grad_0)" stroke="rgba(0,0,0,0.05)" stroke-width="1"/><circle cx="271.0579549987866" cy="119.75063673641965" r="34.14644034645309" fill="rgba(0,0,0,0.1)" /><circle cx="269.0579549987866" cy="117.75063673641965" r="34.14644034645309" fill="url(#grad_8)" stroke="rgba(0,0,0,0.05)" stroke-width="1"/><circle cx="378.0727988198462" cy="127.02324291156542" r="18.319581310923393" fill="rgba(0,0,0,0.1)" /><circle cx="376.0727988198462" cy="125.02324291156542" r="18.319581310923393" fill="url(#grad_3)" stroke="rgba(0,0,0,0.05)" stroke-width="1"/><circle cx="235.6499484239689" cy="122.59402689565746" r="27.08765934133291" fill="rgba(0,0,0,0.1)" /><circle cx="233.6499484239689" cy="120.59402689565746" r="27.08765934133291" fill="url(#grad_0)" stroke="rgba(0,0,0,0.05)" stroke-width="1"/><circle cx="162.44136094049156" cy="121.15218249038995" r="16.096341052831725" fill="rgba(0,0,0,0.1)" /><circle cx="160.44136094049156" cy="119.15218249038995" r="16.096341052831725" fill="url(#grad_2)" stroke="rgba(0,0,0,0.05)" stroke-width="1"/><circle cx="256.5759862353095" cy="125.99757037449447" r="22.161947857381577" fill="rgba(0,0,0,0.1)" /><circle cx="254.57598623530947" cy="123.99757037449447" r="22.161947857381577" fill="url(#grad_5)" stroke="rgba(0,0,0,0.05)" stroke-width="1"/><circle cx="137.32732170587153" cy="130.08977656848123" r="27.174852003956687" fill="rgba(0,0,0,0.1)" /><circle cx="135.32732170587153" cy="128.08977656848123" r="27.174852003956687" fill="url(#grad_0)" stroke="rgba(0,0,0,0.05)" stroke-width="1"/><circle cx="191.17129408969353" cy="124.6387413919133" r="22.855216376418866" fill="rgba(0,0,0,0.1)" /><circle cx="189.17129408969353" cy="122.6387413919133" r="22.855216376418866" fill="url(#grad_0)" stroke="rgba(0,0,0,0.05)" stroke-width="1"/><circle cx="286.76695195754615" cy="130.45299523333006" r="28.91693972157048" fill="rgba(0,0,0,0.1)" /><circle cx="284.76695195754615" cy="128.45299523333006" r="28.91693972157048" fill="url(#grad_7)" stroke="rgba(0,0,0,0.05)" stroke-width="1"/><circle cx="248.1964152368973" cy="129.44371612051685" r="22.267501201027986" fill="rgba(0,0,0,0.1)" /><circle cx="246.1964152368973" cy="127.44371612051685" r="22.267501201027986" fill="url(#grad_9)" stroke="rgba(0,0,0,0.05)" stroke-width="1"/><circle cx="187.66257543100454" cy="128.72675108078937" r="22.44611985537714" fill="rgba(0,0,0,0.1)" /><circle cx="185.66257543100454" cy="126.72675108078937" r="22.44611985537714" fill="url(#grad_1)" stroke="rgba(0,0,0,0.05)" stroke-width="1"/><circle cx="357.37755377184874" cy="141.21028800515967" r="27.115305055674856" fill="rgba(0,0,0,0.1)" /><circle cx="355.37755377184874" cy="139.21028800515967" r="27.115305055674856" fill="url(#grad_5)" stroke="rgba(0,0,0,0.05)" stroke-width="1"/><circle cx="78.60893369662146" cy="138.15018332507955" r="17.340739903701184" fill="rgba(0,0,0,0.1)" /><circle cx="76.60893369662146" cy="136.15018332507955" r="17.340739903701184" fill="url(#grad_6)" stroke="rgba(0,0,0,0.05)" stroke-width="1"/><circle cx="371.49836530707876" cy="145.16313725959662" r="23.451363601169646" fill="rgba(0,0,0,0.1)" /><circle cx="369.49836530707876" cy="143.16313725959662" r="23.451363601169646" fill="url(#grad_2)" stroke="rgba(0,0,0,0.05)" stroke-width="1"/><circle cx="368.9300654935364" cy="138.38787813653087" r="27.027118948783155" fill="rgba(0,0,0,0.1)" /><circle cx="366.9300654935364" cy="136.38787813653087" r="27.027118948783155" fill="url(#grad_7)" stroke="rgba(0,0,0,0.05)" stroke-width="1"/><circle cx="52.310963061067355" cy="141.38453945923047" r="32.83882229205874" fill="rgba(0,0,0,0.1)" /><circle cx="50.310963061067355" cy="139.38453945923047" r="32.83882229205874" fill="url(#grad_5)" stroke="rgba(0,0,0,0.05)" stroke-width="1"/><circle cx="297.6512168404745" cy="147.87451722773065" r="24.163462107493935" fill="rgba(0,0,0,0.1)" /><circle cx="295.6512168404745" cy="145.87451722773065" r="24.163462107493935" fill="url(#grad_2)" stroke="rgba(0,0,0,0.05)" stroke-width="1"/><circle cx="306.9512016842455" cy="147.51275308079684" r="16.821526435584243" fill="rgba(0,0,0,0.1)" /><circle cx="304.9512016842455" cy="145.51275308079684" r="16.821526435584243" fill="url(#grad_0)" stroke="rgba(0,0,0,0.05)" stroke-width="1"/><circle cx="155.18663294533076" cy="144.8874568597801" r="21.32523755212304" fill="rgba(0,0,0,0.1)" /><circle cx="153.18663294533076" cy="142.8874568597801" r="21.32523755212304" fill="url(#grad_1)" stroke="rgba(0,0,0,0.05)" stroke-width="1"/><circle cx="183.7557079643187" cy="147.44259000164178" r="24.900526201754108" fill="rgba(0,0,0,0.1)" /><circle cx="181.7557079643187" cy="145.44259000164178" r="24.900526201754108" fill="url(#grad_9)" stroke="rgba(0,0,0,0.05)" stroke-width="1"/><circle cx="112.38205126092326" cy="144.20951866349392" r="33.645828233356085" fill="rgba(0,0,0,0.1)" /><circle cx="110.38205126092326" cy="142.20951866349392" r="33.645828233356085" fill="url(#grad_9)" stroke="rgba(0,0,0,0.05)" stroke-width="1"/><circle cx="347.40734404330885" cy="149.81177471511282" r="15.04571523717227" fill="rgba(0,0,0,0.1)" /><circle cx="345.40734404330885" cy="147.81177471511282" r="15.04571523717227" fill="url(#grad_4)" stroke="rgba(0,0,0,0.05)" stroke-width="1"/><circle cx="341.6552468392834" cy="146.5894001433621" r="16.085869773184452" fill="rgba(0,0,0,0.1)" /><circle cx="339.6552468392834" cy="144.5894001433621" r="16.085869773184452" fill="url(#grad_4)" stroke="rgba(0,0,0,0.05)" stroke-width="1"/><circle cx="349.5591207819418" cy="153.0193978775918" r="26.7507393158371" fill="rgba(0,0,0,0.1)" /><circle cx="347.5591207819418" cy="151.0193978775918" r="26.7507393158371" fill="url(#grad_2)" stroke="rgba(0,0,0,0.05)" stroke-width="1"/><circle cx="73.28244547139666" cy="147.64270853455326" r="33.22060749573155" fill="rgba(0,0,0,0.1)" /><circle cx="71.28244547139666" cy="145.64270853455326" r="33.22060749573155" fill="url(#grad_8)" stroke="rgba(0,0,0,0.05)" stroke-width="1"/><circle cx="115.61725262690466" cy="149.40654487342465" r="25.343289004774352" fill="rgba(0,0,0,0.1)" /><circle cx="113.61725262690466" cy="147.40654487342465" r="25.343289004774352" fill="url(#grad_2)" stroke="rgba(0,0,0,0.05)" stroke-width="1"/><circle cx="209.65571672059673" cy="153.62778707864433" r="29.033203567202364" fill="rgba(0,0,0,0.1)" /><circle cx="207.65571672059673" cy="151.62778707864433" r="29.033203567202364" fill="url(#grad_9)" stroke="rgba(0,0,0,0.05)" stroke-width="1"/><circle cx="182.35633114101665" cy="154.3121911519648" r="22.309269276715707" fill="rgba(0,0,0,0.1)" /><circle cx="180.35633114101665" cy="152.3121911519648" r="22.309269276715707" fill="url(#grad_7)" stroke="rgba(0,0,0,0.05)" stroke-width="1"/><circle cx="109.17078565736145" cy="155.1757651958606" r="34.33603789445927" fill="rgba(0,0,0,0.1)" /><circle cx="107.17078565736145" cy="153.1757651958606" r="34.33603789445927" fill="url(#grad_8)" stroke="rgba(0,0,0,0.05)" stroke-width="1"/><circle cx="187.90364561479322" cy="152.35088977766534" r="25.10432144812521" fill="rgba(0,0,0,0.1)" /><circle cx="185.90364561479322" cy="150.35088977766534" r="25.10432144812521" fill="url(#grad_7)" stroke="rgba(0,0,0,0.05)" stroke-width="1"/><circle cx="189.88519710605917" cy="151.0091397670503" r="15.7322139787885" fill="rgba(0,0,0,0.1)" /><circle cx="187.88519710605917" cy="149.0091397670503" r="15.7322139787885" fill="url(#grad_8)" stroke="rgba(0,0,0,0.05)" stroke-width="1"/><circle cx="90.55509317865013" cy="157.74493970379382" r="15.090372907985074" fill="rgba(0,0,0,0.1)" /><circle cx="88.55509317865013" cy="155.74493970379382" r="15.090372907985074" fill="url(#grad_8)" stroke="rgba(0,0,0,0.05)" stroke-width="1"/><circle cx="252.004155490545" cy="153.8991131717646" r="25.07090497491026" fill="rgba(0,0,0,0.1)" /><circle cx="250.004155490545" cy="151.8991131717646" r="25.07090497491026" fill="url(#grad_9)" stroke="rgba(0,0,0,0.05)" stroke-width="1"/><circle cx="225.17472856029772" cy="156.86766248521292" r="32.90153923344994" fill="rgba(0,0,0,0.1)" /><circle cx="223.17472856029772" cy="154.86766248521292" r="32.90153923344994" fill="url(#grad_7)" stroke="rgba(0,0,0,0.05)" stroke-width="1"/><circle cx="153.68246623270142" cy="162.56136824586795" r="31.42009005596886" fill="rgba(0,0,0,0.1)" /><circle cx="151.68246623270142" cy="160.56136824586795" r="31.42009005596886" fill="url(#grad_0)" stroke="rgba(0,0,0,0.05)" stroke-width="1"/><circle cx="315.33155980352404" cy="156.14302449563758" r="34.21513252265935" fill="rgba(0,0,0,0.1)" /><circle cx="313.33155980352404" cy="154.14302449563758" r="34.21513252265935" fill="url(#grad_3)" stroke="rgba(0,0,0,0.05)" stroke-width="1"/><circle cx="249.9409276527421" cy="156.33151866685967" r="15.882573363333169" fill="rgba(0,0,0,0.1)" /><circle cx="247.9409276527421" cy="154.33151866685967" r="15.882573363333169" fill="url(#grad_4)" stroke="rgba(0,0,0,0.05)" stroke-width="1"/><circle cx="241.02413020841118" cy="155.79437300537947" r="18.481160321444232" fill="rgba(0,0,0,0.1)" /><circle cx="239.02413020841118" cy="153.79437300537947" r="18.481160321444232" fill="url(#grad_0)" stroke="rgba(0,0,0,0.05)" stroke-width="1"/><circle cx="292.0711296961189" cy="158.40684739661162" r="29.882526979688546" fill="rgba(0,0,0,0.1)" /><circle cx="290.0711296961189" cy="156.40684739661162" r="29.882526979688546" fill="url(#grad_7)" stroke="rgba(0,0,0,0.05)" stroke-width="1"/><circle cx="209.67946511132703" cy="155.28690573942978" r="24.126499861573365" fill="rgba(0,0,0,0.1)" /><circle cx="207.67946511132703" cy="153.28690573942978" r="24.126499861573365" fill="url(#grad_9)" stroke="rgba(0,0,0,0.05)" stroke-width="1"/><circle cx="275.68836958776836" cy="165.7720190082731" r="32.593173888414626" fill="rgba(0,0,0,0.1)" /><circle cx="273.68836958776836" cy="163.7720190082731" r="32.593173888414626" fill="url(#grad_1)" stroke="rgba(0,0,0,0.05)" stroke-width="1"/><circle cx="87.33814571051934" cy="161.27614930482096" r="20.301140745293587" fill="rgba(0,0,0,0.1)" /><circle cx="85.33814571051934" cy="159.27614930482096" r="20.301140745293587" fill="url(#grad_2)" stroke="rgba(0,0,0,0.05)" stroke-width="1"/><circle cx="89.74941917984594" cy="161.8730961969823" r="23.362298704833034" fill="rgba(0,0,0,0.1)" /><circle cx="87.74941917984594" cy="159.8730961969823" r="23.362298704833034" fill="url(#grad_0)" stroke="rgba(0,0,0,0.05)" stroke-width="1"/><circle cx="208.79090056255052" cy="165.06717192712335" r="15.016643249674637" fill="rgba(0,0,0,0.1)" /><circle cx="206.79090056255052" cy="163.06717192712335" r="15.016643249674637" fill="url(#grad_3)" stroke="rgba(0,0,0,0.05)" stroke-width="1"/><circle cx="286.1649089127996" cy="158.77498874668777" r="34.638236686358326" fill="rgba(0,0,0,0.1)" /><circle cx="284.1649089127996" cy="156.77498874668777" r="34.638236686358326" fill="url(#grad_0)" stroke="rgba(0,0,0,0.05)" stroke-width="1"/><circle cx="333.0809790361891" cy="162.24422532453224" r="19.400632084048684" fill="rgba(0,0,0,0.1)" /><circle cx="331.0809790361891" cy="160.24422532453224" r="19.400632084048684" fill="url(#grad_0)" stroke="rgba(0,0,0,0.05)" stroke-width="1"/><circle cx="155.91340697667192" cy="161.86750340715415" r="15.758775982957584" fill="rgba(0,0,0,0.1)" /><circle cx="153.91340697667192" cy="159.86750340715415" r="15.758775982957584" fill="url(#grad_2)" stroke="rgba(0,0,0,0.05)" stroke-width="1"/><circle cx="379.644166892854" cy="160.93678445715906" r="16.118826262212803" fill="rgba(0,0,0,0.1)" /><circle cx="377.644166892854" cy="158.93678445715906" r="16.118826262212803" fill="url(#grad_3)" stroke="rgba(0,0,0,0.05)" stroke-width="1"/><circle cx="246.2073632231078" cy="165.39244405666176" r="17.510742776139338" fill="rgba(0,0,0,0.1)" /><circle cx="244.2073632231078" cy="163.39244405666176" r="17.510742776139338" fill="url(#grad_5)" stroke="rgba(0,0,0,0.05)" stroke-width="1"/><circle cx="306.6963284636229" cy="164.15555682140408" r="27.222752347115687" fill="rgba(0,0,0,0.1)" /><circle cx="304.6963284636229" cy="162.15555682140408" r="27.222752347115687" fill="url(#grad_4)" stroke="rgba(0,0,0,0.05)" stroke-width="1"/><circle cx="334.00145001136076" cy="166.51456604367962" r="28.808410830562195" fill="rgba(0,0,0,0.1)" /><circle cx="332.00145001136076" cy="164.51456604367962" r="28.808410830562195" fill="url(#grad_0)" stroke="rgba(0,0,0,0.05)" stroke-width="1"/><circle cx="115.26893875895439" cy="165.67238585879574" r="32.87393504719766" fill="rgba(0,0,0,0.1)" /><circle cx="113.26893875895439" cy="163.67238585879574" r="32.87393504719766" fill="url(#grad_8)" stroke="rgba(0,0,0,0.05)" stroke-width="1"/><circle cx="228.16799270644074" cy="171.7523461305217" r="19.400985733771062" fill="rgba(0,0,0,0.1)" /><circle cx="226.16799270644074" cy="169.7523461305217" r="19.400985733771062" fill="url(#grad_1)" stroke="rgba(0,0,0,0.05)" stroke-width="1"/><circle cx="97.75757294961277" cy="172.50244297899823" r="27.951655876198203" fill="rgba(0,0,0,0.1)" /><circle cx="95.75757294961277" cy="170.50244297899823" r="27.951655876198203" fill="url(#grad_6)" stroke="rgba(0,0,0,0.05)" stroke-width="1"/><circle cx="203.45140993436775" cy="171.88023337161775" r="30.78775985592751" fill="rgba(0,0,0,0.1)" /><circle cx="201.45140993436775" cy="169.88023337161775" r="30.78775985592751" fill="url(#grad_3)" stroke="rgba(0,0,0,0.05)" stroke-width="1"/><circle cx="234.21138920487937" cy="167.50481621620935" r="34.38728428806317" fill="rgba(0,0,0,0.1)" /><circle cx="232.21138920487937" cy="165.50481621620935" r="34.38728428806317" fill="url(#grad_3)" stroke="rgba(0,0,0,0.05)" stroke-width="1"/><circle cx="165.22905233029087" cy="166.361550214021" r="26.65333287616027" fill="rgba(0,0,0,0.1)" /><circle cx="163.22905233029087" cy="164.361550214021" r="26.65333287616027" fill="url(#grad_4)" stroke="rgba(0,0,0,0.05)" stroke-width="1"/><circle cx="303.5757183364065" cy="175.40886458218966" r="31.55814735147526" fill="rgba(0,0,0,0.1)" /><circle cx="301.5757183364065" cy="173.40886458218966" r="31.55814735147526" fill="url(#grad_3)" stroke="rgba(0,0,0,0.05)" stroke-width="1"/><circle cx="96.41248163938693" cy="170.42350271987775" r="16.151362896221364" fill="rgba(0,0,0,0.1)" /><circle cx="94.41248163938693" cy="168.42350271987775" r="16.151362896221364" fill="url(#grad_7)" stroke="rgba(0,0,0,0.05)" stroke-width="1"/><circle cx="39.59166104911255" cy="174.73151190796597" r="24.675177742446905" fill="rgba(0,0,0,0.1)" /><circle cx="37.59166104911255" cy="172.73151190796597" r="24.675177742446905" fill="url(#grad_5)" stroke="rgba(0,0,0,0.05)" stroke-width="1"/><circle cx="178.00461938835363" cy="169.81769102621809" r="21.87837672308239" fill="rgba(0,0,0,0.1)" /><circle cx="176.00461938835363" cy="167.81769102621809" r="21.87837672308239" fill="url(#grad_0)" stroke="rgba(0,0,0,0.05)" stroke-width="1"/><circle cx="293.5721469373933" cy="172.6060182802189" r="30.137552084793356" fill="rgba(0,0,0,0.1)" /><circle cx="291.5721469373933" cy="170.6060182802189" r="30.137552084793356" fill="url(#grad_4)" stroke="rgba(0,0,0,0.05)" stroke-width="1"/><circle cx="229.3543329572605" cy="174.16984576178362" r="31.62631063264541" fill="rgba(0,0,0,0.1)" /><circle cx="227.3543329572605" cy="172.16984576178362" r="31.62631063264541" fill="url(#grad_7)" stroke="rgba(0,0,0,0.05)" stroke-width="1"/><circle cx="344.4734961477431" cy="172.27847314516134" r="19.08871444815693" fill="rgba(0,0,0,0.1)" /><circle cx="342.4734961477431" cy="170.27847314516134" r="19.08871444815693" fill="url(#grad_1)" stroke="rgba(0,0,0,0.05)" stroke-width="1"/><circle cx="147.86974660886233" cy="177.32668826723534" r="22.16461931919916" fill="rgba(0,0,0,0.1)" /><circle cx="145.86974660886233" cy="175.32668826723534" r="22.16461931919916" fill="url(#grad_9)" stroke="rgba(0,0,0,0.05)" stroke-width="1"/><circle cx="227.88147694324215" cy="177.86568943827206" r="32.477829580388224" fill="rgba(0,0,0,0.1)" /><circle cx="225.88147694324215" cy="175.86568943827206" r="32.477829580388224" fill="url(#grad_9)" stroke="rgba(0,0,0,0.05)" stroke-width="1"/><circle cx="133.1851905217083" cy="179.39144334500952" r="29.8356130482763" fill="rgba(0,0,0,0.1)" /><circle cx="131.1851905217083" cy="177.39144334500952" r="29.8356130482763" fill="url(#grad_3)" stroke="rgba(0,0,0,0.05)" stroke-width="1"/><circle cx="314.7134860951918" cy="174.4415569332992" r="34.34675416186607" fill="rgba(0,0,0,0.1)" /><circle cx="312.7134860951918" cy="172.4415569332992" r="34.34675416186607" fill="url(#grad_3)" stroke="rgba(0,0,0,0.05)" stroke-width="1"/><circle cx="184.21592968117196" cy="178.06609690490447" r="16.2686210522424" fill="rgba(0,0,0,0.1)" /><circle cx="182.21592968117196" cy="176.06609690490447" r="16.2686210522424" fill="url(#grad_2)" stroke="rgba(0,0,0,0.05)" stroke-width="1"/><circle cx="225.73914589732817" cy="176.08118152117902" r="15.501716999364945" fill="rgba(0,0,0,0.1)" /><circle cx="223.73914589732817" cy="174.08118152117902" r="15.501716999364945" fill="url(#grad_1)" stroke="rgba(0,0,0,0.05)" stroke-width="1"/><circle cx="200.77185716269773" cy="180.65484326267213" r="34.38858748020735" fill="rgba(0,0,0,0.1)" /><circle cx="198.77185716269773" cy="178.65484326267213" r="34.38858748020735" fill="url(#grad_7)" stroke="rgba(0,0,0,0.05)" stroke-width="1"/><circle cx="90.89669285244796" cy="179.97766521321546" r="17.336990007276142" fill="rgba(0,0,0,0.1)" /><circle cx="88.89669285244796" cy="177.97766521321546" r="17.336990007276142" fill="url(#grad_3)" stroke="rgba(0,0,0,0.05)" stroke-width="1"/><circle cx="92.38784164772838" cy="181.91081814753514" r="15.13074727371401" fill="rgba(0,0,0,0.1)" /><circle cx="90.38784164772838" cy="179.91081814753514" r="15.13074727371401" fill="url(#grad_9)" stroke="rgba(0,0,0,0.05)" stroke-width="1"/><circle cx="308.0699421001099" cy="186.63778734992542" r="20.298433901383184" fill="rgba(0,0,0,0.1)" /><circle cx="306.0699421001099" cy="184.63778734992542" r="20.298433901383184" fill="url(#grad_5)" stroke="rgba(0,0,0,0.05)" stroke-width="1"/><circle cx="136.42513369664516" cy="186.56751452176212" r="32.9844813749629" fill="rgba(0,0,0,0.1)" /><circle cx="134.42513369664516" cy="184.56751452176212" r="32.9844813749629" fill="url(#grad_8)" stroke="rgba(0,0,0,0.05)" stroke-width="1"/><circle cx="101.83351272206372" cy="184.11148076203548" r="17.03293403865984" fill="rgba(0,0,0,0.1)" /><circle cx="99.83351272206372" cy="182.11148076203548" r="17.03293403865984" fill="url(#grad_7)" stroke="rgba(0,0,0,0.05)" stroke-width="1"/><circle cx="150.03655566236924" cy="182.53727859979224" r="21.945939780704926" fill="rgba(0,0,0,0.1)" /><circle cx="148.03655566236924" cy="180.53727859979224" r="21.945939780704926" fill="url(#grad_9)" stroke="rgba(0,0,0,0.05)" stroke-width="1"/><circle cx="267.84556922696817" cy="181.0518083641214" r="34.57246640903941" fill="rgba(0,0,0,0.1)" /><circle cx="265.84556922696817" cy="179.0518083641214" r="34.57246640903941" fill="url(#grad_9)" stroke="rgba(0,0,0,0.05)" stroke-width="1"/><circle cx="255.85067871596482" cy="185.54541045163398" r="23.96343003929483" fill="rgba(0,0,0,0.1)" /><circle cx="253.85067871596482" cy="183.54541045163398" r="23.96343003929483" fill="url(#grad_7)" stroke="rgba(0,0,0,0.05)" stroke-width="1"/><circle cx="134.37838501109707" cy="187.1142713065539" r="15.921771292591975" fill="rgba(0,0,0,0.1)" /><circle cx="132.37838501109707" cy="185.1142713065539" r="15.921771292591975" fill="url(#grad_0)" stroke="rgba(0,0,0,0.05)" stroke-width="1"/><circle cx="173.64990788669888" cy="188.59179196697568" r="31.107103465540273" fill="rgba(0,0,0,0.1)" /><circle cx="171.64990788669888" cy="186.59179196697568" r="31.107103465540273" fill="url(#grad_4)" stroke="rgba(0,0,0,0.05)" stroke-width="1"/><circle cx="134.9993370696581" cy="191.50004080873077" r="21.562053744860638" fill="rgba(0,0,0,0.1)" /><circle cx="132.9993370696581" cy="189.50004080873077" r="21.562053744860638" fill="url(#grad_3)" stroke="rgba(0,0,0,0.05)" stroke-width="1"/><circle cx="81.94857777270408" cy="189.01709755910724" r="19.634983318040153" fill="rgba(0,0,0,0.1)" /><circle cx="79.94857777270408" cy="187.01709755910724" r="19.634983318040153" fill="url(#grad_3)" stroke="rgba(0,0,0,0.05)" stroke-width="1"/><circle cx="264.06583776819866" cy="190.73151180173366" r="34.11465554571899" fill="rgba(0,0,0,0.1)" /><circle cx="262.06583776819866" cy="188.73151180173366" r="34.11465554571899" fill="url(#grad_0)" stroke="rgba(0,0,0,0.05)" stroke-width="1"/><circle cx="283.5707672806464" cy="187.39060533216272" r="28.09878916602783" fill="rgba(0,0,0,0.1)" /><circle cx="281.5707672806464" cy="185.39060533216272" r="28.09878916602783" fill="url(#grad_3)" stroke="rgba(0,0,0,0.05)" stroke-width="1"/><circle cx="98.4369508153075" cy="186.6592310900752" r="21.433844030712567" fill="rgba(0,0,0,0.1)" /><circle cx="96.4369508153075" cy="184.6592310900752" r="21.433844030712567" fill="url(#grad_7)" stroke="rgba(0,0,0,0.05)" stroke-width="1"/><circle cx="109.91610848982862" cy="187.98085812834393" r="27.196018301603786" fill="rgba(0,0,0,0.1)" /><circle cx="107.91610848982862" cy="185.98085812834393" r="27.196018301603786" fill="url(#grad_3)" stroke="rgba(0,0,0,0.05)" stroke-width="1"/><circle cx="276.5784817270277" cy="197.15941288166357" r="28.103003182799085" fill="rgba(0,0,0,0.1)" /><circle cx="274.5784817270277" cy="195.15941288166357" r="28.103003182799085" fill="url(#grad_4)" stroke="rgba(0,0,0,0.05)" stroke-width="1"/><circle cx="84.85359273877705" cy="194.76889143148315" r="26.69705471532707" fill="rgba(0,0,0,0.1)" /><circle cx="82.85359273877705" cy="192.76889143148315" r="26.69705471532707" fill="url(#grad_9)" stroke="rgba(0,0,0,0.05)" stroke-width="1"/><circle cx="319.02041822028826" cy="193.80706482388496" r="28.168935341373153" fill="rgba(0,0,0,0.1)" /><circle cx="317.02041822028826" cy="191.80706482388496" r="28.168935341373153" fill="url(#grad_2)" stroke="rgba(0,0,0,0.05)" stroke-width="1"/><circle cx="67.1125502926746" cy="194.21684357079874" r="32.22848923151587" fill="rgba(0,0,0,0.1)" /><circle cx="65.1125502926746" cy="192.21684357079874" r="32.22848923151587" fill="url(#grad_3)" stroke="rgba(0,0,0,0.05)" stroke-width="1"/><circle cx="113.6396271269964" cy="196.4342206762578" r="21.427124121681235" fill="rgba(0,0,0,0.1)" /><circle cx="111.6396271269964" cy="194.4342206762578" r="21.427124121681235" fill="url(#grad_8)" stroke="rgba(0,0,0,0.05)" stroke-width="1"/><circle cx="363.2269022903461" cy="194.41981898261213" r="29.921859173928702" fill="rgba(0,0,0,0.1)" /><circle cx="361.2269022903461" cy="192.41981898261213" r="29.921859173928702" fill="url(#grad_7)" stroke="rgba(0,0,0,0.05)" stroke-width="1"/><circle cx="67.23401893962304" cy="198.435379446686" r="23.297544621310443" fill="rgba(0,0,0,0.1)" /><circle cx="65.23401893962304" cy="196.435379446686" r="23.297544621310443" fill="url(#grad_0)" stroke="rgba(0,0,0,0.05)" stroke-width="1"/><circle cx="312.4541385015813" cy="199.97308881286926" r="16.388187854397902" fill="rgba(0,0,0,0.1)" /><circle cx="310.4541385015813" cy="197.97308881286926" r="16.388187854397902" fill="url(#grad_4)" stroke="rgba(0,0,0,0.05)" stroke-width="1"/><circle cx="60.34446140806732" cy="199.6154307443765" r="33.5778364676881" fill="rgba(0,0,0,0.1)" /><circle cx="58.34446140806732" cy="197.6154307443765" r="33.5778364676881" fill="url(#grad_4)" stroke="rgba(0,0,0,0.05)" stroke-width="1"/><circle cx="233.1475011943779" cy="207.20376686777834" r="34.71778417212337" fill="rgba(0,0,0,0.1)" /><circle cx="231.1475011943779" cy="205.20376686777834" r="34.71778417212337" fill="url(#grad_2)" stroke="rgba(0,0,0,0.05)" stroke-width="1"/><circle cx="150.57062815269933" cy="204.83231734809453" r="24.05286876728068" fill="rgba(0,0,0,0.1)" /><circle cx="148.57062815269933" cy="202.83231734809453" r="24.05286876728068" fill="url(#grad_3)" stroke="rgba(0,0,0,0.05)" stroke-width="1"/><circle cx="46.61339631675689" cy="204.03546372500904" r="19.377409781682204" fill="rgba(0,0,0,0.1)" /><circle cx="44.61339631675689" cy="202.03546372500904" r="19.377409781682204" fill="url(#grad_6)" stroke="rgba(0,0,0,0.05)" stroke-width="1"/><circle cx="63.97638402530584" cy="202.64831236076245" r="27.6776051371821" fill="rgba(0,0,0,0.1)" /><circle cx="61.97638402530584" cy="200.64831236076245" r="27.6776051371821" fill="url(#grad_9)" stroke="rgba(0,0,0,0.05)" stroke-width="1"/><circle cx="87.23070669179731" cy="202.87888038987901" r="25.512116292830733" fill="rgba(0,0,0,0.1)" /><circle cx="85.23070669179731" cy="200.87888038987901" r="25.512116292830733" fill="url(#grad_2)" stroke="rgba(0,0,0,0.05)" stroke-width="1"/><circle cx="165.84045874158002" cy="214.63258331099817" r="26.902212346455638" fill="rgba(0,0,0,0.1)" /><circle cx="163.84045874158002" cy="212.63258331099817" r="26.902212346455638" fill="url(#grad_9)" stroke="rgba(0,0,0,0.05)" stroke-width="1"/><circle cx="116.53408984318747" cy="210.82026199447824" r="22.943961190793374" fill="rgba(0,0,0,0.1)" /><circle cx="114.53408984318747" cy="208.82026199447824" r="22.943961190793374" fill="url(#grad_9)" stroke="rgba(0,0,0,0.05)" stroke-width="1"/><circle cx="164.95234037793008" cy="212.8523582564346" r="34.60296390598728" fill="rgba(0,0,0,0.1)" /><circle cx="162.95234037793008" cy="210.8523582564346" r="34.60296390598728" fill="url(#grad_2)" stroke="rgba(0,0,0,0.05)" stroke-width="1"/><circle cx="160.01792351625255" cy="209.6813648666729" r="32.111945345957906" fill="rgba(0,0,0,0.1)" /><circle cx="158.01792351625255" cy="207.6813648666729" r="32.111945345957906" fill="url(#grad_2)" stroke="rgba(0,0,0,0.05)" stroke-width="1"/><circle cx="105.76276568754473" cy="210.8991444108305" r="25.719217143147873" fill="rgba(0,0,0,0.1)" /><circle cx="103.76276568754473" cy="208.8991444108305" r="25.719217143147873" fill="url(#grad_4)" stroke="rgba(0,0,0,0.05)" stroke-width="1"/><circle cx="43.35954312631567" cy="211.84281049460935" r="27.00471670455098" fill="rgba(0,0,0,0.1)" /><circle cx="41.35954312631567" cy="209.84281049460935" r="27.00471670455098" fill="url(#grad_9)" stroke="rgba(0,0,0,0.05)" stroke-width="1"/><circle cx="315.27318388767577" cy="211.98482694632057" r="26.057311837720583" fill="rgba(0,0,0,0.1)" /><circle cx="313.27318388767577" cy="209.98482694632057" r="26.057311837720583" fill="url(#grad_4)" stroke="rgba(0,0,0,0.05)" stroke-width="1"/><circle cx="70.27258671291695" cy="214.32152220552683" r="30.438755799870457" fill="rgba(0,0,0,0.1)" /><circle cx="68.27258671291695" cy="212.32152220552683" r="30.438755799870457" fill="url(#grad_7)" stroke="rgba(0,0,0,0.05)" stroke-width="1"/><circle cx="187.2252332745048" cy="220.1678313948389" r="15.12480627473462" fill="rgba(0,0,0,0.1)" /><circle cx="185.2252332745048" cy="218.1678313948389" r="15.12480627473462" fill="url(#grad_5)" stroke="rgba(0,0,0,0.05)" stroke-width="1"/><circle cx="309.23292152374063" cy="219.14615506975917" r="34.381263564446755" fill="rgba(0,0,0,0.1)" /><circle cx="307.23292152374063" cy="217.14615506975917" r="34.381263564446755" fill="url(#grad_9)" stroke="rgba(0,0,0,0.05)" stroke-width="1"/><circle cx="235.75210663829384" cy="221.90566557529417" r="29.473899229029747" fill="rgba(0,0,0,0.1)" /><circle cx="233.75210663829384" cy="219.90566557529417" r="29.473899229029747" fill="url(#grad_3)" stroke="rgba(0,0,0,0.05)" stroke-width="1"/><circle cx="263.6818583524355" cy="216.87297055974298" r="31.886977159716796" fill="rgba(0,0,0,0.1)" /><circle cx="261.6818583524355" cy="214.87297055974298" r="31.886977159716796" fill="url(#grad_2)" stroke="rgba(0,0,0,0.05)" stroke-width="1"/><circle cx="56.47946832991663" cy="224.5855723145533" r="18.19201796119866" fill="rgba(0,0,0,0.1)" /><circle cx="54.47946832991663" cy="222.5855723145533" r="18.19201796119866" fill="url(#grad_0)" stroke="rgba(0,0,0,0.05)" stroke-width="1"/><circle cx="367.25404302043887" cy="223.65121221433245" r="28.4883041115386" fill="rgba(0,0,0,0.1)" /><circle cx="365.25404302043887" cy="221.65121221433245" r="28.4883041115386" fill="url(#grad_9)" stroke="rgba(0,0,0,0.05)" stroke-width="1"/><circle cx="371.4273404574922" cy="224.33201555273524" r="20.218713379652726" fill="rgba(0,0,0,0.1)" /><circle cx="369.4273404574922" cy="222.33201555273524" r="20.218713379652726" fill="url(#grad_5)" stroke="rgba(0,0,0,0.05)" stroke-width="1"/><circle cx="157.85085157913267" cy="221.66477762073632" r="19.36136969345632" fill="rgba(0,0,0,0.1)" /><circle cx="155.85085157913267" cy="219.66477762073632" r="19.36136969345632" fill="url(#grad_0)" stroke="rgba(0,0,0,0.05)" stroke-width="1"/><circle cx="195.81823258731907" cy="226.65204406717783" r="29.464644398150362" fill="rgba(0,0,0,0.1)" /><circle cx="193.81823258731907" cy="224.65204406717783" r="29.464644398150362" fill="url(#grad_5)" stroke="rgba(0,0,0,0.05)" stroke-width="1"/><circle cx="186.7649479082379" cy="223.96997141187754" r="25.158619339985677" fill="rgba(0,0,0,0.1)" /><circle cx="184.7649479082379" cy="221.96997141187754" r="25.158619339985677" fill="url(#grad_3)" stroke="rgba(0,0,0,0.05)" stroke-width="1"/><circle cx="130.1596295547764" cy="225.05923643548067" r="26.899550363195445" fill="rgba(0,0,0,0.1)" /><circle cx="128.1596295547764" cy="223.05923643548067" r="26.899550363195445" fill="url(#grad_5)" stroke="rgba(0,0,0,0.05)" stroke-width="1"/><circle cx="73.45757308563208" cy="222.89530343227239" r="28.888616393099127" fill="rgba(0,0,0,0.1)" /><circle cx="71.45757308563208" cy="220.89530343227239" r="28.888616393099127" fill="url(#grad_3)" stroke="rgba(0,0,0,0.05)" stroke-width="1"/><circle cx="94.1712795988949" cy="231.29947782494585" r="33.961617332585945" fill="rgba(0,0,0,0.1)" /><circle cx="92.1712795988949" cy="229.29947782494585" r="33.961617332585945" fill="url(#grad_7)" stroke="rgba(0,0,0,0.05)" stroke-width="1"/><circle cx="343.3304162779164" cy="231.36689247172234" r="25.149375089747902" fill="rgba(0,0,0,0.1)" /><circle cx="341.3304162779164" cy="229.36689247172234" r="25.149375089747902" fill="url(#grad_7)" stroke="rgba(0,0,0,0.05)" stroke-width="1"/><circle cx="231.0965211484526" cy="234.11737356683935" r="34.253881001267075" fill="rgba(0,0,0,0.1)" /><circle cx="229.0965211484526" cy="232.11737356683935" r="34.253881001267075" fill="url(#grad_8)" stroke="rgba(0,0,0,0.05)" stroke-width="1"/><circle cx="352.51672125992417" cy="234.50608329771893" r="31.109940625169404" fill="rgba(0,0,0,0.1)" /><circle cx="350.51672125992417" cy="232.50608329771893" r="31.109940625169404" fill="url(#grad_8)" stroke="rgba(0,0,0,0.05)" stroke-width="1"/><circle cx="157.42921840517843" cy="228.5880448918645" r="20.45953216086236" fill="rgba(0,0,0,0.1)" /><circle cx="155.42921840517843" cy="226.5880448918645" r="20.45953216086236" fill="url(#grad_7)" stroke="rgba(0,0,0,0.05)" stroke-width="1"/><circle cx="106.29764967421269" cy="235.46852750022632" r="21.34634717143704" fill="rgba(0,0,0,0.1)" /><circle cx="104.29764967421269" cy="233.46852750022632" r="21.34634717143704" fill="url(#grad_0)" stroke="rgba(0,0,0,0.05)" stroke-width="1"/><circle cx="287.32694424022833" cy="232.86573064920242" r="33.55858850570431" fill="rgba(0,0,0,0.1)" /><circle cx="285.32694424022833" cy="230.86573064920242" r="33.55858850570431" fill="url(#grad_9)" stroke="rgba(0,0,0,0.05)" stroke-width="1"/><circle cx="292.18308691236183" cy="235.8277169189109" r="29.852168202389528" fill="rgba(0,0,0,0.1)" /><circle cx="290.18308691236183" cy="233.8277169189109" r="29.852168202389528" fill="url(#grad_9)" stroke="rgba(0,0,0,0.05)" stroke-width="1"/><circle cx="330.5069038809527" cy="238.60581648117233" r="30.154258833281325" fill="rgba(0,0,0,0.1)" /><circle cx="328.5069038809527" cy="236.60581648117233" r="30.154258833281325" fill="url(#grad_9)" stroke="rgba(0,0,0,0.05)" stroke-width="1"/><circle cx="186.35380498628933" cy="237.94461655968348" r="17.17580629507769" fill="rgba(0,0,0,0.1)" /><circle cx="184.35380498628933" cy="235.94461655968348" r="17.17580629507769" fill="url(#grad_8)" stroke="rgba(0,0,0,0.05)" stroke-width="1"/><circle cx="325.3165179967753" cy="239.63046622756758" r="28.250442679922838" fill="rgba(0,0,0,0.1)" /><circle cx="323.3165179967753" cy="237.63046622756758" r="28.250442679922838" fill="url(#grad_9)" stroke="rgba(0,0,0,0.05)" stroke-width="1"/><circle cx="370.2103462189539" cy="240.9345420991494" r="30.326021312897" fill="rgba(0,0,0,0.1)" /><circle cx="368.2103462189539" cy="238.9345420991494" r="30.326021312897" fill="url(#grad_4)" stroke="rgba(0,0,0,0.05)" stroke-width="1"/><circle cx="38.92573039163894" cy="239.14116618500162" r="32.777683469550865" fill="rgba(0,0,0,0.1)" /><circle cx="36.92573039163894" cy="237.14116618500162" r="32.777683469550865" fill="url(#grad_1)" stroke="rgba(0,0,0,0.05)" stroke-width="1"/><circle cx="359.8438242382623" cy="236.14266262084197" r="19.978167102671264" fill="rgba(0,0,0,0.1)" /><circle cx="357.8438242382623" cy="234.14266262084197" r="19.978167102671264" fill="url(#grad_4)" stroke="rgba(0,0,0,0.05)" stroke-width="1"/><circle cx="176.17233942169426" cy="242.48756865362043" r="22.89919544038413" fill="rgba(0,0,0,0.1)" /><circle cx="174.17233942169426" cy="240.48756865362043" r="22.89919544038413" fill="url(#grad_0)" stroke="rgba(0,0,0,0.05)" stroke-width="1"/><circle cx="104.4744025618433" cy="240.53485081242508" r="23.991473935125278" fill="rgba(0,0,0,0.1)" /><circle cx="102.4744025618433" cy="238.53485081242508" r="23.991473935125278" fill="url(#grad_5)" stroke="rgba(0,0,0,0.05)" stroke-width="1"/><circle cx="324.11025402375805" cy="243.1483399593178" r="19.751561947059127" fill="rgba(0,0,0,0.1)" /><circle cx="322.11025402375805" cy="241.1483399593178" r="19.751561947059127" fill="url(#grad_6)" stroke="rgba(0,0,0,0.05)" stroke-width="1"/><circle cx="126.28305868304103" cy="243.6196850864646" r="16.657167001468775" fill="rgba(0,0,0,0.1)" /><circle cx="124.28305868304103" cy="241.6196850864646" r="16.657167001468775" fill="url(#grad_8)" stroke="rgba(0,0,0,0.05)" stroke-width="1"/><circle cx="368.3602465591436" cy="249.5295575178678" r="20.363823761418807" fill="rgba(0,0,0,0.1)" /><circle cx="366.3602465591436" cy="247.5295575178678" r="20.363823761418807" fill="url(#grad_2)" stroke="rgba(0,0,0,0.05)" stroke-width="1"/><circle cx="115.13952943391136" cy="241.4218454377496" r="19.8370044125122" fill="rgba(0,0,0,0.1)" /><circle cx="113.13952943391136" cy="239.4218454377496" r="19.8370044125122" fill="url(#grad_8)" stroke="rgba(0,0,0,0.05)" stroke-width="1"/><circle cx="267.55925179046676" cy="243.2727998687285" r="18.653722894401042" fill="rgba(0,0,0,0.1)" /><circle cx="265.55925179046676" cy="241.2727998687285" r="18.653722894401042" fill="url(#grad_5)" stroke="rgba(0,0,0,0.05)" stroke-width="1"/><circle cx="292.0621659890411" cy="247.38777804447466" r="26.409171861729135" fill="rgba(0,0,0,0.1)" /><circle cx="290.0621659890411" cy="245.38777804447466" r="26.409171861729135" fill="url(#grad_5)" stroke="rgba(0,0,0,0.05)" stroke-width="1"/><circle cx="349.33144269891693" cy="251.70084060631805" r="32.62769219560832" fill="rgba(0,0,0,0.1)" /><circle cx="347.33144269891693" cy="249.70084060631805" r="32.62769219560832" fill="url(#grad_9)" stroke="rgba(0,0,0,0.05)" stroke-width="1"/><circle cx="210.0391357527357" cy="247.40758584636086" r="19.25373921997953" fill="rgba(0,0,0,0.1)" /><circle cx="208.0391357527357" cy="245.40758584636086" r="19.25373921997953" fill="url(#grad_3)" stroke="rgba(0,0,0,0.05)" stroke-width="1"/><circle cx="188.97319549475233" cy="250.43134778203648" r="33.7636035393725" fill="rgba(0,0,0,0.1)" /><circle cx="186.97319549475233" cy="248.43134778203648" r="33.7636035393725" fill="url(#grad_5)" stroke="rgba(0,0,0,0.05)" stroke-width="1"/><circle cx="372.4514908522507" cy="246.17043054861665" r="24.717719284011775" fill="rgba(0,0,0,0.1)" /><circle cx="370.4514908522507" cy="244.17043054861665" r="24.717719284011775" fill="url(#grad_2)" stroke="rgba(0,0,0,0.05)" stroke-width="1"/><circle cx="300.8224871564363" cy="247.07731722790268" r="22.58664186698848" fill="rgba(0,0,0,0.1)" /><circle cx="298.8224871564363" cy="245.07731722790268" r="22.58664186698848" fill="url(#grad_9)" stroke="rgba(0,0,0,0.05)" stroke-width="1"/><circle cx="44.65619707753111" cy="247.62471205290058" r="29.224522910878363" fill="rgba(0,0,0,0.1)" /><circle cx="42.65619707753111" cy="245.62471205290058" r="29.224522910878363" fill="url(#grad_0)" stroke="rgba(0,0,0,0.05)" stroke-width="1"/><circle cx="255.27769248786333" cy="255.66600551439365" r="29.61367905816681" fill="rgba(0,0,0,0.1)" /><circle cx="253.27769248786333" cy="253.66600551439365" r="29.61367905816681" fill="url(#grad_4)" stroke="rgba(0,0,0,0.05)" stroke-width="1"/><circle cx="297.97668871797066" cy="253.11020348985375" r="28.473343319217733" fill="rgba(0,0,0,0.1)" /><circle cx="295.97668871797066" cy="251.11020348985375" r="28.473343319217733" fill="url(#grad_2)" stroke="rgba(0,0,0,0.05)" stroke-width="1"/><circle cx="269.5629618942531" cy="249.5292863851337" r="27.597705530488533" fill="rgba(0,0,0,0.1)" /><circle cx="267.5629618942531" cy="247.5292863851337" r="27.597705530488533" fill="url(#grad_3)" stroke="rgba(0,0,0,0.05)" stroke-width="1"/><circle cx="61.25163159007267" cy="257.1816322381106" r="21.059233640079235" fill="rgba(0,0,0,0.1)" /><circle cx="59.25163159007267" cy="255.18163223811058" r="21.059233640079235" fill="url(#grad_8)" stroke="rgba(0,0,0,0.05)" stroke-width="1"/><circle cx="217.32913358960056" cy="261.23153630471853" r="22.62963408028785" fill="rgba(0,0,0,0.1)" /><circle cx="215.32913358960056" cy="259.23153630471853" r="22.62963408028785" fill="url(#grad_5)" stroke="rgba(0,0,0,0.05)" stroke-width="1"/><circle cx="95.94399306709745" cy="261.00835387501945" r="17.523370194100533" fill="rgba(0,0,0,0.1)" /><circle cx="93.94399306709745" cy="259.00835387501945" r="17.523370194100533" fill="url(#grad_2)" stroke="rgba(0,0,0,0.05)" stroke-width="1"/><circle cx="351.50023288375354" cy="254.40271337863032" r="28.256462797620557" fill="rgba(0,0,0,0.1)" /><circle cx="349.50023288375354" cy="252.40271337863032" r="28.256462797620557" fill="url(#grad_3)" stroke="rgba(0,0,0,0.05)" stroke-width="1"/><circle cx="323.9687814761006" cy="263.36880068059565" r="25.314023533273513" fill="rgba(0,0,0,0.1)" /><circle cx="321.9687814761006" cy="261.36880068059565" r="25.314023533273513" fill="url(#grad_6)" stroke="rgba(0,0,0,0.05)" stroke-width="1"/><circle cx="42.86460708476229" cy="257.5620040538641" r="34.35562124859045" fill="rgba(0,0,0,0.1)" /><circle cx="40.86460708476229" cy="255.5620040538641" r="34.35562124859045" fill="url(#grad_4)" stroke="rgba(0,0,0,0.05)" stroke-width="1"/><circle cx="239.2654049131845" cy="262.2951169688444" r="32.7531230292865" fill="rgba(0,0,0,0.1)" /><circle cx="237.2654049131845" cy="260.2951169688444" r="32.7531230292865" fill="url(#grad_9)" stroke="rgba(0,0,0,0.05)" stroke-width="1"/><circle cx="213.26637496939867" cy="260.98193580863995" r="25.77943888520734" fill="rgba(0,0,0,0.1)" /><circle cx="211.26637496939867" cy="258.98193580863995" r="25.77943888520734" fill="url(#grad_3)" stroke="rgba(0,0,0,0.05)" stroke-width="1"/><circle cx="361.45351454587865" cy="262.4218883086098" r="33.64212946909521" fill="rgba(0,0,0,0.1)" /><circle cx="359.45351454587865" cy="260.4218883086098" r="33.64212946909521" fill="url(#grad_0)" stroke="rgba(0,0,0,0.05)" stroke-width="1"/><circle cx="58.90563971513971" cy="264.848640192914" r="21.878032275348122" fill="rgba(0,0,0,0.1)" /><circle cx="56.90563971513971" cy="262.848640192914" r="21.878032275348122" fill="url(#grad_2)" stroke="rgba(0,0,0,0.05)" stroke-width="1"/><circle cx="28.187824466166425" cy="268.69549970922463" r="16.99961130684943" fill="rgba(0,0,0,0.1)" /><circle cx="26.187824466166425" cy="266.69549970922463" r="16.99961130684943" fill="url(#grad_3)" stroke="rgba(0,0,0,0.05)" stroke-width="1"/><circle cx="344.56101530383467" cy="270.38396381225726" r="23.77700988125463" fill="rgba(0,0,0,0.1)" /><circle cx="342.56101530383467" cy="268.38396381225726" r="23.77700988125463" fill="url(#grad_6)" stroke="rgba(0,0,0,0.05)" stroke-width="1"/><circle cx="196.6170643885435" cy="263.0677950745412" r="18.762371997362862" fill="rgba(0,0,0,0.1)" /><circle cx="194.6170643885435" cy="261.0677950745412" r="18.762371997362862" fill="url(#grad_6)" stroke="rgba(0,0,0,0.05)" stroke-width="1"/><circle cx="164.45954909463518" cy="271.2953489457053" r="18.54589859471791" fill="rgba(0,0,0,0.1)" /><circle cx="162.45954909463518" cy="269.2953489457053" r="18.54589859471791" fill="url(#grad_9)" stroke="rgba(0,0,0,0.05)" stroke-width="1"/><circle cx="313.08122709571404" cy="265.23306210262456" r="33.28967751873275" fill="rgba(0,0,0,0.1)" /><circle cx="311.08122709571404" cy="263.23306210262456" r="33.28967751873275" fill="url(#grad_2)" stroke="rgba(0,0,0,0.05)" stroke-width="1"/><circle cx="252.40868437363042" cy="265.4660707919264" r="27.12648515042373" fill="rgba(0,0,0,0.1)" /><circle cx="250.40868437363042" cy="263.4660707919264" r="27.12648515042373" fill="url(#grad_3)" stroke="rgba(0,0,0,0.05)" stroke-width="1"/><circle cx="357.3094076492733" cy="271.6480202059624" r="26.16880953757444" fill="rgba(0,0,0,0.1)" /><circle cx="355.3094076492733" cy="269.6480202059624" r="26.16880953757444" fill="url(#grad_8)" stroke="rgba(0,0,0,0.05)" stroke-width="1"/><circle cx="319.7887105647229" cy="270.11025094345945" r="31.831108661692188" fill="rgba(0,0,0,0.1)" /><circle cx="317.7887105647229" cy="268.11025094345945" r="31.831108661692188" fill="url(#grad_0)" stroke="rgba(0,0,0,0.05)" stroke-width="1"/><circle cx="81.34400080204364" cy="270.91632997171183" r="16.557167984008675" fill="rgba(0,0,0,0.1)" /><circle cx="79.34400080204364" cy="268.91632997171183" r="16.557167984008675" fill="url(#grad_6)" stroke="rgba(0,0,0,0.05)" stroke-width="1"/><circle cx="226.84710069250346" cy="266.7997410855176" r="34.10572122826543" fill="rgba(0,0,0,0.1)" /><circle cx="224.84710069250346" cy="264.7997410855176" r="34.10572122826543" fill="url(#grad_2)" stroke="rgba(0,0,0,0.05)" stroke-width="1"/><circle cx="156.88281776954167" cy="272.54281387225933" r="18.28831110572303" fill="rgba(0,0,0,0.1)" /><circle cx="154.88281776954167" cy="270.54281387225933" r="18.28831110572303" fill="url(#grad_1)" stroke="rgba(0,0,0,0.05)" stroke-width="1"/><circle cx="124.80767546681545" cy="270.39680239663534" r="22.722894342084643" fill="rgba(0,0,0,0.1)" /><circle cx="122.80767546681545" cy="268.39680239663534" r="22.722894342084643" fill="url(#grad_9)" stroke="rgba(0,0,0,0.05)" stroke-width="1"/><circle cx="63.73652635670567" cy="270.1103984251593" r="29.713106207035555" fill="rgba(0,0,0,0.1)" /><circle cx="61.73652635670567" cy="268.1103984251593" r="29.713106207035555" fill="url(#grad_2)" stroke="rgba(0,0,0,0.05)" stroke-width="1"/><circle cx="211.42698960012427" cy="275.58478333728544" r="24.152079715092494" fill="rgba(0,0,0,0.1)" /><circle cx="209.42698960012427" cy="273.58478333728544" r="24.152079715092494" fill="url(#grad_8)" stroke="rgba(0,0,0,0.05)" stroke-width="1"/><circle cx="267.12224874696875" cy="280.6414766723319" r="20.03945982320966" fill="rgba(0,0,0,0.1)" /><circle cx="265.12224874696875" cy="278.6414766723319" r="20.03945982320966" fill="url(#grad_4)" stroke="rgba(0,0,0,0.05)" stroke-width="1"/><circle cx="261.2112581648238" cy="278.11841084766434" r="16.5461141206833" fill="rgba(0,0,0,0.1)" /><circle cx="259.2112581648238" cy="276.11841084766434" r="16.5461141206833" fill="url(#grad_3)" stroke="rgba(0,0,0,0.05)" stroke-width="1"/><circle cx="51.103400060722315" cy="279.2269411806763" r="16.961844344553704" fill="rgba(0,0,0,0.1)" /><circle cx="49.103400060722315" cy="277.2269411806763" r="16.961844344553704" fill="url(#grad_3)" stroke="rgba(0,0,0,0.05)" stroke-width="1"/></svg>