<svg width="400" height="300" viewBox="0 0 400 300" xmlns="http://www.w3.org/2000/svg"><rect width="100%" height="100%" fill="#f8f9fa"/><defs>
            <radialGradient id="grad_0" cx="40%" cy="40%" r="80%" fx="30%" fy="30%">
                <stop offset="0%" style="stop-color:#fefefe;stop-opacity:1" />
                <stop offset="90%" style="stop-color:#e5e5e5;stop-opacity:0.4" />
            </radialGradient>
            
            <radialGradient id="grad_1" cx="40%" cy="40%" r="80%" fx="30%" fy="30%">
                <stop offset="0%" style="stop-color:#fdfdfd;stop-opacity:1" />
                <stop offset="90%" style="stop-color:#e5e5e5;stop-opacity:0.4" />
            </radialGradient>
            
            <radialGradient id="grad_2" cx="40%" cy="40%" r="80%" fx="30%" fy="30%">
                <stop offset="0%" style="stop-color:#fbfbfb;stop-opacity:1" />
                <stop offset="90%" style="stop-color:#e5e5e5;stop-opacity:0.4" />
            </radialGradient>
            
            <radialGradient id="grad_3" cx="40%" cy="40%" r="80%" fx="30%" fy="30%">
                <stop offset="0%" style="stop-color:#fafafa;stop-opacity:1" />
                <stop offset="90%" style="stop-color:#e5e5e5;stop-opacity:0.4" />
            </radialGradient>
            
            <radialGradient id="grad_4" cx="40%" cy="40%" r="80%" fx="30%" fy="30%">
                <stop offset="0%" style="stop-color:#f8f8f8;stop-opacity:1" />
                <stop offset="90%" style="stop-color:#e5e5e5;stop-opacity:0.4" />
            </radialGradient>
            
            <radialGradient id="grad_5" cx="40%" cy="40%" r="80%" fx="30%" fy="30%">
                <stop offset="0%" style="stop-color:#f7f7f7;stop-opacity:1" />
                <stop offset="90%" style="stop-color:#e5e5e5;stop-opacity:0.4" />
            </radialGradient>
            
            <radialGradient id="grad_6" cx="40%" cy="40%" r="80%" fx="30%" fy="30%">
                <stop offset="0%" style="stop-color:#f4f4f4;stop-opacity:1" />
                <stop offset="90%" style="stop-color:#e5e5e5;stop-opacity:0.4" />
            </radialGradient>
            
            <radialGradient id="grad_7" cx="40%" cy="40%" r="80%" fx="30%" fy="30%">
                <stop offset="0%" style="stop-color:#f2f2f2;stop-opacity:1" />
                <stop offset="90%" style="stop-color:#e5e5e5;stop-opacity:0.4" />
            </radialGradient>
            
            <radialGradient id="grad_8" cx="40%" cy="40%" r="80%" fx="30%" fy="30%">
                <stop offset="0%" style="stop-color:#f1f1f1;stop-opacity:1" />
                <stop offset="90%" style="stop-color:#e5e5e5;stop-opacity:0.4" />
            </radialGradient>
            
            <radialGradient id="grad_9" cx="40%" cy="40%" r="80%" fx="30%" fy="30%">
                <stop offset="0%" style="stop-color:#eeeeee;stop-opacity:1" />
                <stop offset="90%" style="stop-color:#e5e5e5;stop-opacity:0.4" />
            </radialGradient>
            </defs><circle cx="336.4761112622009" cy="18.981655115916247" r="16.542157318907865" fill="rgba(0,0,0,0.1)" /><circle cx="334.4761112622009" cy="16.981655115916247" r="16.542157318907865" fill="url(#grad_4)" stroke="rgba(0,0,0,0.05)" stroke-width="1"/><circle cx="160.67965335721578" cy="19.03561143829629" r="15.667624739772048" fill="rgba(0,0,0,0.1)" /><circle cx="158.67965335721578" cy="17.03561143829629" r="15.667624739772048" fill="url(#grad_0)" stroke="rgba(0,0,0,0.05)" stroke-width="1"/><circle cx="345.82506500522896" cy="24.29766515322264" r="21.240594574990034" fill="rgba(0,0,0,0.1)" /><circle cx="343.82506500522896" cy="22.29766515322264" r="21.240594574990034" fill="url(#grad_1)" stroke="rgba(0,0,0,0.05)" stroke-width="1"/><circle cx="222.71879208138773" cy="24.004814575352615" r="19.338459400991937" fill="rgba(0,0,0,0.1)" /><circle cx="220.71879208138773" cy="22.004814575352615" r="19.338459400991937" fill="url(#grad_0)" stroke="rgba(0,0,0,0.05)" stroke-width="1"/><circle cx="244.420556381879" cy="27.87616411239332" r="17.721305409272603" fill="rgba(0,0,0,0.1)" /><circle cx="242.420556381879" cy="25.87616411239332" r="17.721305409272603" fill="url(#grad_8)" stroke="rgba(0,0,0,0.05)" stroke-width="1"/><circle cx="219.3393344756729" cy="24.161471839329316" r="18.412191579121487" fill="rgba(0,0,0,0.1)" /><circle cx="217.3393344756729" cy="22.161471839329316" r="18.412191579121487" fill="url(#grad_7)" stroke="rgba(0,0,0,0.05)" stroke-width="1"/><circle cx="281.8211299798668" cy="34.84267161203893" r="32.42689184982613" fill="rgba(0,0,0,0.1)" /><circle cx="279.8211299798668" cy="32.84267161203893" r="32.42689184982613" fill="url(#grad_5)" stroke="rgba(0,0,0,0.05)" stroke-width="1"/><circle cx="315.15418546640433" cy="34.870687431085706" r="26.54677678596798" fill="rgba(0,0,0,0.1)" /><circle cx="313.15418546640433" cy="32.870687431085706" r="26.54677678596798" fill="url(#grad_8)" stroke="rgba(0,0,0,0.05)" stroke-width="1"/><circle cx="214.19580917191334" cy="27.76991455887177" r="22.722410870330208" fill="rgba(0,0,0,0.1)" /><circle cx="212.19580917191334" cy="25.76991455887177" r="22.722410870330208" fill="url(#grad_7)" stroke="rgba(0,0,0,0.05)" stroke-width="1"/><circle cx="44.1839552404211" cy="25.673302206068914" r="20.380661758373826" fill="rgba(0,0,0,0.1)" /><circle cx="42.1839552404211" cy="23.673302206068914" r="20.380661758373826" fill="url(#grad_2)" stroke="rgba(0,0,0,0.05)" stroke-width="1"/><circle cx="64.57488455352713" cy="34.3021647523917" r="31.294665616651727" fill="rgba(0,0,0,0.1)" /><circle cx="62.57488455352713" cy="32.3021647523917" r="31.294665616651727" fill="url(#grad_9)" stroke="rgba(0,0,0,0.05)" stroke-width="1"/><circle cx="142.7739405840408" cy="34.592953322479204" r="20.702539496556973" fill="rgba(0,0,0,0.1)" /><circle cx="140.7739405840408" cy="32.592953322479204" r="20.702539496556973" fill="url(#grad_0)" stroke="rgba(0,0,0,0.05)" stroke-width="1"/><circle cx="257.83951932805905" cy="36.253813346278335" r="16.07405392629056" fill="rgba(0,0,0,0.1)" /><circle cx="255.83951932805903" cy="34.253813346278335" r="16.07405392629056" fill="url(#grad_1)" stroke="rgba(0,0,0,0.05)" stroke-width="1"/><circle cx="199.76643574520614" cy="31.522558165037573" r="16.755244809171334" fill="rgba(0,0,0,0.1)" /><circle cx="197.76643574520614" cy="29.522558165037573" r="16.755244809171334" fill="url(#grad_1)" stroke="rgba(0,0,0,0.05)" stroke-width="1"/><circle cx="158.78197297030565" cy="39.5719301942337" r="22.29926795398571" fill="rgba(0,0,0,0.1)" /><circle cx="156.78197297030565" cy="37.5719301942337" r="22.29926795398571" fill="url(#grad_5)" stroke="rgba(0,0,0,0.05)" stroke-width="1"/><circle cx="303.2803833755146" cy="35.56845441745837" r="27.481253897913035" fill="rgba(0,0,0,0.1)" /><circle cx="301.2803833755146" cy="33.56845441745837" r="27.481253897913035" fill="url(#grad_1)" stroke="rgba(0,0,0,0.05)" stroke-width="1"/><circle cx="265.12852613535654" cy="35.38904614598624" r="20.044358917403912" fill="rgba(0,0,0,0.1)" /><circle cx="263.12852613535654" cy="33.38904614598624" r="20.044358917403912" fill="url(#grad_8)" stroke="rgba(0,0,0,0.05)" stroke-width="1"/><circle cx="286.2295246663141" cy="45.304619972326265" r="27.53401433817251" fill="rgba(0,0,0,0.1)" /><circle cx="284.2295246663141" cy="43.304619972326265" r="27.53401433817251" fill="url(#grad_2)" stroke="rgba(0,0,0,0.05)" stroke-width="1"/><circle cx="249.3312181184184" cy="38.75778859462831" r="17.169449546692626" fill="rgba(0,0,0,0.1)" /><circle cx="247.3312181184184" cy="36.75778859462831" r="17.169449546692626" fill="url(#grad_6)" stroke="rgba(0,0,0,0.05)" stroke-width="1"/><circle cx="88.94135571277734" cy="42.285138471974605" r="33.15754689672163" fill="rgba(0,0,0,0.1)" /><circle cx="86.94135571277734" cy="40.285138471974605" r="33.15754689672163" fill="url(#grad_7)" stroke="rgba(0,0,0,0.05)" stroke-width="1"/><circle cx="147.1687846072934" cy="42.65433669283032" r="24.57971892122453" fill="rgba(0,0,0,0.1)" /><circle cx="145.1687846072934" cy="40.65433669283032" r="24.57971892122453" fill="url(#grad_3)" stroke="rgba(0,0,0,0.05)" stroke-width="1"/><circle cx="107.30148501989498" cy="39.17461682207638" r="27.17334459862994" fill="rgba(0,0,0,0.1)" /><circle cx="105.30148501989498" cy="37.17461682207638" r="27.17334459862994" fill="url(#grad_0)" stroke="rgba(0,0,0,0.05)" stroke-width="1"/><circle cx="202.06843499449957" cy="45.692345563510095" r="16.587868556661448" fill="rgba(0,0,0,0.1)" /><circle cx="200.06843499449957" cy="43.692345563510095" r="16.587868556661448" fill="url(#grad_4)" stroke="rgba(0,0,0,0.05)" stroke-width="1"/><circle cx="155.9951099338089" cy="44.362241294570026" r="17.213715806613767" fill="rgba(0,0,0,0.1)" /><circle cx="153.9951099338089" cy="42.362241294570026" r="17.213715806613767" fill="url(#grad_2)" stroke="rgba(0,0,0,0.05)" stroke-width="1"/><circle cx="176.08968377581064" cy="44.377989766956794" r="15.60357671465946" fill="rgba(0,0,0,0.1)" /><circle cx="174.08968377581064" cy="42.377989766956794" r="15.60357671465946" fill="url(#grad_0)" stroke="rgba(0,0,0,0.05)" stroke-width="1"/><circle cx="242.46504369122033" cy="48.43912951290752" r="24.48897490452693" fill="rgba(0,0,0,0.1)" /><circle cx="240.46504369122033" cy="46.43912951290752" r="24.48897490452693" fill="url(#grad_3)" stroke="rgba(0,0,0,0.05)" stroke-width="1"/><circle cx="214.75835279282768" cy="44.75542931110562" r="34.17756932174503" fill="rgba(0,0,0,0.1)" /><circle cx="212.75835279282768" cy="42.75542931110562" r="34.17756932174503" fill="url(#grad_0)" stroke="rgba(0,0,0,0.05)" stroke-width="1"/><circle cx="169.78925896792953" cy="52.54724464824988" r="28.850616077314342" fill="rgba(0,0,0,0.1)" /><circle cx="167.78925896792953" cy="50.54724464824988" r="28.850616077314342" fill="url(#grad_4)" stroke="rgba(0,0,0,0.05)" stroke-width="1"/><circle cx="301.105534346267" cy="51.164395021227705" r="22.175871217673375" fill="rgba(0,0,0,0.1)" /><circle cx="299.105534346267" cy="49.164395021227705" r="22.175871217673375" fill="url(#grad_0)" stroke="rgba(0,0,0,0.05)" stroke-width="1"/><circle cx="366.4497891557975" cy="51.412668220292055" r="34.121010917124735" fill="rgba(0,0,0,0.1)" /><circle cx="364.4497891557975" cy="49.412668220292055" r="34.121010917124735" fill="url(#grad_0)" stroke="rgba(0,0,0,0.05)" stroke-width="1"/><circle cx="269.77767564274916" cy="51.42647480710488" r="21.960933841747867" fill="rgba(0,0,0,0.1)" /><circle cx="267.77767564274916" cy="49.42647480710488" r="21.960933841747867" fill="url(#grad_9)" stroke="rgba(0,0,0,0.05)" stroke-width="1"/><circle cx="34.21086423245125" cy="55.92873471333343" r="31.06979239326656" fill="rgba(0,0,0,0.1)" /><circle cx="32.21086423245125" cy="53.92873471333343" r="31.06979239326656" fill="url(#grad_6)" stroke="rgba(0,0,0,0.05)" stroke-width="1"/><circle cx="302.6731673304027" cy="54.03062760617217" r="19.816126187272367" fill="rgba(0,0,0,0.1)" /><circle cx="300.6731673304027" cy="52.03062760617217" r="19.816126187272367" fill="url(#grad_7)" stroke="rgba(0,0,0,0.05)" stroke-width="1"/><circle cx="167.12423631449863" cy="51.00409346804042" r="19.320613987136444" fill="rgba(0,0,0,0.1)" /><circle cx="165.12423631449863" cy="49.00409346804042" r="19.320613987136444" fill="url(#grad_2)" stroke="rgba(0,0,0,0.05)" stroke-width="1"/><circle cx="258.57467752033125" cy="54.510975976015345" r="30.605642323521597" fill="rgba(0,0,0,0.1)" /><circle cx="256.57467752033125" cy="52.510975976015345" r="30.605642323521597" fill="url(#grad_2)" stroke="rgba(0,0,0,0.05)" stroke-width="1"/><circle cx="157.0558021000458" cy="60.76800844720948" r="18.21243474570743" fill="rgba(0,0,0,0.1)" /><circle cx="155.0558021000458" cy="58.76800844720948" r="18.21243474570743" fill="url(#grad_9)" stroke="rgba(0,0,0,0.05)" stroke-width="1"/><circle cx="44.635840707267384" cy="52.223409702155095" r="27.540918485051535" fill="rgba(0,0,0,0.1)" /><circle cx="42.635840707267384" cy="50.223409702155095" r="27.540918485051535" fill="url(#grad_8)" stroke="rgba(0,0,0,0.05)" stroke-width="1"/><circle cx="61.8203870538983" cy="56.366809593452885" r="15.362770478628871" fill="rgba(0,0,0,0.1)" /><circle cx="59.8203870538983" cy="54.366809593452885" r="15.362770478628871" fill="url(#grad_0)" stroke="rgba(0,0,0,0.05)" stroke-width="1"/><circle cx="314.0020221249128" cy="55.03520147137927" r="28.733877639447872" fill="rgba(0,0,0,0.1)" /><circle cx="312.0020221249128" cy="53.03520147137927" r="28.733877639447872" fill="url(#grad_7)" stroke="rgba(0,0,0,0.05)" stroke-width="1"/><circle cx="159.77252507785312" cy="63.33307239564323" r="33.683545470523626" fill="rgba(0,0,0,0.1)" /><circle cx="157.77252507785312" cy="61.33307239564323" r="33.683545470523626" fill="url(#grad_3)" stroke="rgba(0,0,0,0.05)" stroke-width="1"/><circle cx="73.45942388568446" cy="64.06600672787741" r="21.39831726982151" fill="rgba(0,0,0,0.1)" /><circle cx="71.45942388568446" cy="62.066006727877415" r="21.39831726982151" fill="url(#grad_4)" stroke="rgba(0,0,0,0.05)" stroke-width="1"/><circle cx="346.98605106112495" cy="60.186623497126135" r="33.834386367223644" fill="rgba(0,0,0,0.1)" /><circle cx="344.98605106112495" cy="58.186623497126135" r="33.834386367223644" fill="url(#grad_2)" stroke="rgba(0,0,0,0.05)" stroke-width="1"/><circle cx="332.81259215634606" cy="60.8442179873307" r="23.922714289286873" fill="rgba(0,0,0,0.1)" /><circle cx="330.81259215634606" cy="58.8442179873307" r="23.922714289286873" fill="url(#grad_8)" stroke="rgba(0,0,0,0.05)" stroke-width="1"/><circle cx="156.52589624612745" cy="61.10625605919308" r="27.7884986137435" fill="rgba(0,0,0,0.1)" /><circle cx="154.52589624612745" cy="59.10625605919308" r="27.7884986137435" fill="url(#grad_8)" stroke="rgba(0,0,0,0.05)" stroke-width="1"/><circle cx="366.7156440351516" cy="64.8924730714766" r="24.054081916185453" fill="rgba(0,0,0,0.1)" /><circle cx="364.7156440351516" cy="62.8924730714766" r="24.054081916185453" fill="url(#grad_2)" stroke="rgba(0,0,0,0.05)" stroke-width="1"/><circle cx="251.78536108523622" cy="62.50718970340146" r="32.77826565215095" fill="rgba(0,0,0,0.1)" /><circle cx="249.78536108523622" cy="60.50718970340146" r="32.77826565215095" fill="url(#grad_1)" stroke="rgba(0,0,0,0.05)" stroke-width="1"/><circle cx="196.21551378220755" cy="71.58808920017336" r="34.31160539676989" fill="rgba(0,0,0,0.1)" /><circle cx="194.21551378220755" cy="69.58808920017336" r="34.31160539676989" fill="url(#grad_0)" stroke="rgba(0,0,0,0.05)" stroke-width="1"/><circle cx="159.0371914415934" cy="70.94918863143604" r="31.387021960398922" fill="rgba(0,0,0,0.1)" /><circle cx="157.0371914415934" cy="68.94918863143604" r="31.387021960398922" fill="url(#grad_5)" stroke="rgba(0,0,0,0.05)" stroke-width="1"/><circle cx="358.18471880102777" cy="67.23004370947761" r="18.319630647538848" fill="rgba(0,0,0,0.1)" /><circle cx="356.18471880102777" cy="65.23004370947761" r="18.319630647538848" fill="url(#grad_9)" stroke="rgba(0,0,0,0.05)" stroke-width="1"/><circle cx="319.87935881779197" cy="70.9644061790799" r="19.065061999252308" fill="rgba(0,0,0,0.1)" /><circle cx="317.87935881779197" cy="68.9644061790799" r="19.065061999252308" fill="url(#grad_4)" stroke="rgba(0,0,0,0.05)" stroke-width="1"/><circle cx="155.84819402026264" cy="75.47174255278469" r="32.79556981953753" fill="rgba(0,0,0,0.1)" /><circle cx="153.84819402026264" cy="73.47174255278469" r="32.79556981953753" fill="url(#grad_3)" stroke="rgba(0,0,0,0.05)" stroke-width="1"/><circle cx="368.11309270226263" cy="72.10274090757447" r="21.56356910759466" fill="rgba(0,0,0,0.1)" /><circle cx="366.11309270226263" cy="70.10274090757447" r="21.56356910759466" fill="url(#grad_2)" stroke="rgba(0,0,0,0.05)" stroke-width="1"/><circle cx="84.59114255029277" cy="73.68501087745881" r="16.283189168625256" fill="rgba(0,0,0,0.1)" /><circle cx="82.59114255029277" cy="71.68501087745881" r="16.283189168625256" fill="url(#grad_0)" stroke="rgba(0,0,0,0.05)" stroke-width="1"/><circle cx="368.7867791535507" cy="74.31182032630548" r="27.08818695042281" fill="rgba(0,0,0,0.1)" /><circle cx="366.7867791535507" cy="72.31182032630548" r="27.08818695042281" fill="url(#grad_9)" stroke="rgba(0,0,0,0.05)" stroke-width="1"/><circle cx="312.2851415115185" cy="71.52290743735712" r="20.716187967006746" fill="rgba(0,0,0,0.1)" /><circle cx="310.2851415115185" cy="69.52290743735712" r="20.716187967006746" fill="url(#grad_6)" stroke="rgba(0,0,0,0.05)" stroke-width="1"/><circle cx="78.58187156590449" cy="74.2428495193972" r="18.779665402090085" fill="rgba(0,0,0,0.1)" /><circle cx="76.58187156590449" cy="72.2428495193972" r="18.779665402090085" fill="url(#grad_8)" stroke="rgba(0,0,0,0.05)" stroke-width="1"/><circle cx="253.7450624228042" cy="74.25256932821526" r="32.94893610366067" fill="rgba(0,0,0,0.1)" /><circle cx="251.7450624228042" cy="72.25256932821526" r="32.94893610366067" fill="url(#grad_5)" stroke="rgba(0,0,0,0.05)" stroke-width="1"/><circle cx="253.156307200065" cy="78.1866440685435" r="16.697822304717146" fill="rgba(0,0,0,0.1)" /><circle cx="251.156307200065" cy="76.1866440685435" r="16.697822304717146" fill="url(#grad_2)" stroke="rgba(0,0,0,0.05)" stroke-width="1"/><circle cx="81.99541349672847" cy="77.36175653917928" r="32.1323400327056" fill="rgba(0,0,0,0.1)" /><circle cx="79.99541349672847" cy="75.36175653917928" r="32.1323400327056" fill="url(#grad_6)" stroke="rgba(0,0,0,0.05)" stroke-width="1"/><circle cx="166.48399624482238" cy="76.45720848605382" r="31.550233428159924" fill="rgba(0,0,0,0.1)" /><circle cx="164.48399624482238" cy="74.45720848605382" r="31.550233428159924" fill="url(#grad_4)" stroke="rgba(0,0,0,0.05)" stroke-width="1"/><circle cx="105.50127592292631" cy="72.18955885000028" r="21.868863802048345" fill="rgba(0,0,0,0.1)" /><circle cx="103.50127592292631" cy="70.18955885000028" r="21.868863802048345" fill="url(#grad_9)" stroke="rgba(0,0,0,0.05)" stroke-width="1"/><circle cx="39.86837423114957" cy="79.93714115003223" r="15.153803875259698" fill="rgba(0,0,0,0.1)" /><circle cx="37.86837423114957" cy="77.93714115003223" r="15.153803875259698" fill="url(#grad_2)" stroke="rgba(0,0,0,0.05)" stroke-width="1"/><circle cx="70.1361301885723" cy="75.01112080896822" r="29.72836420101626" fill="rgba(0,0,0,0.1)" /><circle cx="68.1361301885723" cy="73.01112080896822" r="29.72836420101626" fill="url(#grad_5)" stroke="rgba(0,0,0,0.05)" stroke-width="1"/><circle cx="316.56378364697974" cy="77.35275422086076" r="33.847771837396444" fill="rgba(0,0,0,0.1)" /><circle cx="314.56378364697974" cy="75.35275422086076" r="33.847771837396444" fill="url(#grad_4)" stroke="rgba(0,0,0,0.05)" stroke-width="1"/><circle cx="356.9885643076179" cy="76.21298008711535" r="31.77315701840144" fill="rgba(0,0,0,0.1)" /><circle cx="354.9885643076179" cy="74.21298008711535" r="31.77315701840144" fill="url(#grad_9)" stroke="rgba(0,0,0,0.05)" stroke-width="1"/><circle cx="67.16293333993045" cy="77.28306519332702" r="20.355378283504166" fill="rgba(0,0,0,0.1)" /><circle cx="65.16293333993045" cy="75.28306519332702" r="20.355378283504166" fill="url(#grad_9)" stroke="rgba(0,0,0,0.05)" stroke-width="1"/><circle cx="258.64830889220957" cy="85.66513382346" r="21.543235453914548" fill="rgba(0,0,0,0.1)" /><circle cx="256.64830889220957" cy="83.66513382346" r="21.543235453914548" fill="url(#grad_3)" stroke="rgba(0,0,0,0.05)" stroke-width="1"/><circle cx="125.33223771763282" cy="78.2396844133473" r="31.885839754959065" fill="rgba(0,0,0,0.1)" /><circle cx="123.33223771763282" cy="76.2396844133473" r="31.885839754959065" fill="url(#grad_6)" stroke="rgba(0,0,0,0.05)" stroke-width="1"/><circle cx="135.28332915173974" cy="80.25911338091636" r="32.11199880346588" fill="rgba(0,0,0,0.1)" /><circle cx="133.28332915173974" cy="78.25911338091636" r="32.11199880346588" fill="url(#grad_8)" stroke="rgba(0,0,0,0.05)" stroke-width="1"/><circle cx="384.5704699341741" cy="83.11728023474498" r="15.453323872678087" fill="rgba(0,0,0,0.1)" /><circle cx="382.5704699341741" cy="81.11728023474498" r="15.453323872678087" fill="url(#grad_6)" stroke="rgba(0,0,0,0.05)" stroke-width="1"/><circle cx="146.31459078461853" cy="80.31948461778751" r="17.18887316165368" fill="rgba(0,0,0,0.1)" /><circle cx="144.31459078461853" cy="78.31948461778751" r="17.18887316165368" fill="url(#grad_0)" stroke="rgba(0,0,0,0.05)" stroke-width="1"/><circle cx="152.3743103418544" cy="86.079382886635" r="16.787968076885164" fill="rgba(0,0,0,0.1)" /><circle cx="150.3743103418544" cy="84.079382886635" r="16.787968076885164" fill="url(#grad_8)" stroke="rgba(0,0,0,0.05)" stroke-width="1"/><circle cx="53.1364481932918" cy="87.63834124158055" r="34.975472897222375" fill="rgba(0,0,0,0.1)" /><circle cx="51.1364481932918" cy="85.63834124158055" r="34.975472897222375" fill="url(#grad_4)" stroke="rgba(0,0,0,0.05)" stroke-width="1"/><circle cx="293.6254334316478" cy="91.77104981429905" r="25.67846273315891" fill="rgba(0,0,0,0.1)" /><circle cx="291.6254334316478" cy="89.77104981429905" r="25.67846273315891" fill="url(#grad_6)" stroke="rgba(0,0,0,0.05)" stroke-width="1"/><circle cx="123.37056346010345" cy="83.44727641095992" r="32.52770984035649" fill="rgba(0,0,0,0.1)" /><circle cx="121.37056346010345" cy="81.44727641095992" r="32.52770984035649" fill="url(#grad_2)" stroke="rgba(0,0,0,0.05)" stroke-width="1"/><circle cx="57.63280776451865" cy="85.98334112278846" r="16.460768805465214" fill="rgba(0,0,0,0.1)" /><circle cx="55.63280776451865" cy="83.98334112278846" r="16.460768805465214" fill="url(#grad_0)" stroke="rgba(0,0,0,0.05)" stroke-width="1"/><circle cx="281.05526447948233" cy="89.42621966430444" r="16.42320448081264" fill="rgba(0,0,0,0.1)" /><circle cx="279.05526447948233" cy="87.42621966430444" r="16.42320448081264" fill="url(#grad_0)" stroke="rgba(0,0,0,0.05)" stroke-width="1"/><circle cx="146.7020140291024" cy="86.16210678802749" r="33.6602979681838" fill="rgba(0,0,0,0.1)" /><circle cx="144.7020140291024" cy="84.16210678802749" r="33.6602979681838" fill="url(#grad_6)" stroke="rgba(0,0,0,0.05)" stroke-width="1"/><circle cx="218.02340237836418" cy="94.64265213729608" r="33.0970968453389" fill="rgba(0,0,0,0.1)" /><circle cx="216.02340237836418" cy="92.64265213729608" r="33.0970968453389" fill="url(#grad_9)" stroke="rgba(0,0,0,0.05)" stroke-width="1"/><circle cx="112.70165444483013" cy="90.2301983365337" r="24.232778291107323" fill="rgba(0,0,0,0.1)" /><circle cx="110.70165444483013" cy="88.2301983365337" r="24.232778291107323" fill="url(#grad_0)" stroke="rgba(0,0,0,0.05)" stroke-width="1"/><circle cx="318.0738686915308" cy="89.61062586702818" r="34.23697372741424" fill="rgba(0,0,0,0.1)" /><circle cx="316.0738686915308" cy="87.61062586702818" r="34.23697372741424" fill="url(#grad_3)" stroke="rgba(0,0,0,0.05)" stroke-width="1"/><circle cx="230.80034418774406" cy="92.44385094888645" r="25.56094850302361" fill="rgba(0,0,0,0.1)" /><circle cx="228.80034418774406" cy="90.44385094888645" r="25.56094850302361" fill="url(#grad_0)" stroke="rgba(0,0,0,0.05)" stroke-width="1"/><circle cx="311.99401354118635" cy="91.87518698145041" r="34.07802353058744" fill="rgba(0,0,0,0.1)" /><circle cx="309.99401354118635" cy="89.87518698145041" r="34.07802353058744" fill="url(#grad_3)" stroke="rgba(0,0,0,0.05)" stroke-width="1"/><circle cx="187.40258651173284" cy="89.11317873461037" r="24.9037792673123" fill="rgba(0,0,0,0.1)" /><circle cx="185.40258651173284" cy="87.11317873461037" r="24.9037792673123" fill="url(#grad_4)" stroke="rgba(0,0,0,0.05)" stroke-width="1"/><circle cx="27.0220885865586" cy="94.4310872321598" r="23.758689090105502" fill="rgba(0,0,0,0.1)" /><circle cx="25.0220885865586" cy="92.4310872321598" r="23.758689090105502" fill="url(#grad_3)" stroke="rgba(0,0,0,0.05)" stroke-width="1"/><circle cx="339.8120980181409" cy="94.90012637902025" r="30.000635575693458" fill="rgba(0,0,0,0.1)" /><circle cx="337.8120980181409" cy="92.90012637902025" r="30.000635575693458" fill="url(#grad_0)" stroke="rgba(0,0,0,0.05)" stroke-width="1"/><circle cx="269.29516572732024" cy="99.01948620509921" r="23.906822131638755" fill="rgba(0,0,0,0.1)" /><circle cx="267.29516572732024" cy="97.01948620509921" r="23.906822131638755" fill="url(#grad_9)" stroke="rgba(0,0,0,0.05)" stroke-width="1"/><circle cx="194.0336380347881" cy="100.82908563605072" r="26.03312886566017" fill="rgba(0,0,0,0.1)" /><circle cx="192.0336380347881" cy="98.82908563605072" r="26.03312886566017" fill="url(#grad_9)" stroke="rgba(0,0,0,0.05)" stroke-width="1"/><circle cx="260.59076216592047" cy="93.53361477721327" r="24.878839490736684" fill="rgba(0,0,0,0.1)" /><circle cx="258.59076216592047" cy="91.53361477721327" r="24.878839490736684" fill="url(#grad_3)" stroke="rgba(0,0,0,0.05)" stroke-width="1"/><circle cx="321.5535909920916" cy="100.36980205261881" r="24.36274807682663" fill="rgba(0,0,0,0.1)" /><circle cx="319.5535909920916" cy="98.36980205261881" r="24.36274807682663" fill="url(#grad_3)" stroke="rgba(0,0,0,0.05)" stroke-width="1"/><circle cx="112.74126154850188" cy="95.2962348297125" r="33.96453924418311" fill="rgba(0,0,0,0.1)" /><circle cx="110.74126154850188" cy="93.2962348297125" r="33.96453924418311" fill="url(#grad_2)" stroke="rgba(0,0,0,0.05)" stroke-width="1"/><circle cx="175.14258212959047" cy="99.02665709188254" r="16.464606132961098" fill="rgba(0,0,0,0.1)" /><circle cx="173.14258212959047" cy="97.02665709188254" r="16.464606132961098" fill="url(#grad_0)" stroke="rgba(0,0,0,0.05)" stroke-width="1"/><circle cx="112.7251586950452" cy="104.74199063497602" r="32.2173569912832" fill="rgba(0,0,0,0.1)" /><circle cx="110.7251586950452" cy="102.74199063497602" r="32.2173569912832" fill="url(#grad_2)" stroke="rgba(0,0,0,0.05)" stroke-width="1"/><circle cx="290.5725132783509" cy="105.76853770568465" r="30.768228038064898" fill="rgba(0,0,0,0.1)" /><circle cx="288.5725132783509" cy="103.76853770568465" r="30.768228038064898" fill="url(#grad_2)" stroke="rgba(0,0,0,0.05)" stroke-width="1"/><circle cx="135.31312704130823" cy="98.26109753592216" r="17.004876083824666" fill="rgba(0,0,0,0.1)" /><circle cx="133.31312704130823" cy="96.26109753592216" r="17.004876083824666" fill="url(#grad_4)" stroke="rgba(0,0,0,0.05)" stroke-width="1"/><circle cx="85.64904191485043" cy="106.92117802399287" r="27.241919991924096" fill="rgba(0,0,0,0.1)" /><circle cx="83.64904191485043" cy="104.92117802399287" r="27.241919991924096" fill="url(#grad_8)" stroke="rgba(0,0,0,0.05)" stroke-width="1"/><circle cx="170.70388225079057" cy="99.2508341130653" r="31.948940350328908" fill="rgba(0,0,0,0.1)" /><circle cx="168.70388225079057" cy="97.2508341130653" r="31.948940350328908" fill="url(#grad_5)" stroke="rgba(0,0,0,0.05)" stroke-width="1"/><circle cx="198.0028018182715" cy="104.71917226303083" r="21.8961960956744" fill="rgba(0,0,0,0.1)" /><circle cx="196.0028018182715" cy="102.71917226303083" r="21.8961960956744" fill="url(#grad_4)" stroke="rgba(0,0,0,0.05)" stroke-width="1"/><circle cx="272.59038792033215" cy="102.03741503060681" r="31.250555302200368" fill="rgba(0,0,0,0.1)" /><circle cx="270.59038792033215" cy="100.03741503060681" r="31.250555302200368" fill="url(#grad_5)" stroke="rgba(0,0,0,0.05)" stroke-width="1"/><circle cx="233.9448832405915" cy="109.88488282880513" r="28.01551898051664" fill="rgba(0,0,0,0.1)" /><circle cx="231.9448832405915" cy="107.88488282880513" r="28.01551898051664" fill="url(#grad_0)" stroke="rgba(0,0,0,0.05)" stroke-width="1"/><circle cx="177.16568272320137" cy="102.87753806822086" r="25.487323105308523" fill="rgba(0,0,0,0.1)" /><circle cx="175.16568272320137" cy="100.87753806822086" r="25.487323105308523" fill="url(#grad_8)" stroke="rgba(0,0,0,0.05)" stroke-width="1"/><circle cx="155.54333611288328" cy="112.07964455818419" r="27.021928547230964" fill="rgba(0,0,0,0.1)" /><circle cx="153.54333611288328" cy="110.07964455818419" r="27.021928547230964" fill="url(#grad_2)" stroke="rgba(0,0,0,0.05)" stroke-width="1"/><circle cx="313.21235419900813" cy="107.30508677315619" r="34.267707244766115" fill="rgba(0,0,0,0.1)" /><circle cx="311.21235419900813" cy="105.30508677315619" r="34.267707244766115" fill="url(#grad_8)" stroke="rgba(0,0,0,0.05)" stroke-width="1"/><circle cx="178.88624994454625" cy="115.47148942146745" r="24.983903758328594" fill="rgba(0,0,0,0.1)" /><circle cx="176.88624994454625" cy="113.47148942146745" r="24.983903758328594" fill="url(#grad_2)" stroke="rgba(0,0,0,0.05)" stroke-width="1"/><circle cx="50.20909162963832" cy="111.16180913391543" r="18.779185197020674" fill="rgba(0,0,0,0.1)" /><circle cx="48.20909162963832" cy="109.16180913391543" r="18.779185197020674" fill="url(#grad_5)" stroke="rgba(0,0,0,0.05)" stroke-width="1"/><circle cx="47.10766292231248" cy="116.66439178034983" r="28.60293322957382" fill="rgba(0,0,0,0.1)" /><circle cx="45.10766292231248" cy="114.66439178034983" r="28.60293322957382" fill="url(#grad_7)" stroke="rgba(0,0,0,0.05)" stroke-width="1"/><circle cx="169.3414837559527" cy="114.4990630552086" r="16.5714214418505" fill="rgba(0,0,0,0.1)" /><circle cx="167.3414837559527" cy="112.4990630552086" r="16.5714214418505" fill="url(#grad_1)" stroke="rgba(0,0,0,0.05)" stroke-width="1"/><circle cx="129.54464120121975" cy="117.05591680593083" r="19.70774152357464" fill="rgba(0,0,0,0.1)" /><circle cx="127.54464120121976" cy="115.05591680593083" r="19.70774152357464" fill="url(#grad_4)" stroke="rgba(0,0,0,0.05)" stroke-width="1"/><circle cx="111.85206663564128" cy="118.0288397417404" r="28.885760298638527" fill="rgba(0,0,0,0.1)" /><circle cx="109.85206663564128" cy="116.0288397417404" r="28.885760298638527" fill="url(#grad_4)" stroke="rgba(0,0,0,0.05)" stroke-width="1"/><circle cx="210.1399310454628" cy="112.15803439457206" r="18.719023983943938" fill="rgba(0,0,0,0.1)" /><circle cx="208.1399310454628" cy="110.15803439457206" r="18.719023983943938" fill="url(#grad_5)" stroke="rgba(0,0,0,0.05)" stroke-width="1"/><circle cx="179.05242326225533" cy="113.94903574662288" r="23.118314572860143" fill="rgba(0,0,0,0.1)" /><circle cx="177.05242326225533" cy="111.94903574662288" r="23.118314572860143" fill="url(#grad_1)" stroke="rgba(0,0,0,0.05)" stroke-width="1"/><circle cx="209.02704832216298" cy="120.76062975174091" r="30.637378168543723" fill="rgba(0,0,0,0.1)" /><circle cx="207.02704832216298" cy="118.76062975174091" r="30.637378168543723" fill="url(#grad_0)" stroke="rgba(0,0,0,0.05)" stroke-width="1"/><circle cx="170.64835158687774" cy="116.73248505350493" r="28.897336852825646" fill="rgba(0,0,0,0.1)" /><circle cx="168.64835158687774" cy="114.73248505350493" r="28.897336852825646" fill="url(#grad_0)" stroke="rgba(0,0,0,0.05)" stroke-width="1"/><circle cx="110.75425906101594" cy="117.25412500593046" r="26.466056564482244" fill="rgba(0,0,0,0.1)" /><circle cx="108.75425906101594" cy="115.25412500593046" r="26.466056564482244" fill="url(#grad_0)" stroke="rgba(0,0,0,0.05)" stroke-width="1"/><circle cx="285.99885660243496" cy="119.97229308142758" r="19.174182730918986" fill="rgba(0,0,0,0.1)" /><circle cx="283.99885660243496" cy="117.97229308142758" r="19.174182730918986" fill="url(#grad_8)" stroke="rgba(0,0,0,0.05)" stroke-width="1"/><circle cx="214.22335090935772" cy="118.62832497762949" r="18.783431749463738" fill="rgba(0,0,0,0.1)" /><circle cx="212.22335090935772" cy="116.62832497762949" r="18.783431749463738" fill="url(#grad_0)" stroke="rgba(0,0,0,0.05)" stroke-width="1"/><circle cx="211.41227617929053" cy="125.85723543219116" r="25.78530601707108" fill="rgba(0,0,0,0.1)" /><circle cx="209.41227617929053" cy="123.85723543219116" r="25.78530601707108" fill="url(#grad_8)" stroke="rgba(0,0,0,0.05)" stroke-width="1"/><circle cx="83.20970231359357" cy="127.60746115916473" r="34.320782596265005" fill="rgba(0,0,0,0.1)" /><circle cx="81.20970231359357" cy="125.60746115916473" r="34.320782596265005" fill="url(#grad_6)" stroke="rgba(0,0,0,0.05)" stroke-width="1"/><circle cx="376.99170681314075" cy="124.70689679505193" r="19.78017725335834" fill="rgba(0,0,0,0.1)" /><circle cx="374.99170681314075" cy="122.70689679505193" r="19.78017725335834" fill="url(#grad_1)" stroke="rgba(0,0,0,0.05)" stroke-width="1"/><circle cx="110.66274176334171" cy="120.43453792705625" r="27.506668362154386" fill="rgba(0,0,0,0.1)" /><circle cx="108.66274176334171" cy="118.43453792705625" r="27.506668362154386" fill="url(#grad_6)" stroke="rgba(0,0,0,0.05)" stroke-width="1"/><circle cx="319.4200870875314" cy="123.84814076199471" r="29.359429991855077" fill="rgba(0,0,0,0.1)" /><circle cx="317.4200870875314" cy="121.84814076199471" r="29.359429991855077" fill="url(#grad_6)" stroke="rgba(0,0,0,0.05)" stroke-width="1"/><circle cx="319.65326185881366" cy="131.6107140617498" r="16.414929725475567" fill="rgba(0,0,0,0.1)" /><circle cx="317.65326185881366" cy="129.6107140617498" r="16.414929725475567" fill="url(#grad_2)" stroke="rgba(0,0,0,0.05)" stroke-width="1"/><circle cx="87.54647731568056" cy="129.27550427095744" r="26.375937625860406" fill="rgba(0,0,0,0.1)" /><circle cx="85.54647731568056" cy="127.27550427095744" r="26.375937625860406" fill="url(#grad_4)" stroke="rgba(0,0,0,0.05)" stroke-width="1"/><circle cx="71.03135002797933" cy="129.05866059962318" r="30.979549332833702" fill="rgba(0,0,0,0.1)" /><circle cx="69.03135002797933" cy="127.0586605996232" r="30.979549332833702" fill="url(#grad_5)" stroke="rgba(0,0,0,0.05)" stroke-width="1"/><circle cx="360.6270786630962" cy="127.86685175042216" r="18.632646306710512" fill="rgba(0,0,0,0.1)" /><circle cx="358.6270786630962" cy="125.86685175042216" r="18.632646306710512" fill="url(#grad_6)" stroke="rgba(0,0,0,0.05)" stroke-width="1"/><circle cx="274.3177721233373" cy="131.40955767608654" r="16.79531272719349" fill="rgba(0,0,0,0.1)" /><circle cx="272.3177721233373" cy="129.40955767608654" r="16.79531272719349" fill="url(#grad_6)" stroke="rgba(0,0,0,0.05)" stroke-width="1"/><circle cx="101.49897423692575" cy="132.9760248369174" r="19.230908318119287" fill="rgba(0,0,0,0.1)" /><circle cx="99.49897423692575" cy="130.9760248369174" r="19.230908318119287" fill="url(#grad_0)" stroke="rgba(0,0,0,0.05)" stroke-width="1"/><circle cx="212.2897072621902" cy="133.91489074449495" r="16.647231513360715" fill="rgba(0,0,0,0.1)" /><circle cx="210.2897072621902" cy="131.91489074449495" r="16.647231513360715" fill="url(#grad_9)" stroke="rgba(0,0,0,0.05)" stroke-width="1"/><circle cx="94.8727379933359" cy="138.50441714205692" r="30.58857869597594" fill="rgba(0,0,0,0.1)" /><circle cx="92.8727379933359" cy="136.50441714205692" r="30.58857869597594" fill="url(#grad_3)" stroke="rgba(0,0,0,0.05)" stroke-width="1"/><circle cx="252.83635576681985" cy="133.48961078280797" r="33.14198505726757" fill="rgba(0,0,0,0.1)" /><circle cx="250.83635576681985" cy="131.48961078280797" r="33.14198505726757" fill="url(#grad_9)" stroke="rgba(0,0,0,0.05)" stroke-width="1"/><circle cx="113.28396594663214" cy="136.2164416465642" r="22.976018283962485" fill="rgba(0,0,0,0.1)" /><circle cx="111.28396594663214" cy="134.2164416465642" r="22.976018283962485" fill="url(#grad_4)" stroke="rgba(0,0,0,0.05)" stroke-width="1"/><circle cx="300.28432883937205" cy="139.68540957062717" r="19.91461765953476" fill="rgba(0,0,0,0.1)" /><circle cx="298.28432883937205" cy="137.68540957062717" r="19.91461765953476" fill="url(#grad_5)" stroke="rgba(0,0,0,0.05)" stroke-width="1"/><circle cx="189.7318744275764" cy="138.0080189845669" r="22.623624668714122" fill="rgba(0,0,0,0.1)" /><circle cx="187.7318744275764" cy="136.0080189845669" r="22.623624668714122" fill="url(#grad_0)" stroke="rgba(0,0,0,0.05)" stroke-width="1"/><circle cx="133.20228574139952" cy="138.0292124741898" r="23.382641290121295" fill="rgba(0,0,0,0.1)" /><circle cx="131.20228574139952" cy="136.0292124741898" r="23.382641290121295" fill="url(#grad_7)" stroke="rgba(0,0,0,0.05)" stroke-width="1"/><circle cx="259.48542440371966" cy="143.88871223448575" r="32.38826185649889" fill="rgba(0,0,0,0.1)" /><circle cx="257.48542440371966" cy="141.88871223448575" r="32.38826185649889" fill="url(#grad_2)" stroke="rgba(0,0,0,0.05)" stroke-width="1"/><circle cx="208.49481236107624" cy="139.41178091243586" r="23.645452461946512" fill="rgba(0,0,0,0.1)" /><circle cx="206.49481236107624" cy="137.41178091243586" r="23.645452461946512" fill="url(#grad_7)" stroke="rgba(0,0,0,0.05)" stroke-width="1"/><circle cx="191.13889511208575" cy="141.2257717524083" r="18.381604920057338" fill="rgba(0,0,0,0.1)" /><circle cx="189.13889511208575" cy="139.2257717524083" r="18.381604920057338" fill="url(#grad_8)" stroke="rgba(0,0,0,0.05)" stroke-width="1"/><circle cx="340.0380099271257" cy="139.93756000481636" r="29.579368171569335" fill="rgba(0,0,0,0.1)" /><circle cx="338.0380099271257" cy="137.93756000481636" r="29.579368171569335" fill="url(#grad_8)" stroke="rgba(0,0,0,0.05)" stroke-width="1"/><circle cx="182.8959996806637" cy="146.70089019088556" r="34.54177409747963" fill="rgba(0,0,0,0.1)" /><circle cx="180.8959996806637" cy="144.70089019088556" r="34.54177409747963" fill="url(#grad_7)" stroke="rgba(0,0,0,0.05)" stroke-width="1"/><circle cx="60.858498465771774" cy="139.31100835494664" r="30.156625352623394" fill="rgba(0,0,0,0.1)" /><circle cx="58.858498465771774" cy="137.31100835494664" r="30.156625352623394" fill="url(#grad_8)" stroke="rgba(0,0,0,0.05)" stroke-width="1"/><circle cx="171.79191580870332" cy="144.202492881894" r="25.301320077325435" fill="rgba(0,0,0,0.1)" /><circle cx="169.79191580870332" cy="142.202492881894" r="25.301320077325435" fill="url(#grad_9)" stroke="rgba(0,0,0,0.05)" stroke-width="1"/><circle cx="262.7623739667906" cy="147.77990742491036" r="25.90612612185551" fill="rgba(0,0,0,0.1)" /><circle cx="260.7623739667906" cy="145.77990742491036" r="25.90612612185551" fill="url(#grad_4)" stroke="rgba(0,0,0,0.05)" stroke-width="1"/><circle cx="226.58877185128694" cy="149.5412349527936" r="22.145143097784796" fill="rgba(0,0,0,0.1)" /><circle cx="224.58877185128694" cy="147.5412349527936" r="22.145143097784796" fill="url(#grad_4)" stroke="rgba(0,0,0,0.05)" stroke-width="1"/><circle cx="28.357858953101314" cy="146.4935767793853" r="22.51611124604284" fill="rgba(0,0,0,0.1)" /><circle cx="26.357858953101314" cy="144.4935767793853" r="22.51611124604284" fill="url(#grad_8)" stroke="rgba(0,0,0,0.05)" stroke-width="1"/><circle cx="219.69026819861344" cy="149.39980994852917" r="15.044119298823603" fill="rgba(0,0,0,0.1)" /><circle cx="217.69026819861344" cy="147.39980994852917" r="15.044119298823603" fill="url(#grad_5)" stroke="rgba(0,0,0,0.05)" stroke-width="1"/><circle cx="326.85774800205826" cy="147.35035286569502" r="20.696131608159654" fill="rgba(0,0,0,0.1)" /><circle cx="324.85774800205826" cy="145.35035286569502" r="20.696131608159654" fill="url(#grad_8)" stroke="rgba(0,0,0,0.05)" stroke-width="1"/><circle cx="315.22652381678586" cy="156.19511329708632" r="18.16285377658986" fill="rgba(0,0,0,0.1)" /><circle cx="313.22652381678586" cy="154.19511329708632" r="18.16285377658986" fill="url(#grad_7)" stroke="rgba(0,0,0,0.05)" stroke-width="1"/><circle cx="71.51976804862718" cy="147.56804112861363" r="34.04711026860778" fill="rgba(0,0,0,0.1)" /><circle cx="69.51976804862718" cy="145.56804112861363" r="34.04711026860778" fill="url(#grad_9)" stroke="rgba(0,0,0,0.05)" stroke-width="1"/><circle cx="226.54176560865167" cy="154.42420013726607" r="22.92614621692507" fill="rgba(0,0,0,0.1)" /><circle cx="224.54176560865167" cy="152.42420013726607" r="22.92614621692507" fill="url(#grad_4)" stroke="rgba(0,0,0,0.05)" stroke-width="1"/><circle cx="269.6398148330297" cy="150.27994794678747" r="27.659347010375377" fill="rgba(0,0,0,0.1)" /><circle cx="267.6398148330297" cy="148.27994794678747" r="27.659347010375377" fill="url(#grad_0)" stroke="rgba(0,0,0,0.05)" stroke-width="1"/><circle cx="321.662442846407" cy="154.96780073742391" r="23.275619461337556" fill="rgba(0,0,0,0.1)" /><circle cx="319.662442846407" cy="152.96780073742391" r="23.275619461337556" fill="url(#grad_1)" stroke="rgba(0,0,0,0.05)" stroke-width="1"/><circle cx="69.67026723237018" cy="158.76368455804771" r="22.45824562637789" fill="rgba(0,0,0,0.1)" /><circle cx="67.67026723237018" cy="156.76368455804771" r="22.45824562637789" fill="url(#grad_1)" stroke="rgba(0,0,0,0.05)" stroke-width="1"/><circle cx="268.63806654247685" cy="157.4249493221865" r="27.001035296161795" fill="rgba(0,0,0,0.1)" /><circle cx="266.63806654247685" cy="155.4249493221865" r="27.001035296161795" fill="url(#grad_0)" stroke="rgba(0,0,0,0.05)" stroke-width="1"/><circle cx="310.34834938184156" cy="154.90460729466054" r="32.250097360489406" fill="rgba(0,0,0,0.1)" /><circle cx="308.34834938184156" cy="152.90460729466054" r="32.250097360489406" fill="url(#grad_3)" stroke="rgba(0,0,0,0.05)" stroke-width="1"/><circle cx="31.496312181927983" cy="161.4461171373842" r="25.97000370753527" fill="rgba(0,0,0,0.1)" /><circle cx="29.496312181927983" cy="159.4461171373842" r="25.97000370753527" fill="url(#grad_2)" stroke="rgba(0,0,0,0.05)" stroke-width="1"/><circle cx="161.57216338179106" cy="159.36055791844683" r="32.94804649822353" fill="rgba(0,0,0,0.1)" /><circle cx="159.57216338179106" cy="157.36055791844683" r="32.94804649822353" fill="url(#grad_7)" stroke="rgba(0,0,0,0.05)" stroke-width="1"/><circle cx="302.1466149410915" cy="159.91054009839903" r="25.91299554429146" fill="rgba(0,0,0,0.1)" /><circle cx="300.1466149410915" cy="157.91054009839903" r="25.91299554429146" fill="url(#grad_3)" stroke="rgba(0,0,0,0.05)" stroke-width="1"/><circle cx="129.7803269291714" cy="163.0981156735717" r="28.118370543193627" fill="rgba(0,0,0,0.1)" /><circle cx="127.7803269291714" cy="161.0981156735717" r="28.118370543193627" fill="url(#grad_3)" stroke="rgba(0,0,0,0.05)" stroke-width="1"/><circle cx="272.2938578792913" cy="165.51141035499492" r="25.57940496764466" fill="rgba(0,0,0,0.1)" /><circle cx="270.2938578792913" cy="163.51141035499492" r="25.57940496764466" fill="url(#grad_8)" stroke="rgba(0,0,0,0.05)" stroke-width="1"/><circle cx="204.1665855425503" cy="165.11830196096452" r="34.29673693564457" fill="rgba(0,0,0,0.1)" /><circle cx="202.1665855425503" cy="163.11830196096452" r="34.29673693564457" fill="url(#grad_8)" stroke="rgba(0,0,0,0.05)" stroke-width="1"/><circle cx="176.33645555468294" cy="165.30104049116343" r="29.521214949279937" fill="rgba(0,0,0,0.1)" /><circle cx="174.33645555468294" cy="163.30104049116343" r="29.521214949279937" fill="url(#grad_8)" stroke="rgba(0,0,0,0.05)" stroke-width="1"/><circle cx="206.5064268285098" cy="174.8277731954662" r="16.520741428830704" fill="rgba(0,0,0,0.1)" /><circle cx="204.5064268285098" cy="172.8277731954662" r="16.520741428830704" fill="url(#grad_7)" stroke="rgba(0,0,0,0.05)" stroke-width="1"/><circle cx="43.164199201020665" cy="174.91724539782845" r="18.634802995721774" fill="rgba(0,0,0,0.1)" /><circle cx="41.164199201020665" cy="172.91724539782845" r="18.634802995721774" fill="url(#grad_2)" stroke="rgba(0,0,0,0.05)" stroke-width="1"/><circle cx="175.46549085742956" cy="172.5950312281302" r="34.13658675714967" fill="rgba(0,0,0,0.1)" /><circle cx="173.46549085742956" cy="170.5950312281302" r="34.13658675714967" fill="url(#grad_1)" stroke="rgba(0,0,0,0.05)" stroke-width="1"/><circle cx="295.079437529515" cy="172.38051931369404" r="31.49293711263296" fill="rgba(0,0,0,0.1)" /><circle cx="293.079437529515" cy="170.38051931369404" r="31.49293711263296" fill="url(#grad_0)" stroke="rgba(0,0,0,0.05)" stroke-width="1"/><circle cx="325.93249287747153" cy="174.34689431128268" r="20.51482869215003" fill="rgba(0,0,0,0.1)" /><circle cx="323.93249287747153" cy="172.34689431128268" r="20.51482869215003" fill="url(#grad_0)" stroke="rgba(0,0,0,0.05)" stroke-width="1"/><circle cx="330.18739014377513" cy="174.32889086283362" r="24.320669292219446" fill="rgba(0,0,0,0.1)" /><circle cx="328.18739014377513" cy="172.32889086283362" r="24.320669292219446" fill="url(#grad_3)" stroke="rgba(0,0,0,0.05)" stroke-width="1"/><circle cx="151.4806183267716" cy="181.10044919643576" r="29.383801246277315" fill="rgba(0,0,0,0.1)" /><circle cx="149.4806183267716" cy="179.10044919643576" r="29.383801246277315" fill="url(#grad_3)" stroke="rgba(0,0,0,0.05)" stroke-width="1"/><circle cx="267.1758578903039" cy="182.59568705667607" r="15.008906122741642" fill="rgba(0,0,0,0.1)" /><circle cx="265.1758578903039" cy="180.59568705667607" r="15.008906122741642" fill="url(#grad_4)" stroke="rgba(0,0,0,0.05)" stroke-width="1"/><circle cx="302.9097243717443" cy="182.74108219424863" r="20.522408830850694" fill="rgba(0,0,0,0.1)" /><circle cx="300.9097243717443" cy="180.74108219424863" r="20.522408830850694" fill="url(#grad_2)" stroke="rgba(0,0,0,0.05)" stroke-width="1"/><circle cx="311.52643257113647" cy="190.39724327850865" r="32.354593283725514" fill="rgba(0,0,0,0.1)" /><circle cx="309.52643257113647" cy="188.39724327850865" r="32.354593283725514" fill="url(#grad_7)" stroke="rgba(0,0,0,0.05)" stroke-width="1"/><circle cx="152.53235675343552" cy="189.160011523567" r="23.036526931496013" fill="rgba(0,0,0,0.1)" /><circle cx="150.53235675343552" cy="187.160011523567" r="23.036526931496013" fill="url(#grad_7)" stroke="rgba(0,0,0,0.05)" stroke-width="1"/><circle cx="247.72598848426907" cy="187.10519667771268" r="18.460680711815357" fill="rgba(0,0,0,0.1)" /><circle cx="245.72598848426907" cy="185.10519667771268" r="18.460680711815357" fill="url(#grad_5)" stroke="rgba(0,0,0,0.05)" stroke-width="1"/><circle cx="260.70430144681626" cy="188.19068373721495" r="29.711159287374798" fill="rgba(0,0,0,0.1)" /><circle cx="258.70430144681626" cy="186.19068373721495" r="29.711159287374798" fill="url(#grad_6)" stroke="rgba(0,0,0,0.05)" stroke-width="1"/><circle cx="333.17199166763476" cy="186.70796798544546" r="24.89664993313255" fill="rgba(0,0,0,0.1)" /><circle cx="331.17199166763476" cy="184.70796798544546" r="24.89664993313255" fill="url(#grad_9)" stroke="rgba(0,0,0,0.05)" stroke-width="1"/><circle cx="176.79759705655744" cy="188.77319967683434" r="27.819188560130286" fill="rgba(0,0,0,0.1)" /><circle cx="174.79759705655744" cy="186.77319967683434" r="27.819188560130286" fill="url(#grad_2)" stroke="rgba(0,0,0,0.05)" stroke-width="1"/><circle cx="381.9810715490106" cy="184.47997475815035" r="19.785476565857124" fill="rgba(0,0,0,0.1)" /><circle cx="379.9810715490106" cy="182.47997475815035" r="19.785476565857124" fill="url(#grad_2)" stroke="rgba(0,0,0,0.05)" stroke-width="1"/><circle cx="123.82414070990401" cy="193.26332559216223" r="30.230743663922592" fill="rgba(0,0,0,0.1)" /><circle cx="121.82414070990401" cy="191.26332559216223" r="30.230743663922592" fill="url(#grad_6)" stroke="rgba(0,0,0,0.05)" stroke-width="1"/><circle cx="352.8893730794014" cy="194.1794215082405" r="26.69615407787453" fill="rgba(0,0,0,0.1)" /><circle cx="350.8893730794014" cy="192.1794215082405" r="26.69615407787453" fill="url(#grad_7)" stroke="rgba(0,0,0,0.05)" stroke-width="1"/><circle cx="275.9888402707609" cy="189.6129152295345" r="25.171989928259062" fill="rgba(0,0,0,0.1)" /><circle cx="273.9888402707609" cy="187.6129152295345" r="25.171989928259062" fill="url(#grad_9)" stroke="rgba(0,0,0,0.05)" stroke-width="1"/><circle cx="301.55189090041597" cy="191.71826633672384" r="24.880237087644648" fill="rgba(0,0,0,0.1)" /><circle cx="299.55189090041597" cy="189.71826633672384" r="24.880237087644648" fill="url(#grad_7)" stroke="rgba(0,0,0,0.05)" stroke-width="1"/><circle cx="52.97797233862563" cy="193.47908905035774" r="16.564110581085153" fill="rgba(0,0,0,0.1)" /><circle cx="50.97797233862563" cy="191.47908905035774" r="16.564110581085153" fill="url(#grad_4)" stroke="rgba(0,0,0,0.05)" stroke-width="1"/><circle cx="196.83875377271912" cy="189.72806983949442" r="20.62906910251373" fill="rgba(0,0,0,0.1)" /><circle cx="194.83875377271912" cy="187.72806983949442" r="20.62906910251373" fill="url(#grad_4)" stroke="rgba(0,0,0,0.05)" stroke-width="1"/><circle cx="360.8959039526475" cy="199.93911217597528" r="23.98798364071438" fill="rgba(0,0,0,0.1)" /><circle cx="358.8959039526475" cy="197.93911217597528" r="23.98798364071438" fill="url(#grad_9)" stroke="rgba(0,0,0,0.05)" stroke-width="1"/><circle cx="44.892525149215544" cy="200.78802496831065" r="19.102844250514433" fill="rgba(0,0,0,0.1)" /><circle cx="42.892525149215544" cy="198.78802496831065" r="19.102844250514433" fill="url(#grad_9)" stroke="rgba(0,0,0,0.05)" stroke-width="1"/><circle cx="120.03700831118633" cy="195.1183567609535" r="20.175934955287357" fill="rgba(0,0,0,0.1)" /><circle cx="118.03700831118633" cy="193.1183567609535" r="20.175934955287357" fill="url(#grad_1)" stroke="rgba(0,0,0,0.05)" stroke-width="1"/><circle cx="367.741432430351" cy="201.25954416594354" r="33.60952594796046" fill="rgba(0,0,0,0.1)" /><circle cx="365.741432430351" cy="199.25954416594354" r="33.60952594796046" fill="url(#grad_5)" stroke="rgba(0,0,0,0.05)" stroke-width="1"/><circle cx="314.3709739505912" cy="201.8823255386264" r="34.140712474829314" fill="rgba(0,0,0,0.1)" /><circle cx="312.3709739505912" cy="199.8823255386264" r="34.140712474829314" fill="url(#grad_4)" stroke="rgba(0,0,0,0.05)" stroke-width="1"/><circle cx="147.61216911322882" cy="197.85045607585525" r="19.342248427146785" fill="rgba(0,0,0,0.1)" /><circle cx="145.61216911322882" cy="195.85045607585525" r="19.342248427146785" fill="url(#grad_0)" stroke="rgba(0,0,0,0.05)" stroke-width="1"/><circle cx="194.72460011599276" cy="203.98524155477122" r="33.424994669428955" fill="rgba(0,0,0,0.1)" /><circle cx="192.72460011599276" cy="201.98524155477122" r="33.424994669428955" fill="url(#grad_4)" stroke="rgba(0,0,0,0.05)" stroke-width="1"/><circle cx="91.61936051632863" cy="205.2298427761523" r="25.607916130015578" fill="rgba(0,0,0,0.1)" /><circle cx="89.61936051632863" cy="203.2298427761523" r="25.607916130015578" fill="url(#grad_2)" stroke="rgba(0,0,0,0.05)" stroke-width="1"/><circle cx="66.8327410162898" cy="199.65083064033107" r="22.34257065652294" fill="rgba(0,0,0,0.1)" /><circle cx="64.8327410162898" cy="197.65083064033107" r="22.34257065652294" fill="url(#grad_9)" stroke="rgba(0,0,0,0.05)" stroke-width="1"/><circle cx="262.2720838541233" cy="205.0226839348376" r="33.59148253397075" fill="rgba(0,0,0,0.1)" /><circle cx="260.2720838541233" cy="203.0226839348376" r="33.59148253397075" fill="url(#grad_1)" stroke="rgba(0,0,0,0.05)" stroke-width="1"/><circle cx="291.21765217117286" cy="207.8334687896353" r="23.025217126828576" fill="rgba(0,0,0,0.1)" /><circle cx="289.21765217117286" cy="205.8334687896353" r="23.025217126828576" fill="url(#grad_3)" stroke="rgba(0,0,0,0.05)" stroke-width="1"/><circle cx="94.19870645239018" cy="201.45695636793107" r="24.847799976146646" fill="rgba(0,0,0,0.1)" /><circle cx="92.19870645239018" cy="199.45695636793107" r="24.847799976146646" fill="url(#grad_1)" stroke="rgba(0,0,0,0.05)" stroke-width="1"/><circle cx="228.8867934793345" cy="200.8850100271651" r="31.026156918995053" fill="rgba(0,0,0,0.1)" /><circle cx="226.8867934793345" cy="198.8850100271651" r="31.026156918995053" fill="url(#grad_8)" stroke="rgba(0,0,0,0.05)" stroke-width="1"/><circle cx="206.76137766651345" cy="201.90833281965055" r="18.221257401248362" fill="rgba(0,0,0,0.1)" /><circle cx="204.76137766651345" cy="199.90833281965055" r="18.221257401248362" fill="url(#grad_5)" stroke="rgba(0,0,0,0.05)" stroke-width="1"/><circle cx="310.71338587047165" cy="202.76315360569617" r="18.253876794334328" fill="rgba(0,0,0,0.1)" /><circle cx="308.71338587047165" cy="200.76315360569617" r="18.253876794334328" fill="url(#grad_9)" stroke="rgba(0,0,0,0.05)" stroke-width="1"/><circle cx="246.745038079005" cy="204.35197062608805" r="26.530942276670118" fill="rgba(0,0,0,0.1)" /><circle cx="244.745038079005" cy="202.35197062608805" r="26.530942276670118" fill="url(#grad_3)" stroke="rgba(0,0,0,0.05)" stroke-width="1"/><circle cx="254.41688656608864" cy="207.13213173355788" r="19.834596201121407" fill="rgba(0,0,0,0.1)" /><circle cx="252.41688656608864" cy="205.13213173355788" r="19.834596201121407" fill="url(#grad_0)" stroke="rgba(0,0,0,0.05)" stroke-width="1"/><circle cx="99.27584841203783" cy="205.61687626112632" r="30.469870884530764" fill="rgba(0,0,0,0.1)" /><circle cx="97.27584841203783" cy="203.61687626112632" r="30.469870884530764" fill="url(#grad_4)" stroke="rgba(0,0,0,0.05)" stroke-width="1"/><circle cx="247.1259402765984" cy="207.65729207551067" r="21.790249774452548" fill="rgba(0,0,0,0.1)" /><circle cx="245.1259402765984" cy="205.65729207551067" r="21.790249774452548" fill="url(#grad_2)" stroke="rgba(0,0,0,0.05)" stroke-width="1"/><circle cx="92.14551010926068" cy="207.0564652776505" r="22.408698003766556" fill="rgba(0,0,0,0.1)" /><circle cx="90.14551010926068" cy="205.0564652776505" r="22.408698003766556" fill="url(#grad_5)" stroke="rgba(0,0,0,0.05)" stroke-width="1"/><circle cx="324.6557297493609" cy="206.74528395134394" r="34.080141323693525" fill="rgba(0,0,0,0.1)" /><circle cx="322.6557297493609" cy="204.74528395134394" r="34.080141323693525" fill="url(#grad_6)" stroke="rgba(0,0,0,0.05)" stroke-width="1"/><circle cx="103.79602705944093" cy="213.01645694196833" r="19.529012704897085" fill="rgba(0,0,0,0.1)" /><circle cx="101.79602705944093" cy="211.01645694196833" r="19.529012704897085" fill="url(#grad_4)" stroke="rgba(0,0,0,0.05)" stroke-width="1"/><circle cx="137.86829218426266" cy="213.11682230292064" r="31.752362264416625" fill="rgba(0,0,0,0.1)" /><circle cx="135.86829218426266" cy="211.11682230292064" r="31.752362264416625" fill="url(#grad_2)" stroke="rgba(0,0,0,0.05)" stroke-width="1"/><circle cx="142.95686623979662" cy="209.48033665924365" r="19.979518376560947" fill="rgba(0,0,0,0.1)" /><circle cx="140.95686623979662" cy="207.48033665924365" r="19.979518376560947" fill="url(#grad_9)" stroke="rgba(0,0,0,0.05)" stroke-width="1"/><circle cx="114.11529551819754" cy="208.35175289564356" r="24.652090121482395" fill="rgba(0,0,0,0.1)" /><circle cx="112.11529551819754" cy="206.35175289564356" r="24.652090121482395" fill="url(#grad_5)" stroke="rgba(0,0,0,0.05)" stroke-width="1"/><circle cx="114.99866013545504" cy="209.87278223447024" r="24.169551053118965" fill="rgba(0,0,0,0.1)" /><circle cx="112.99866013545504" cy="207.87278223447024" r="24.169551053118965" fill="url(#grad_4)" stroke="rgba(0,0,0,0.05)" stroke-width="1"/><circle cx="165.18022656563966" cy="210.53033942299064" r="29.8300575482473" fill="rgba(0,0,0,0.1)" /><circle cx="163.18022656563966" cy="208.53033942299064" r="29.8300575482473" fill="url(#grad_7)" stroke="rgba(0,0,0,0.05)" stroke-width="1"/><circle cx="109.53586348142572" cy="210.5888419336804" r="18.221461253355397" fill="rgba(0,0,0,0.1)" /><circle cx="107.53586348142572" cy="208.5888419336804" r="18.221461253355397" fill="url(#grad_6)" stroke="rgba(0,0,0,0.05)" stroke-width="1"/><circle cx="69.2765057279523" cy="214.24463878110595" r="25.410140461200164" fill="rgba(0,0,0,0.1)" /><circle cx="67.2765057279523" cy="212.24463878110595" r="25.410140461200164" fill="url(#grad_0)" stroke="rgba(0,0,0,0.05)" stroke-width="1"/><circle cx="106.9062281217085" cy="211.49881162663382" r="21.257652343152003" fill="rgba(0,0,0,0.1)" /><circle cx="104.9062281217085" cy="209.49881162663382" r="21.257652343152003" fill="url(#grad_6)" stroke="rgba(0,0,0,0.05)" stroke-width="1"/><circle cx="182.27424625351694" cy="214.55581094776718" r="18.235069851505777" fill="rgba(0,0,0,0.1)" /><circle cx="180.27424625351694" cy="212.55581094776718" r="18.235069851505777" fill="url(#grad_3)" stroke="rgba(0,0,0,0.05)" stroke-width="1"/><circle cx="269.45520077671046" cy="218.9870133019001" r="32.93208663921423" fill="rgba(0,0,0,0.1)" /><circle cx="267.45520077671046" cy="216.9870133019001" r="32.93208663921423" fill="url(#grad_0)" stroke="rgba(0,0,0,0.05)" stroke-width="1"/><circle cx="223.23939980659696" cy="220.51348211083425" r="19.739706931827396" fill="rgba(0,0,0,0.1)" /><circle cx="221.23939980659696" cy="218.51348211083425" r="19.739706931827396" fill="url(#grad_2)" stroke="rgba(0,0,0,0.05)" stroke-width="1"/><circle cx="357.33849384970983" cy="219.33955660514795" r="18.19605783329662" fill="rgba(0,0,0,0.1)" /><circle cx="355.33849384970983" cy="217.33955660514795" r="18.19605783329662" fill="url(#grad_1)" stroke="rgba(0,0,0,0.05)" stroke-width="1"/><circle cx="82.94856313983135" cy="217.45496838355456" r="23.00088925734643" fill="rgba(0,0,0,0.1)" /><circle cx="80.94856313983135" cy="215.45496838355456" r="23.00088925734643" fill="url(#grad_0)" stroke="rgba(0,0,0,0.05)" stroke-width="1"/><circle cx="56.04222756052458" cy="223.21657088431587" r="31.812132697913807" fill="rgba(0,0,0,0.1)" /><circle cx="54.04222756052458" cy="221.21657088431587" r="31.812132697913807" fill="url(#grad_6)" stroke="rgba(0,0,0,0.05)" stroke-width="1"/><circle cx="100.47429644770992" cy="225.80998738288164" r="22.662921382451323" fill="rgba(0,0,0,0.1)" /><circle cx="98.47429644770992" cy="223.80998738288164" r="22.662921382451323" fill="url(#grad_7)" stroke="rgba(0,0,0,0.05)" stroke-width="1"/><circle cx="268.46975400772305" cy="225.73108449164363" r="18.960707159388605" fill="rgba(0,0,0,0.1)" /><circle cx="266.46975400772305" cy="223.73108449164363" r="18.960707159388605" fill="url(#grad_4)" stroke="rgba(0,0,0,0.05)" stroke-width="1"/><circle cx="223.6784134650996" cy="220.78283958981086" r="28.31096602245647" fill="rgba(0,0,0,0.1)" /><circle cx="221.6784134650996" cy="218.78283958981086" r="28.31096602245647" fill="url(#grad_4)" stroke="rgba(0,0,0,0.05)" stroke-width="1"/><circle cx="219.8509193944845" cy="225.44153935806486" r="23.686781768869807" fill="rgba(0,0,0,0.1)" /><circle cx="217.8509193944845" cy="223.44153935806486" r="23.686781768869807" fill="url(#grad_1)" stroke="rgba(0,0,0,0.05)" stroke-width="1"/><circle cx="362.3167183353516" cy="224.03964306295546" r="31.68153699226896" fill="rgba(0,0,0,0.1)" /><circle cx="360.3167183353516" cy="222.03964306295546" r="31.68153699226896" fill="url(#grad_5)" stroke="rgba(0,0,0,0.05)" stroke-width="1"/><circle cx="326.68002486149146" cy="225.56123448640014" r="18.94510075654605" fill="rgba(0,0,0,0.1)" /><circle cx="324.68002486149146" cy="223.56123448640014" r="18.94510075654605" fill="url(#grad_6)" stroke="rgba(0,0,0,0.05)" stroke-width="1"/><circle cx="237.61639635358344" cy="232.3991967281313" r="19.983584094446353" fill="rgba(0,0,0,0.1)" /><circle cx="235.61639635358344" cy="230.3991967281313" r="19.983584094446353" fill="url(#grad_1)" stroke="rgba(0,0,0,0.05)" stroke-width="1"/><circle cx="94.57163931008671" cy="227.4044732999905" r="23.65905056163021" fill="rgba(0,0,0,0.1)" /><circle cx="92.57163931008671" cy="225.4044732999905" r="23.65905056163021" fill="url(#grad_1)" stroke="rgba(0,0,0,0.05)" stroke-width="1"/><circle cx="160.8004847323409" cy="235.46334778600516" r="22.756867084761062" fill="rgba(0,0,0,0.1)" /><circle cx="158.8004847323409" cy="233.46334778600516" r="22.756867084761062" fill="url(#grad_0)" stroke="rgba(0,0,0,0.05)" stroke-width="1"/><circle cx="362.11235792343587" cy="236.73172860689232" r="27.026172007652846" fill="rgba(0,0,0,0.1)" /><circle cx="360.11235792343587" cy="234.73172860689232" r="27.026172007652846" fill="url(#grad_4)" stroke="rgba(0,0,0,0.05)" stroke-width="1"/><circle cx="156.88915726946757" cy="231.365761942982" r="29.34920756246165" fill="rgba(0,0,0,0.1)" /><circle cx="154.88915726946757" cy="229.365761942982" r="29.34920756246165" fill="url(#grad_1)" stroke="rgba(0,0,0,0.05)" stroke-width="1"/><circle cx="313.1694154293018" cy="238.31088605334747" r="32.755723255543096" fill="rgba(0,0,0,0.1)" /><circle cx="311.1694154293018" cy="236.31088605334747" r="32.755723255543096" fill="url(#grad_5)" stroke="rgba(0,0,0,0.05)" stroke-width="1"/><circle cx="376.9232364846522" cy="230.81464648453652" r="21.86181618371269" fill="rgba(0,0,0,0.1)" /><circle cx="374.9232364846522" cy="228.81464648453652" r="21.86181618371269" fill="url(#grad_0)" stroke="rgba(0,0,0,0.05)" stroke-width="1"/><circle cx="245.7359171129144" cy="236.79025147931745" r="26.658016465059298" fill="rgba(0,0,0,0.1)" /><circle cx="243.7359171129144" cy="234.79025147931745" r="26.658016465059298" fill="url(#grad_6)" stroke="rgba(0,0,0,0.05)" stroke-width="1"/><circle cx="127.29476233863059" cy="231.54480475935537" r="16.461448624336402" fill="rgba(0,0,0,0.1)" /><circle cx="125.29476233863059" cy="229.54480475935537" r="16.461448624336402" fill="url(#grad_3)" stroke="rgba(0,0,0,0.05)" stroke-width="1"/><circle cx="117.3737092934402" cy="236.38680095561006" r="19.55886279096036" fill="rgba(0,0,0,0.1)" /><circle cx="115.3737092934402" cy="234.38680095561006" r="19.55886279096036" fill="url(#grad_0)" stroke="rgba(0,0,0,0.05)" stroke-width="1"/><circle cx="356.8242282836465" cy="235.7135586701866" r="30.169817979368116" fill="rgba(0,0,0,0.1)" /><circle cx="354.8242282836465" cy="233.7135586701866" r="30.169817979368116" fill="url(#grad_3)" stroke="rgba(0,0,0,0.05)" stroke-width="1"/><circle cx="253.29272611755007" cy="235.90566229887074" r="17.434767280177578" fill="rgba(0,0,0,0.1)" /><circle cx="251.29272611755007" cy="233.90566229887074" r="17.434767280177578" fill="url(#grad_9)" stroke="rgba(0,0,0,0.05)" stroke-width="1"/><circle cx="157.27927664843207" cy="240.26765781018202" r="24.374041220787845" fill="rgba(0,0,0,0.1)" /><circle cx="155.27927664843207" cy="238.26765781018202" r="24.374041220787845" fill="url(#grad_1)" stroke="rgba(0,0,0,0.05)" stroke-width="1"/><circle cx="302.4357401858054" cy="237.76487634333665" r="20.214704499906023" fill="rgba(0,0,0,0.1)" /><circle cx="300.4357401858054" cy="235.76487634333665" r="20.214704499906023" fill="url(#grad_7)" stroke="rgba(0,0,0,0.05)" stroke-width="1"/><circle cx="69.20007580142197" cy="244.25871180562413" r="26.659482280404387" fill="rgba(0,0,0,0.1)" /><circle cx="67.20007580142197" cy="242.25871180562413" r="26.659482280404387" fill="url(#grad_1)" stroke="rgba(0,0,0,0.05)" stroke-width="1"/><circle cx="290.32858054126325" cy="241.29130841129015" r="27.75463181935145" fill="rgba(0,0,0,0.1)" /><circle cx="288.32858054126325" cy="239.29130841129015" r="27.75463181935145" fill="url(#grad_6)" stroke="rgba(0,0,0,0.05)" stroke-width="1"/><circle cx="88.7744871023184" cy="244.2245445927391" r="29.86264072428648" fill="rgba(0,0,0,0.1)" /><circle cx="86.7744871023184" cy="242.2245445927391" r="29.86264072428648" fill="url(#grad_3)" stroke="rgba(0,0,0,0.05)" stroke-width="1"/><circle cx="51.25377637888953" cy="238.86172346524253" r="30.094501699863503" fill="rgba(0,0,0,0.1)" /><circle cx="49.25377637888953" cy="236.86172346524253" r="30.094501699863503" fill="url(#grad_5)" stroke="rgba(0,0,0,0.05)" stroke-width="1"/><circle cx="251.49394274244065" cy="242.49281549985267" r="31.358996397431373" fill="rgba(0,0,0,0.1)" /><circle cx="249.49394274244065" cy="240.49281549985267" r="31.358996397431373" fill="url(#grad_6)" stroke="rgba(0,0,0,0.05)" stroke-width="1"/><circle cx="61.075338590146984" cy="242.5452365710766" r="27.943825793222757" fill="rgba(0,0,0,0.1)" /><circle cx="59.075338590146984" cy="240.5452365710766" r="27.943825793222757" fill="url(#grad_5)" stroke="rgba(0,0,0,0.05)" stroke-width="1"/><circle cx="26.370184757070096" cy="245.07810089350875" r="15.338109483331262" fill="rgba(0,0,0,0.1)" /><circle cx="24.370184757070096" cy="243.07810089350875" r="15.338109483331262" fill="url(#grad_6)" stroke="rgba(0,0,0,0.05)" stroke-width="1"/><circle cx="191.9643487337596" cy="249.0934741474091" r="26.87636991118956" fill="rgba(0,0,0,0.1)" /><circle cx="189.9643487337596" cy="247.0934741474091" r="26.87636991118956" fill="url(#grad_0)" stroke="rgba(0,0,0,0.05)" stroke-width="1"/><circle cx="379.6035788803241" cy="246.06532310630442" r="18.337311519959233" fill="rgba(0,0,0,0.1)" /><circle cx="377.6035788803241" cy="244.06532310630442" r="18.337311519959233" fill="url(#grad_0)" stroke="rgba(0,0,0,0.05)" stroke-width="1"/><circle cx="323.9889396076508" cy="245.7557064790051" r="22.974155630310424" fill="rgba(0,0,0,0.1)" /><circle cx="321.9889396076508" cy="243.7557064790051" r="22.974155630310424" fill="url(#grad_5)" stroke="rgba(0,0,0,0.05)" stroke-width="1"/><circle cx="179.4945884471924" cy="245.907409723547" r="19.4155709298089" fill="rgba(0,0,0,0.1)" /><circle cx="177.4945884471924" cy="243.907409723547" r="19.4155709298089" fill="url(#grad_5)" stroke="rgba(0,0,0,0.05)" stroke-width="1"/><circle cx="312.8466982715395" cy="246.39399858890678" r="24.760484487584478" fill="rgba(0,0,0,0.1)" /><circle cx="310.8466982715395" cy="244.39399858890678" r="24.760484487584478" fill="url(#grad_6)" stroke="rgba(0,0,0,0.05)" stroke-width="1"/><circle cx="163.11074590206798" cy="246.3621380705618" r="19.225843404369677" fill="rgba(0,0,0,0.1)" /><circle cx="161.11074590206798" cy="244.3621380705618" r="19.225843404369677" fill="url(#grad_9)" stroke="rgba(0,0,0,0.05)" stroke-width="1"/><circle cx="176.35562103341485" cy="253.1342799283655" r="27.12133476259583" fill="rgba(0,0,0,0.1)" /><circle cx="174.35562103341485" cy="251.1342799283655" r="27.12133476259583" fill="url(#grad_9)" stroke="rgba(0,0,0,0.05)" stroke-width="1"/><circle cx="348.21513845341786" cy="249.86463627312511" r="30.090826641429636" fill="rgba(0,0,0,0.1)" /><circle cx="346.21513845341786" cy="247.86463627312511" r="30.090826641429636" fill="url(#grad_7)" stroke="rgba(0,0,0,0.05)" stroke-width="1"/><circle cx="262.0133922684739" cy="252.54436318168428" r="20.546931293089997" fill="rgba(0,0,0,0.1)" /><circle cx="260.0133922684739" cy="250.54436318168428" r="20.546931293089997" fill="url(#grad_5)" stroke="rgba(0,0,0,0.05)" stroke-width="1"/><circle cx="239.69648198619376" cy="256.81514939342304" r="28.033282417955455" fill="rgba(0,0,0,0.1)" /><circle cx="237.69648198619376" cy="254.81514939342304" r="28.033282417955455" fill="url(#grad_8)" stroke="rgba(0,0,0,0.05)" stroke-width="1"/><circle cx="213.07718170814408" cy="256.15555729377627" r="26.221989577337336" fill="rgba(0,0,0,0.1)" /><circle cx="211.07718170814408" cy="254.1555572937763" r="26.221989577337336" fill="url(#grad_4)" stroke="rgba(0,0,0,0.05)" stroke-width="1"/><circle cx="220.10561037996462" cy="256.4292573669299" r="26.483334348369986" fill="rgba(0,0,0,0.1)" /><circle cx="218.10561037996462" cy="254.4292573669299" r="26.483334348369986" fill="url(#grad_5)" stroke="rgba(0,0,0,0.05)" stroke-width="1"/><circle cx="332.6890987080536" cy="263.39449264398655" r="31.731295205498895" fill="rgba(0,0,0,0.1)" /><circle cx="330.6890987080536" cy="261.39449264398655" r="31.731295205498895" fill="url(#grad_2)" stroke="rgba(0,0,0,0.05)" stroke-width="1"/><circle cx="169.31805182928176" cy="258.719352166369" r="18.580170631653594" fill="rgba(0,0,0,0.1)" /><circle cx="167.31805182928176" cy="256.719352166369" r="18.580170631653594" fill="url(#grad_9)" stroke="rgba(0,0,0,0.05)" stroke-width="1"/><circle cx="292.50275838262604" cy="259.0203642430574" r="34.33375094746326" fill="rgba(0,0,0,0.1)" /><circle cx="290.50275838262604" cy="257.0203642430574" r="34.33375094746326" fill="url(#grad_9)" stroke="rgba(0,0,0,0.05)" stroke-width="1"/><circle cx="101.25952820243289" cy="265.79701388881887" r="33.14589885029942" fill="rgba(0,0,0,0.1)" /><circle cx="99.25952820243289" cy="263.79701388881887" r="33.14589885029942" fill="url(#grad_0)" stroke="rgba(0,0,0,0.05)" stroke-width="1"/><circle cx="312.51655999067765" cy="265.9052933999074" r="33.05369014051841" fill="rgba(0,0,0,0.1)" /><circle cx="310.51655999067765" cy="263.9052933999074" r="33.05369014051841" fill="url(#grad_1)" stroke="rgba(0,0,0,0.05)" stroke-width="1"/><circle cx="166.04447526943136" cy="263.097634689006" r="31.57290922573653" fill="rgba(0,0,0,0.1)" /><circle cx="164.04447526943136" cy="261.097634689006" r="31.57290922573653" fill="url(#grad_6)" stroke="rgba(0,0,0,0.05)" stroke-width="1"/><circle cx="136.8223542448114" cy="266.69678022705136" r="28.5857984632002" fill="rgba(0,0,0,0.1)" /><circle cx="134.8223542448114" cy="264.69678022705136" r="28.5857984632002" fill="url(#grad_9)" stroke="rgba(0,0,0,0.05)" stroke-width="1"/><circle cx="299.1467634899346" cy="261.50177954791565" r="32.86457831490158" fill="rgba(0,0,0,0.1)" /><circle cx="297.1467634899346" cy="259.50177954791565" r="32.86457831490158" fill="url(#grad_7)" stroke="rgba(0,0,0,0.05)" stroke-width="1"/><circle cx="334.95931324233885" cy="260.97893743811323" r="32.11037329258279" fill="rgba(0,0,0,0.1)" /><circle cx="332.95931324233885" cy="258.97893743811323" r="32.11037329258279" fill="url(#grad_4)" stroke="rgba(0,0,0,0.05)" stroke-width="1"/><circle cx="120.62431312275132" cy="268.3761101060113" r="27.33908512783838" fill="rgba(0,0,0,0.1)" /><circle cx="118.62431312275132" cy="266.3761101060113" r="27.33908512783838" fill="url(#grad_8)" stroke="rgba(0,0,0,0.05)" stroke-width="1"/><circle cx="144.14459653644064" cy="269.67826844539275" r="20.541443154978595" fill="rgba(0,0,0,0.1)" /><circle cx="142.14459653644064" cy="267.67826844539275" r="20.541443154978595" fill="url(#grad_0)" stroke="rgba(0,0,0,0.05)" stroke-width="1"/><circle cx="323.88946403733405" cy="272.63686835277525" r="23.74701958003193" fill="rgba(0,0,0,0.1)" /><circle cx="321.88946403733405" cy="270.63686835277525" r="23.74701958003193" fill="url(#grad_2)" stroke="rgba(0,0,0,0.05)" stroke-width="1"/><circle cx="277.3210693636706" cy="266.2542004587134" r="23.711916870696573" fill="rgba(0,0,0,0.1)" /><circle cx="275.3210693636706" cy="264.2542004587134" r="23.711916870696573" fill="url(#grad_4)" stroke="rgba(0,0,0,0.05)" stroke-width="1"/><circle cx="174.7643817611308" cy="268.25331953239686" r="22.261652325208235" fill="rgba(0,0,0,0.1)" /><circle cx="172.7643817611308" cy="266.25331953239686" r="22.261652325208235" fill="url(#grad_3)" stroke="rgba(0,0,0,0.05)" stroke-width="1"/><circle cx="200.96118991015146" cy="271.91452126329074" r="26.169165392920128" fill="rgba(0,0,0,0.1)" /><circle cx="198.96118991015146" cy="269.91452126329074" r="26.169165392920128" fill="url(#grad_0)" stroke="rgba(0,0,0,0.05)" stroke-width="1"/><circle cx="90.03305138014154" cy="274.6116496734353" r="26.402747766803557" fill="rgba(0,0,0,0.1)" /><circle cx="88.03305138014154" cy="272.6116496734353" r="26.402747766803557" fill="url(#grad_3)" stroke="rgba(0,0,0,0.05)" stroke-width="1"/><circle cx="275.8545385253193" cy="272.06591577900485" r="26.368336553383955" fill="rgba(0,0,0,0.1)" /><circle cx="273.8545385253193" cy="270.06591577900485" r="26.368336553383955" fill="url(#grad_3)" stroke="rgba(0,0,0,0.05)" stroke-width="1"/><circle cx="200.80116619858381" cy="271.46101650297896" r="29.71177461206534" fill="rgba(0,0,0,0.1)" /><circle cx="198.80116619858381" cy="269.46101650297896" r="29.71177461206534" fill="url(#grad_0)" stroke="rgba(0,0,0,0.05)" stroke-width="1"/><circle cx="347.0333376393807" cy="274.7659181264137" r="16.05608937923926" fill="rgba(0,0,0,0.1)" /><circle cx="345.0333376393807" cy="272.7659181264137" r="16.05608937923926" fill="url(#grad_2)" stroke="rgba(0,0,0,0.05)" stroke-width="1"/><circle cx="334.79834262922964" cy="275.55433740811645" r="22.03303118235625" fill="rgba(0,0,0,0.1)" /><circle cx="332.79834262922964" cy="273.55433740811645" r="22.03303118235625" fill="url(#grad_4)" stroke="rgba(0,0,0,0.05)" stroke-width="1"/><circle cx="54.47021495967765" cy="285.2463866193609" r="15.21954054782035" fill="rgba(0,0,0,0.1)" /><circle cx="52.47021495967765" cy="283.2463866193609" r="15.21954054782035" fill="url(#grad_0)" stroke="rgba(0,0,0,0.05)" stroke-width="1"/><circle cx="165.41009816238122" cy="280.06305255764033" r="16.714411042007264" fill="rgba(0,0,0,0.1)" /><circle cx="163.41009816238122" cy="278.06305255764033" r="16.714411042007264" fill="url(#grad_5)" stroke="rgba(0,0,0,0.05)" stroke-width="1"/></svg>