<svg width="400" height="300" viewBox="0 0 400 300" xmlns="http://www.w3.org/2000/svg"><rect width="100%" height="100%" fill="#f8f9fa"/><defs>
            <radialGradient id="grad_0" cx="30%" cy="30%" r="70%" fx="30%" fy="30%">
                <stop offset="0%" style="stop-color:#ffffff;stop-opacity:0.9" />
                <stop offset="20%" style="stop-color:#ffffff;stop-opacity:1" />
                <stop offset="100%" style="stop-color:#e5e5e5;stop-opacity:0.6" />
            </radialGradient>
            
            <radialGradient id="grad_1" cx="30%" cy="30%" r="70%" fx="30%" fy="30%">
                <stop offset="0%" style="stop-color:#ffffff;stop-opacity:0.9" />
                <stop offset="20%" style="stop-color:#fcfcfc;stop-opacity:1" />
                <stop offset="100%" style="stop-color:#e5e5e5;stop-opacity:0.6" />
            </radialGradient>
            
            <radialGradient id="grad_2" cx="30%" cy="30%" r="70%" fx="30%" fy="30%">
                <stop offset="0%" style="stop-color:#ffffff;stop-opacity:0.9" />
                <stop offset="20%" style="stop-color:#fafafa;stop-opacity:1" />
                <stop offset="100%" style="stop-color:#e5e5e5;stop-opacity:0.6" />
            </radialGradient>
            
            <radialGradient id="grad_3" cx="30%" cy="30%" r="70%" fx="30%" fy="30%">
                <stop offset="0%" style="stop-color:#ffffff;stop-opacity:0.9" />
                <stop offset="20%" style="stop-color:#f4f4f4;stop-opacity:1" />
                <stop offset="100%" style="stop-color:#e5e5e5;stop-opacity:0.6" />
            </radialGradient>
            
            <radialGradient id="grad_4" cx="30%" cy="30%" r="70%" fx="30%" fy="30%">
                <stop offset="0%" style="stop-color:#ffffff;stop-opacity:0.9" />
                <stop offset="20%" style="stop-color:#f1f1f1;stop-opacity:1" />
                <stop offset="100%" style="stop-color:#e5e5e5;stop-opacity:0.6" />
            </radialGradient>
            
            <radialGradient id="grad_5" cx="30%" cy="30%" r="70%" fx="30%" fy="30%">
                <stop offset="0%" style="stop-color:#ffffff;stop-opacity:0.9" />
                <stop offset="20%" style="stop-color:#eeeeee;stop-opacity:1" />
                <stop offset="100%" style="stop-color:#e5e5e5;stop-opacity:0.6" />
            </radialGradient>
            
            <radialGradient id="grad_6" cx="30%" cy="30%" r="70%" fx="30%" fy="30%">
                <stop offset="0%" style="stop-color:#ffffff;stop-opacity:0.9" />
                <stop offset="20%" style="stop-color:#eaeaea;stop-opacity:1" />
                <stop offset="100%" style="stop-color:#e5e5e5;stop-opacity:0.6" />
            </radialGradient>
            
            <radialGradient id="grad_7" cx="30%" cy="30%" r="70%" fx="30%" fy="30%">
                <stop offset="0%" style="stop-color:#ffffff;stop-opacity:0.9" />
                <stop offset="20%" style="stop-color:#eaeaea;stop-opacity:1" />
                <stop offset="100%" style="stop-color:#e5e5e5;stop-opacity:0.6" />
            </radialGradient>
            
            <radialGradient id="grad_8" cx="30%" cy="30%" r="70%" fx="30%" fy="30%">
                <stop offset="0%" style="stop-color:#ffffff;stop-opacity:0.9" />
                <stop offset="20%" style="stop-color:#e7e7e7;stop-opacity:1" />
                <stop offset="100%" style="stop-color:#e5e5e5;stop-opacity:0.6" />
            </radialGradient>
            
            <radialGradient id="grad_9" cx="30%" cy="30%" r="70%" fx="30%" fy="30%">
                <stop offset="0%" style="stop-color:#ffffff;stop-opacity:0.9" />
                <stop offset="20%" style="stop-color:#e4e4e4;stop-opacity:1" />
                <stop offset="100%" style="stop-color:#e5e5e5;stop-opacity:0.6" />
            </radialGradient>
            </defs><circle cx="48.81117518068141" cy="25.489260638073972" r="17.344700823967486" fill="rgba(0,0,0,0.1)" /><circle cx="46.81117518068141" cy="23.489260638073972" r="17.344700823967486" fill="url(#grad_7)" stroke="rgba(0,0,0,0.05)" stroke-width="1"/><circle cx="364.4091553857281" cy="27.608649718309668" r="22.10538631390599" fill="rgba(0,0,0,0.1)" /><circle cx="362.4091553857281" cy="25.608649718309668" r="22.10538631390599" fill="url(#grad_3)" stroke="rgba(0,0,0,0.05)" stroke-width="1"/><circle cx="125.28996341623501" cy="30.45834217020166" r="24.683616244190905" fill="rgba(0,0,0,0.1)" /><circle cx="123.28996341623501" cy="28.45834217020166" r="24.683616244190905" fill="url(#grad_0)" stroke="rgba(0,0,0,0.05)" stroke-width="1"/><circle cx="66.99114626647483" cy="22.502002684760736" r="15.555206969821436" fill="rgba(0,0,0,0.1)" /><circle cx="64.99114626647483" cy="20.502002684760736" r="15.555206969821436" fill="url(#grad_1)" stroke="rgba(0,0,0,0.05)" stroke-width="1"/><circle cx="188.51512884597096" cy="33.16425856513987" r="16.31062719552663" fill="rgba(0,0,0,0.1)" /><circle cx="186.51512884597096" cy="31.164258565139868" r="16.31062719552663" fill="url(#grad_9)" stroke="rgba(0,0,0,0.05)" stroke-width="1"/><circle cx="85.46458237520122" cy="24.319159083154187" r="21.116929009700698" fill="rgba(0,0,0,0.1)" /><circle cx="83.46458237520122" cy="22.319159083154187" r="21.116929009700698" fill="url(#grad_3)" stroke="rgba(0,0,0,0.05)" stroke-width="1"/><circle cx="252.92579689890815" cy="30.810263385320784" r="20.221706866280687" fill="rgba(0,0,0,0.1)" /><circle cx="250.92579689890815" cy="28.810263385320784" r="20.221706866280687" fill="url(#grad_3)" stroke="rgba(0,0,0,0.05)" stroke-width="1"/><circle cx="91.28757661510095" cy="34.187379699697175" r="21.246693077298193" fill="rgba(0,0,0,0.1)" /><circle cx="89.28757661510095" cy="32.187379699697175" r="21.246693077298193" fill="url(#grad_8)" stroke="rgba(0,0,0,0.05)" stroke-width="1"/><circle cx="157.4302248637706" cy="37.5220072493354" r="21.790791413673332" fill="rgba(0,0,0,0.1)" /><circle cx="155.4302248637706" cy="35.5220072493354" r="21.790791413673332" fill="url(#grad_8)" stroke="rgba(0,0,0,0.05)" stroke-width="1"/><circle cx="314.88597842304847" cy="35.9260814637637" r="15.084395881449462" fill="rgba(0,0,0,0.1)" /><circle cx="312.88597842304847" cy="33.9260814637637" r="15.084395881449462" fill="url(#grad_0)" stroke="rgba(0,0,0,0.05)" stroke-width="1"/><circle cx="101.74091966863044" cy="39.49861749035188" r="25.172299658981576" fill="rgba(0,0,0,0.1)" /><circle cx="99.74091966863044" cy="37.49861749035188" r="25.172299658981576" fill="url(#grad_5)" stroke="rgba(0,0,0,0.05)" stroke-width="1"/><circle cx="254.63819571312618" cy="38.891141188931286" r="15.43509184090202" fill="rgba(0,0,0,0.1)" /><circle cx="252.63819571312618" cy="36.891141188931286" r="15.43509184090202" fill="url(#grad_9)" stroke="rgba(0,0,0,0.05)" stroke-width="1"/><circle cx="334.6761843392036" cy="32.23652697502381" r="18.046358716272437" fill="rgba(0,0,0,0.1)" /><circle cx="332.6761843392036" cy="30.236526975023807" r="18.046358716272437" fill="url(#grad_1)" stroke="rgba(0,0,0,0.05)" stroke-width="1"/><circle cx="139.87368251777244" cy="39.38469675012728" r="16.594631146356587" fill="rgba(0,0,0,0.1)" /><circle cx="137.87368251777244" cy="37.38469675012728" r="16.594631146356587" fill="url(#grad_5)" stroke="rgba(0,0,0,0.05)" stroke-width="1"/><circle cx="101.63307067607761" cy="38.61042588449009" r="34.02689093192122" fill="rgba(0,0,0,0.1)" /><circle cx="99.63307067607761" cy="36.61042588449009" r="34.02689093192122" fill="url(#grad_6)" stroke="rgba(0,0,0,0.05)" stroke-width="1"/><circle cx="242.46898956413634" cy="35.48843017712433" r="15.623024886723327" fill="rgba(0,0,0,0.1)" /><circle cx="240.46898956413634" cy="33.48843017712433" r="15.623024886723327" fill="url(#grad_3)" stroke="rgba(0,0,0,0.05)" stroke-width="1"/><circle cx="306.89762033463995" cy="40.20979413078807" r="27.26332345723091" fill="rgba(0,0,0,0.1)" /><circle cx="304.89762033463995" cy="38.20979413078807" r="27.26332345723091" fill="url(#grad_9)" stroke="rgba(0,0,0,0.05)" stroke-width="1"/><circle cx="113.13542599942498" cy="39.783326177109146" r="29.184756094511386" fill="rgba(0,0,0,0.1)" /><circle cx="111.13542599942498" cy="37.783326177109146" r="29.184756094511386" fill="url(#grad_3)" stroke="rgba(0,0,0,0.05)" stroke-width="1"/><circle cx="295.2577167563552" cy="41.98695510103532" r="23.329270311650347" fill="rgba(0,0,0,0.1)" /><circle cx="293.2577167563552" cy="39.98695510103532" r="23.329270311650347" fill="url(#grad_8)" stroke="rgba(0,0,0,0.05)" stroke-width="1"/><circle cx="166.22366094659634" cy="42.47750492965471" r="19.25196217081662" fill="rgba(0,0,0,0.1)" /><circle cx="164.22366094659634" cy="40.47750492965471" r="19.25196217081662" fill="url(#grad_8)" stroke="rgba(0,0,0,0.05)" stroke-width="1"/><circle cx="183.2098140014807" cy="48.717690968245414" r="33.69261054564244" fill="rgba(0,0,0,0.1)" /><circle cx="181.2098140014807" cy="46.717690968245414" r="33.69261054564244" fill="url(#grad_1)" stroke="rgba(0,0,0,0.05)" stroke-width="1"/><circle cx="322.98435017271794" cy="49.71264542482494" r="19.95414815369353" fill="rgba(0,0,0,0.1)" /><circle cx="320.98435017271794" cy="47.71264542482494" r="19.95414815369353" fill="url(#grad_0)" stroke="rgba(0,0,0,0.05)" stroke-width="1"/><circle cx="358.495624799736" cy="48.77178805805653" r="17.27016403433764" fill="rgba(0,0,0,0.1)" /><circle cx="356.495624799736" cy="46.77178805805653" r="17.27016403433764" fill="url(#grad_2)" stroke="rgba(0,0,0,0.05)" stroke-width="1"/><circle cx="243.0257754799397" cy="54.27631026761843" r="23.4685174873937" fill="rgba(0,0,0,0.1)" /><circle cx="241.0257754799397" cy="52.27631026761843" r="23.4685174873937" fill="url(#grad_5)" stroke="rgba(0,0,0,0.05)" stroke-width="1"/><circle cx="125.10321002880742" cy="46.606256486484554" r="16.931715625422697" fill="rgba(0,0,0,0.1)" /><circle cx="123.10321002880742" cy="44.606256486484554" r="16.931715625422697" fill="url(#grad_9)" stroke="rgba(0,0,0,0.05)" stroke-width="1"/><circle cx="231.99118113770885" cy="54.16012535539396" r="21.571894454695265" fill="rgba(0,0,0,0.1)" /><circle cx="229.99118113770885" cy="52.16012535539396" r="21.571894454695265" fill="url(#grad_8)" stroke="rgba(0,0,0,0.05)" stroke-width="1"/><circle cx="278.842543402697" cy="48.236146149610704" r="30.539823268834976" fill="rgba(0,0,0,0.1)" /><circle cx="276.842543402697" cy="46.236146149610704" r="30.539823268834976" fill="url(#grad_7)" stroke="rgba(0,0,0,0.05)" stroke-width="1"/><circle cx="132.30862310728622" cy="53.87779714993983" r="17.069110548385524" fill="rgba(0,0,0,0.1)" /><circle cx="130.30862310728622" cy="51.87779714993983" r="17.069110548385524" fill="url(#grad_9)" stroke="rgba(0,0,0,0.05)" stroke-width="1"/><circle cx="89.6076472837061" cy="56.64499675767243" r="33.37411071436587" fill="rgba(0,0,0,0.1)" /><circle cx="87.6076472837061" cy="54.64499675767243" r="33.37411071436587" fill="url(#grad_6)" stroke="rgba(0,0,0,0.05)" stroke-width="1"/><circle cx="51.07204771930368" cy="59.1081717485246" r="23.400233062744128" fill="rgba(0,0,0,0.1)" /><circle cx="49.07204771930368" cy="57.1081717485246" r="23.400233062744128" fill="url(#grad_5)" stroke="rgba(0,0,0,0.05)" stroke-width="1"/><circle cx="185.29718618591966" cy="59.56728987109734" r="28.115869232203206" fill="rgba(0,0,0,0.1)" /><circle cx="183.29718618591966" cy="57.56728987109734" r="28.115869232203206" fill="url(#grad_4)" stroke="rgba(0,0,0,0.05)" stroke-width="1"/><circle cx="241.61343713945718" cy="59.54261599684507" r="28.0646992226897" fill="rgba(0,0,0,0.1)" /><circle cx="239.61343713945718" cy="57.54261599684507" r="28.0646992226897" fill="url(#grad_9)" stroke="rgba(0,0,0,0.05)" stroke-width="1"/><circle cx="75.94067475936792" cy="61.5026579716508" r="18.135192299964316" fill="rgba(0,0,0,0.1)" /><circle cx="73.94067475936792" cy="59.5026579716508" r="18.135192299964316" fill="url(#grad_5)" stroke="rgba(0,0,0,0.05)" stroke-width="1"/><circle cx="71.9747659240156" cy="60.52673081105782" r="33.30257392525148" fill="rgba(0,0,0,0.1)" /><circle cx="69.9747659240156" cy="58.52673081105782" r="33.30257392525148" fill="url(#grad_9)" stroke="rgba(0,0,0,0.05)" stroke-width="1"/><circle cx="210.4746813581863" cy="64.51981724173174" r="28.96369639581338" fill="rgba(0,0,0,0.1)" /><circle cx="208.4746813581863" cy="62.519817241731744" r="28.96369639581338" fill="url(#grad_3)" stroke="rgba(0,0,0,0.05)" stroke-width="1"/><circle cx="371.63783135472187" cy="60.21583313543949" r="17.756526609986892" fill="rgba(0,0,0,0.1)" /><circle cx="369.63783135472187" cy="58.21583313543949" r="17.756526609986892" fill="url(#grad_0)" stroke="rgba(0,0,0,0.05)" stroke-width="1"/><circle cx="90.53560458636797" cy="64.48059179972088" r="30.897275028131926" fill="rgba(0,0,0,0.1)" /><circle cx="88.53560458636797" cy="62.48059179972089" r="30.897275028131926" fill="url(#grad_3)" stroke="rgba(0,0,0,0.05)" stroke-width="1"/><circle cx="286.9973083407155" cy="70.55615976406051" r="28.90790160254774" fill="rgba(0,0,0,0.1)" /><circle cx="284.9973083407155" cy="68.55615976406051" r="28.90790160254774" fill="url(#grad_0)" stroke="rgba(0,0,0,0.05)" stroke-width="1"/><circle cx="115.50304095000172" cy="68.11130400044485" r="25.13155600513148" fill="rgba(0,0,0,0.1)" /><circle cx="113.50304095000172" cy="66.11130400044485" r="25.13155600513148" fill="url(#grad_6)" stroke="rgba(0,0,0,0.05)" stroke-width="1"/><circle cx="339.49073730366973" cy="72.20720667716535" r="26.800709545714053" fill="rgba(0,0,0,0.1)" /><circle cx="337.49073730366973" cy="70.20720667716535" r="26.800709545714053" fill="url(#grad_5)" stroke="rgba(0,0,0,0.05)" stroke-width="1"/><circle cx="79.28399813057416" cy="70.24205852540052" r="22.316007007052562" fill="rgba(0,0,0,0.1)" /><circle cx="77.28399813057416" cy="68.24205852540052" r="22.316007007052562" fill="url(#grad_8)" stroke="rgba(0,0,0,0.05)" stroke-width="1"/><circle cx="72.71139509211523" cy="76.97050209231398" r="16.271923068278497" fill="rgba(0,0,0,0.1)" /><circle cx="70.71139509211523" cy="74.97050209231398" r="16.271923068278497" fill="url(#grad_5)" stroke="rgba(0,0,0,0.05)" stroke-width="1"/><circle cx="97.65829954701263" cy="76.89813061903531" r="20.285473131029867" fill="rgba(0,0,0,0.1)" /><circle cx="95.65829954701263" cy="74.89813061903531" r="20.285473131029867" fill="url(#grad_2)" stroke="rgba(0,0,0,0.05)" stroke-width="1"/><circle cx="255.2895255706122" cy="80.768995240035" r="28.895470849272208" fill="rgba(0,0,0,0.1)" /><circle cx="253.2895255706122" cy="78.768995240035" r="28.895470849272208" fill="url(#grad_2)" stroke="rgba(0,0,0,0.05)" stroke-width="1"/><circle cx="331.4360347599045" cy="82.60499703323626" r="30.397919582253806" fill="rgba(0,0,0,0.1)" /><circle cx="329.4360347599045" cy="80.60499703323626" r="30.397919582253806" fill="url(#grad_6)" stroke="rgba(0,0,0,0.05)" stroke-width="1"/><circle cx="142.1092358143273" cy="82.59607680187213" r="17.805490748371618" fill="rgba(0,0,0,0.1)" /><circle cx="140.1092358143273" cy="80.59607680187213" r="17.805490748371618" fill="url(#grad_6)" stroke="rgba(0,0,0,0.05)" stroke-width="1"/><circle cx="293.378666624485" cy="79.38984630501416" r="22.260650072943097" fill="rgba(0,0,0,0.1)" /><circle cx="291.378666624485" cy="77.38984630501416" r="22.260650072943097" fill="url(#grad_4)" stroke="rgba(0,0,0,0.05)" stroke-width="1"/><circle cx="231.57081731321315" cy="89.98710037717525" r="22.64545478362366" fill="rgba(0,0,0,0.1)" /><circle cx="229.57081731321315" cy="87.98710037717525" r="22.64545478362366" fill="url(#grad_3)" stroke="rgba(0,0,0,0.05)" stroke-width="1"/><circle cx="107.0417971559852" cy="84.43617340349057" r="30.56908799292216" fill="rgba(0,0,0,0.1)" /><circle cx="105.0417971559852" cy="82.43617340349057" r="30.56908799292216" fill="url(#grad_6)" stroke="rgba(0,0,0,0.05)" stroke-width="1"/><circle cx="156.43409058872592" cy="87.04158417536316" r="15.745330431872844" fill="rgba(0,0,0,0.1)" /><circle cx="154.43409058872592" cy="85.04158417536316" r="15.745330431872844" fill="url(#grad_9)" stroke="rgba(0,0,0,0.05)" stroke-width="1"/><circle cx="228.6577605742091" cy="86.49052510713639" r="24.356830729828665" fill="rgba(0,0,0,0.1)" /><circle cx="226.6577605742091" cy="84.49052510713639" r="24.356830729828665" fill="url(#grad_1)" stroke="rgba(0,0,0,0.05)" stroke-width="1"/><circle cx="284.1733283589641" cy="85.36765808093816" r="32.48435713840723" fill="rgba(0,0,0,0.1)" /><circle cx="282.1733283589641" cy="83.36765808093816" r="32.48435713840723" fill="url(#grad_3)" stroke="rgba(0,0,0,0.05)" stroke-width="1"/><circle cx="107.4678841093201" cy="84.68106525372863" r="31.37081036493615" fill="rgba(0,0,0,0.1)" /><circle cx="105.4678841093201" cy="82.68106525372863" r="31.37081036493615" fill="url(#grad_7)" stroke="rgba(0,0,0,0.05)" stroke-width="1"/><circle cx="167.65788205617417" cy="91.21663837451172" r="33.85788820996876" fill="rgba(0,0,0,0.1)" /><circle cx="165.65788205617417" cy="89.21663837451172" r="33.85788820996876" fill="url(#grad_8)" stroke="rgba(0,0,0,0.05)" stroke-width="1"/><circle cx="338.0071475552178" cy="92.78380701285427" r="26.324995233096402" fill="rgba(0,0,0,0.1)" /><circle cx="336.0071475552178" cy="90.78380701285427" r="26.324995233096402" fill="url(#grad_4)" stroke="rgba(0,0,0,0.05)" stroke-width="1"/><circle cx="46.08833097110051" cy="93.21407079895987" r="32.95130085816296" fill="rgba(0,0,0,0.1)" /><circle cx="44.08833097110051" cy="91.21407079895987" r="32.95130085816296" fill="url(#grad_0)" stroke="rgba(0,0,0,0.05)" stroke-width="1"/><circle cx="243.99118407747034" cy="91.13008347241801" r="24.88735704052495" fill="rgba(0,0,0,0.1)" /><circle cx="241.99118407747034" cy="89.13008347241801" r="24.88735704052495" fill="url(#grad_4)" stroke="rgba(0,0,0,0.05)" stroke-width="1"/><circle cx="144.16007947672819" cy="88.21685901515184" r="19.034943292040285" fill="rgba(0,0,0,0.1)" /><circle cx="142.16007947672819" cy="86.21685901515184" r="19.034943292040285" fill="url(#grad_5)" stroke="rgba(0,0,0,0.05)" stroke-width="1"/><circle cx="160.42573227537534" cy="92.11761880070391" r="33.46076077190414" fill="rgba(0,0,0,0.1)" /><circle cx="158.42573227537534" cy="90.11761880070391" r="33.46076077190414" fill="url(#grad_4)" stroke="rgba(0,0,0,0.05)" stroke-width="1"/><circle cx="335.78644325899637" cy="92.15066795858749" r="30.925159337236728" fill="rgba(0,0,0,0.1)" /><circle cx="333.78644325899637" cy="90.15066795858749" r="30.925159337236728" fill="url(#grad_7)" stroke="rgba(0,0,0,0.05)" stroke-width="1"/><circle cx="316.96597410995633" cy="96.18451769995882" r="20.03231180661842" fill="rgba(0,0,0,0.1)" /><circle cx="314.96597410995633" cy="94.18451769995882" r="20.03231180661842" fill="url(#grad_9)" stroke="rgba(0,0,0,0.05)" stroke-width="1"/><circle cx="380.4142391820283" cy="89.51182936553136" r="19.546419353124058" fill="rgba(0,0,0,0.1)" /><circle cx="378.4142391820283" cy="87.51182936553136" r="19.546419353124058" fill="url(#grad_8)" stroke="rgba(0,0,0,0.05)" stroke-width="1"/><circle cx="66.7279035932753" cy="89.49800941028215" r="22.48634506722737" fill="rgba(0,0,0,0.1)" /><circle cx="64.7279035932753" cy="87.49800941028215" r="22.48634506722737" fill="url(#grad_1)" stroke="rgba(0,0,0,0.05)" stroke-width="1"/><circle cx="168.5550735642812" cy="93.45207163621046" r="32.155192603292356" fill="rgba(0,0,0,0.1)" /><circle cx="166.5550735642812" cy="91.45207163621046" r="32.155192603292356" fill="url(#grad_3)" stroke="rgba(0,0,0,0.05)" stroke-width="1"/><circle cx="343.2954268684887" cy="97.75197507868361" r="25.960348546476215" fill="rgba(0,0,0,0.1)" /><circle cx="341.2954268684887" cy="95.75197507868361" r="25.960348546476215" fill="url(#grad_6)" stroke="rgba(0,0,0,0.05)" stroke-width="1"/><circle cx="92.37557489435511" cy="99.6942399809939" r="19.271009173778587" fill="rgba(0,0,0,0.1)" /><circle cx="90.37557489435511" cy="97.6942399809939" r="19.271009173778587" fill="url(#grad_8)" stroke="rgba(0,0,0,0.05)" stroke-width="1"/><circle cx="218.56702593101812" cy="95.06356518858811" r="34.00044478502677" fill="rgba(0,0,0,0.1)" /><circle cx="216.56702593101812" cy="93.06356518858811" r="34.00044478502677" fill="url(#grad_3)" stroke="rgba(0,0,0,0.05)" stroke-width="1"/><circle cx="40.646826368459124" cy="102.5996471726175" r="23.40879776127767" fill="rgba(0,0,0,0.1)" /><circle cx="38.646826368459124" cy="100.5996471726175" r="23.40879776127767" fill="url(#grad_9)" stroke="rgba(0,0,0,0.05)" stroke-width="1"/><circle cx="184.36974999027714" cy="95.97583885917695" r="22.38109944764684" fill="rgba(0,0,0,0.1)" /><circle cx="182.36974999027714" cy="93.97583885917695" r="22.38109944764684" fill="url(#grad_2)" stroke="rgba(0,0,0,0.05)" stroke-width="1"/><circle cx="207.36157769052653" cy="99.8684412758841" r="18.138304402620335" fill="rgba(0,0,0,0.1)" /><circle cx="205.36157769052653" cy="97.8684412758841" r="18.138304402620335" fill="url(#grad_0)" stroke="rgba(0,0,0,0.05)" stroke-width="1"/><circle cx="263.2756511011441" cy="97.7671509780887" r="30.47572736970192" fill="rgba(0,0,0,0.1)" /><circle cx="261.2756511011441" cy="95.7671509780887" r="30.47572736970192" fill="url(#grad_0)" stroke="rgba(0,0,0,0.05)" stroke-width="1"/><circle cx="94.1762027585767" cy="95.87630653388064" r="17.19681576435534" fill="rgba(0,0,0,0.1)" /><circle cx="92.1762027585767" cy="93.87630653388064" r="17.19681576435534" fill="url(#grad_4)" stroke="rgba(0,0,0,0.05)" stroke-width="1"/><circle cx="133.6460570569744" cy="97.78929672481598" r="15.832354401260751" fill="rgba(0,0,0,0.1)" /><circle cx="131.6460570569744" cy="95.78929672481598" r="15.832354401260751" fill="url(#grad_6)" stroke="rgba(0,0,0,0.05)" stroke-width="1"/><circle cx="221.96029594666058" cy="101.00203192725954" r="23.57214431049085" fill="rgba(0,0,0,0.1)" /><circle cx="219.96029594666058" cy="99.00203192725954" r="23.57214431049085" fill="url(#grad_2)" stroke="rgba(0,0,0,0.05)" stroke-width="1"/><circle cx="337.32505546214173" cy="100.30493965804666" r="33.59430441133445" fill="rgba(0,0,0,0.1)" /><circle cx="335.32505546214173" cy="98.30493965804666" r="33.59430441133445" fill="url(#grad_6)" stroke="rgba(0,0,0,0.05)" stroke-width="1"/><circle cx="119.24721223938754" cy="108.03019827812145" r="20.12492835080351" fill="rgba(0,0,0,0.1)" /><circle cx="117.24721223938754" cy="106.03019827812145" r="20.12492835080351" fill="url(#grad_1)" stroke="rgba(0,0,0,0.05)" stroke-width="1"/><circle cx="46.43874078542014" cy="105.41521336565344" r="25.288604841047025" fill="rgba(0,0,0,0.1)" /><circle cx="44.43874078542014" cy="103.41521336565344" r="25.288604841047025" fill="url(#grad_0)" stroke="rgba(0,0,0,0.05)" stroke-width="1"/><circle cx="373.02985035325264" cy="105.58393338055507" r="18.224942550133" fill="rgba(0,0,0,0.1)" /><circle cx="371.02985035325264" cy="103.58393338055507" r="18.224942550133" fill="url(#grad_9)" stroke="rgba(0,0,0,0.05)" stroke-width="1"/><circle cx="246.86058760423504" cy="106.41856199278452" r="20.74162444464973" fill="rgba(0,0,0,0.1)" /><circle cx="244.86058760423504" cy="104.41856199278452" r="20.74162444464973" fill="url(#grad_8)" stroke="rgba(0,0,0,0.05)" stroke-width="1"/><circle cx="272.17905326095655" cy="104.49894409932804" r="31.44993895202358" fill="rgba(0,0,0,0.1)" /><circle cx="270.17905326095655" cy="102.49894409932804" r="31.44993895202358" fill="url(#grad_3)" stroke="rgba(0,0,0,0.05)" stroke-width="1"/><circle cx="44.9063194343703" cy="105.14233743750759" r="24.484622381871894" fill="rgba(0,0,0,0.1)" /><circle cx="42.9063194343703" cy="103.14233743750759" r="24.484622381871894" fill="url(#grad_7)" stroke="rgba(0,0,0,0.05)" stroke-width="1"/><circle cx="278.2597004115739" cy="114.69020547591393" r="21.86091631680266" fill="rgba(0,0,0,0.1)" /><circle cx="276.2597004115739" cy="112.69020547591393" r="21.86091631680266" fill="url(#grad_0)" stroke="rgba(0,0,0,0.05)" stroke-width="1"/><circle cx="311.7547663882128" cy="108.77508825430922" r="22.73596984743391" fill="rgba(0,0,0,0.1)" /><circle cx="309.7547663882128" cy="106.77508825430922" r="22.73596984743391" fill="url(#grad_0)" stroke="rgba(0,0,0,0.05)" stroke-width="1"/><circle cx="140.4361200727115" cy="110.95516008328906" r="34.21609273216774" fill="rgba(0,0,0,0.1)" /><circle cx="138.4361200727115" cy="108.95516008328906" r="34.21609273216774" fill="url(#grad_5)" stroke="rgba(0,0,0,0.05)" stroke-width="1"/><circle cx="204.39773506717006" cy="117.65705448100722" r="28.075788799828246" fill="rgba(0,0,0,0.1)" /><circle cx="202.39773506717006" cy="115.65705448100722" r="28.075788799828246" fill="url(#grad_8)" stroke="rgba(0,0,0,0.05)" stroke-width="1"/><circle cx="304.468696594876" cy="111.54160786554908" r="18.02379126197127" fill="rgba(0,0,0,0.1)" /><circle cx="302.468696594876" cy="109.54160786554908" r="18.02379126197127" fill="url(#grad_6)" stroke="rgba(0,0,0,0.05)" stroke-width="1"/><circle cx="104.90111933183596" cy="115.92193792440631" r="19.903178729457203" fill="rgba(0,0,0,0.1)" /><circle cx="102.90111933183596" cy="113.92193792440631" r="19.903178729457203" fill="url(#grad_0)" stroke="rgba(0,0,0,0.05)" stroke-width="1"/><circle cx="110.83708816171614" cy="113.29545324309248" r="20.95679741719514" fill="rgba(0,0,0,0.1)" /><circle cx="108.83708816171614" cy="111.29545324309248" r="20.95679741719514" fill="url(#grad_7)" stroke="rgba(0,0,0,0.05)" stroke-width="1"/><circle cx="181.12009956221635" cy="115.59311679813612" r="21.478854027300734" fill="rgba(0,0,0,0.1)" /><circle cx="179.12009956221635" cy="113.59311679813612" r="21.478854027300734" fill="url(#grad_9)" stroke="rgba(0,0,0,0.05)" stroke-width="1"/><circle cx="165.35033409769568" cy="116.67965892632645" r="34.25833120173269" fill="rgba(0,0,0,0.1)" /><circle cx="163.35033409769568" cy="114.67965892632645" r="34.25833120173269" fill="url(#grad_5)" stroke="rgba(0,0,0,0.05)" stroke-width="1"/><circle cx="325.91803667894783" cy="116.36996511802822" r="25.60869245964081" fill="rgba(0,0,0,0.1)" /><circle cx="323.91803667894783" cy="114.36996511802822" r="25.60869245964081" fill="url(#grad_5)" stroke="rgba(0,0,0,0.05)" stroke-width="1"/><circle cx="68.08226280467262" cy="115.79492693903067" r="29.718755047182736" fill="rgba(0,0,0,0.1)" /><circle cx="66.08226280467262" cy="113.79492693903067" r="29.718755047182736" fill="url(#grad_6)" stroke="rgba(0,0,0,0.05)" stroke-width="1"/><circle cx="296.9382795790322" cy="122.42413755683222" r="26.925980655441304" fill="rgba(0,0,0,0.1)" /><circle cx="294.9382795790322" cy="120.42413755683222" r="26.925980655441304" fill="url(#grad_5)" stroke="rgba(0,0,0,0.05)" stroke-width="1"/><circle cx="373.67600632704796" cy="120.74933740695701" r="27.725199308328072" fill="rgba(0,0,0,0.1)" /><circle cx="371.67600632704796" cy="118.74933740695701" r="27.725199308328072" fill="url(#grad_3)" stroke="rgba(0,0,0,0.05)" stroke-width="1"/><circle cx="101.88685147689681" cy="119.41125177958831" r="16.373425197834937" fill="rgba(0,0,0,0.1)" /><circle cx="99.88685147689681" cy="117.41125177958831" r="16.373425197834937" fill="url(#grad_5)" stroke="rgba(0,0,0,0.05)" stroke-width="1"/><circle cx="48.20764684685783" cy="118.19279901060976" r="16.535717806029307" fill="rgba(0,0,0,0.1)" /><circle cx="46.20764684685783" cy="116.19279901060976" r="16.535717806029307" fill="url(#grad_9)" stroke="rgba(0,0,0,0.05)" stroke-width="1"/><circle cx="216.36886944726882" cy="119.7650552231241" r="29.520671206382442" fill="rgba(0,0,0,0.1)" /><circle cx="214.36886944726882" cy="117.7650552231241" r="29.520671206382442" fill="url(#grad_3)" stroke="rgba(0,0,0,0.05)" stroke-width="1"/><circle cx="198.55745025931813" cy="123.40597997812748" r="22.420675086196184" fill="rgba(0,0,0,0.1)" /><circle cx="196.55745025931813" cy="121.40597997812748" r="22.420675086196184" fill="url(#grad_3)" stroke="rgba(0,0,0,0.05)" stroke-width="1"/><circle cx="77.9597712647202" cy="126.10600246893284" r="25.97232336521555" fill="rgba(0,0,0,0.1)" /><circle cx="75.9597712647202" cy="124.10600246893284" r="25.97232336521555" fill="url(#grad_5)" stroke="rgba(0,0,0,0.05)" stroke-width="1"/><circle cx="236.87519286374177" cy="125.15150410856558" r="21.351147188295492" fill="rgba(0,0,0,0.1)" /><circle cx="234.87519286374177" cy="123.15150410856558" r="21.351147188295492" fill="url(#grad_7)" stroke="rgba(0,0,0,0.05)" stroke-width="1"/><circle cx="327.62942200138133" cy="126.19959442646515" r="19.170071085117158" fill="rgba(0,0,0,0.1)" /><circle cx="325.62942200138133" cy="124.19959442646515" r="19.170071085117158" fill="url(#grad_8)" stroke="rgba(0,0,0,0.05)" stroke-width="1"/><circle cx="303.0657272090325" cy="124.28224080526243" r="27.122726316603337" fill="rgba(0,0,0,0.1)" /><circle cx="301.0657272090325" cy="122.28224080526243" r="27.122726316603337" fill="url(#grad_3)" stroke="rgba(0,0,0,0.05)" stroke-width="1"/><circle cx="332.85566705524974" cy="130.75132138030946" r="20.505232315298123" fill="rgba(0,0,0,0.1)" /><circle cx="330.85566705524974" cy="128.75132138030946" r="20.505232315298123" fill="url(#grad_6)" stroke="rgba(0,0,0,0.05)" stroke-width="1"/><circle cx="138.0075625917593" cy="137.06669897966788" r="21.83926435676208" fill="rgba(0,0,0,0.1)" /><circle cx="136.0075625917593" cy="135.06669897966788" r="21.83926435676208" fill="url(#grad_7)" stroke="rgba(0,0,0,0.05)" stroke-width="1"/><circle cx="283.896203883231" cy="133.7297856876535" r="21.29320733880557" fill="rgba(0,0,0,0.1)" /><circle cx="281.896203883231" cy="131.7297856876535" r="21.29320733880557" fill="url(#grad_9)" stroke="rgba(0,0,0,0.05)" stroke-width="1"/><circle cx="353.58075283556576" cy="140.97533770061935" r="22.496419979262896" fill="rgba(0,0,0,0.1)" /><circle cx="351.58075283556576" cy="138.97533770061935" r="22.496419979262896" fill="url(#grad_2)" stroke="rgba(0,0,0,0.05)" stroke-width="1"/><circle cx="136.259911274159" cy="135.92829313601342" r="23.63319737640122" fill="rgba(0,0,0,0.1)" /><circle cx="134.259911274159" cy="133.92829313601342" r="23.63319737640122" fill="url(#grad_6)" stroke="rgba(0,0,0,0.05)" stroke-width="1"/><circle cx="69.26967304453954" cy="138.54401676732255" r="22.278435160412734" fill="rgba(0,0,0,0.1)" /><circle cx="67.26967304453954" cy="136.54401676732255" r="22.278435160412734" fill="url(#grad_8)" stroke="rgba(0,0,0,0.05)" stroke-width="1"/><circle cx="317.3762990313203" cy="138.54889725299205" r="24.954388621870635" fill="rgba(0,0,0,0.1)" /><circle cx="315.3762990313203" cy="136.54889725299205" r="24.954388621870635" fill="url(#grad_7)" stroke="rgba(0,0,0,0.05)" stroke-width="1"/><circle cx="326.5972546210733" cy="142.3076945546639" r="29.589359920320152" fill="rgba(0,0,0,0.1)" /><circle cx="324.5972546210733" cy="140.3076945546639" r="29.589359920320152" fill="url(#grad_0)" stroke="rgba(0,0,0,0.05)" stroke-width="1"/><circle cx="301.85416630946634" cy="145.56505369124295" r="25.26256675508396" fill="rgba(0,0,0,0.1)" /><circle cx="299.85416630946634" cy="143.56505369124295" r="25.26256675508396" fill="url(#grad_6)" stroke="rgba(0,0,0,0.05)" stroke-width="1"/><circle cx="36.54361712892796" cy="149.09824768306663" r="24.93924559226052" fill="rgba(0,0,0,0.1)" /><circle cx="34.54361712892796" cy="147.09824768306663" r="24.93924559226052" fill="url(#grad_1)" stroke="rgba(0,0,0,0.05)" stroke-width="1"/><circle cx="241.99746456954992" cy="149.81510935074485" r="30.16694869364315" fill="rgba(0,0,0,0.1)" /><circle cx="239.99746456954992" cy="147.81510935074485" r="30.16694869364315" fill="url(#grad_2)" stroke="rgba(0,0,0,0.05)" stroke-width="1"/><circle cx="344.6380542330976" cy="143.97572624416534" r="34.824658165892004" fill="rgba(0,0,0,0.1)" /><circle cx="342.6380542330976" cy="141.97572624416534" r="34.824658165892004" fill="url(#grad_3)" stroke="rgba(0,0,0,0.05)" stroke-width="1"/><circle cx="86.96052361155296" cy="147.1112328973194" r="31.12857140351606" fill="rgba(0,0,0,0.1)" /><circle cx="84.96052361155296" cy="145.1112328973194" r="31.12857140351606" fill="url(#grad_9)" stroke="rgba(0,0,0,0.05)" stroke-width="1"/><circle cx="74.14622218866192" cy="149.3738504275715" r="24.911161957395322" fill="rgba(0,0,0,0.1)" /><circle cx="72.14622218866192" cy="147.3738504275715" r="24.911161957395322" fill="url(#grad_5)" stroke="rgba(0,0,0,0.05)" stroke-width="1"/><circle cx="353.959957749227" cy="156.4805439529269" r="19.669830123875094" fill="rgba(0,0,0,0.1)" /><circle cx="351.959957749227" cy="154.4805439529269" r="19.669830123875094" fill="url(#grad_4)" stroke="rgba(0,0,0,0.05)" stroke-width="1"/><circle cx="195.120273973453" cy="153.0652892819045" r="28.724381164428802" fill="rgba(0,0,0,0.1)" /><circle cx="193.120273973453" cy="151.0652892819045" r="28.724381164428802" fill="url(#grad_5)" stroke="rgba(0,0,0,0.05)" stroke-width="1"/><circle cx="178.98017235032657" cy="156.1479342898798" r="21.462969052423695" fill="rgba(0,0,0,0.1)" /><circle cx="176.98017235032657" cy="154.1479342898798" r="21.462969052423695" fill="url(#grad_5)" stroke="rgba(0,0,0,0.05)" stroke-width="1"/><circle cx="269.2849158206511" cy="155.05453342160655" r="22.240470631724712" fill="rgba(0,0,0,0.1)" /><circle cx="267.2849158206511" cy="153.05453342160655" r="22.240470631724712" fill="url(#grad_5)" stroke="rgba(0,0,0,0.05)" stroke-width="1"/><circle cx="250.78592268553024" cy="156.0010000623226" r="27.699275388091902" fill="rgba(0,0,0,0.1)" /><circle cx="248.78592268553024" cy="154.0010000623226" r="27.699275388091902" fill="url(#grad_9)" stroke="rgba(0,0,0,0.05)" stroke-width="1"/><circle cx="370.67193882091044" cy="151.56384655446" r="21.265135472352377" fill="rgba(0,0,0,0.1)" /><circle cx="368.67193882091044" cy="149.56384655446" r="21.265135472352377" fill="url(#grad_8)" stroke="rgba(0,0,0,0.05)" stroke-width="1"/><circle cx="110.92882720794853" cy="155.62404650240705" r="29.65521784679957" fill="rgba(0,0,0,0.1)" /><circle cx="108.92882720794853" cy="153.62404650240705" r="29.65521784679957" fill="url(#grad_4)" stroke="rgba(0,0,0,0.05)" stroke-width="1"/><circle cx="73.2387507728366" cy="154.7783181642596" r="16.479356451535033" fill="rgba(0,0,0,0.1)" /><circle cx="71.2387507728366" cy="152.7783181642596" r="16.479356451535033" fill="url(#grad_7)" stroke="rgba(0,0,0,0.05)" stroke-width="1"/><circle cx="127.20156381060173" cy="161.5834226629843" r="16.353914495555557" fill="rgba(0,0,0,0.1)" /><circle cx="125.20156381060173" cy="159.5834226629843" r="16.353914495555557" fill="url(#grad_7)" stroke="rgba(0,0,0,0.05)" stroke-width="1"/><circle cx="178.7313099440016" cy="158.42205088212933" r="30.62234928390955" fill="rgba(0,0,0,0.1)" /><circle cx="176.7313099440016" cy="156.42205088212933" r="30.62234928390955" fill="url(#grad_7)" stroke="rgba(0,0,0,0.05)" stroke-width="1"/><circle cx="276.6117974977698" cy="157.2074738607051" r="21.347378870025103" fill="rgba(0,0,0,0.1)" /><circle cx="274.6117974977698" cy="155.2074738607051" r="21.347378870025103" fill="url(#grad_4)" stroke="rgba(0,0,0,0.05)" stroke-width="1"/><circle cx="297.5026796404195" cy="162.6342360949361" r="34.91231558470898" fill="rgba(0,0,0,0.1)" /><circle cx="295.5026796404195" cy="160.6342360949361" r="34.91231558470898" fill="url(#grad_2)" stroke="rgba(0,0,0,0.05)" stroke-width="1"/><circle cx="343.50725168833793" cy="157.6199931389941" r="22.355031358290255" fill="rgba(0,0,0,0.1)" /><circle cx="341.50725168833793" cy="155.6199931389941" r="22.355031358290255" fill="url(#grad_3)" stroke="rgba(0,0,0,0.05)" stroke-width="1"/><circle cx="159.5764270098137" cy="163.57606001025746" r="19.213653830486226" fill="rgba(0,0,0,0.1)" /><circle cx="157.5764270098137" cy="161.57606001025746" r="19.213653830486226" fill="url(#grad_0)" stroke="rgba(0,0,0,0.05)" stroke-width="1"/><circle cx="359.08203959019335" cy="161.27249867456874" r="29.268284175414735" fill="rgba(0,0,0,0.1)" /><circle cx="357.08203959019335" cy="159.27249867456874" r="29.268284175414735" fill="url(#grad_1)" stroke="rgba(0,0,0,0.05)" stroke-width="1"/><circle cx="357.862519817826" cy="169.07273702363608" r="33.69686889144664" fill="rgba(0,0,0,0.1)" /><circle cx="355.862519817826" cy="167.07273702363608" r="33.69686889144664" fill="url(#grad_5)" stroke="rgba(0,0,0,0.05)" stroke-width="1"/><circle cx="256.2386699006968" cy="168.43779694139047" r="16.958578203816835" fill="rgba(0,0,0,0.1)" /><circle cx="254.23866990069678" cy="166.43779694139047" r="16.958578203816835" fill="url(#grad_1)" stroke="rgba(0,0,0,0.05)" stroke-width="1"/><circle cx="60.807446290855225" cy="173.7804256983861" r="29.68119688290569" fill="rgba(0,0,0,0.1)" /><circle cx="58.807446290855225" cy="171.7804256983861" r="29.68119688290569" fill="url(#grad_4)" stroke="rgba(0,0,0,0.05)" stroke-width="1"/><circle cx="328.52502928437985" cy="171.08720625950977" r="28.75921592138975" fill="rgba(0,0,0,0.1)" /><circle cx="326.52502928437985" cy="169.08720625950977" r="28.75921592138975" fill="url(#grad_7)" stroke="rgba(0,0,0,0.05)" stroke-width="1"/><circle cx="370.09457704878633" cy="176.6968655856803" r="19.272044201892868" fill="rgba(0,0,0,0.1)" /><circle cx="368.09457704878633" cy="174.6968655856803" r="19.272044201892868" fill="url(#grad_8)" stroke="rgba(0,0,0,0.05)" stroke-width="1"/><circle cx="152.18579214588254" cy="174.76637046498536" r="21.482780656956628" fill="rgba(0,0,0,0.1)" /><circle cx="150.18579214588254" cy="172.76637046498536" r="21.482780656956628" fill="url(#grad_1)" stroke="rgba(0,0,0,0.05)" stroke-width="1"/><circle cx="204.43508381515664" cy="176.96994518842376" r="22.72296428330783" fill="rgba(0,0,0,0.1)" /><circle cx="202.43508381515664" cy="174.96994518842376" r="22.72296428330783" fill="url(#grad_1)" stroke="rgba(0,0,0,0.05)" stroke-width="1"/><circle cx="340.4117512180688" cy="181.57468220764918" r="28.876606851952555" fill="rgba(0,0,0,0.1)" /><circle cx="338.4117512180688" cy="179.57468220764918" r="28.876606851952555" fill="url(#grad_1)" stroke="rgba(0,0,0,0.05)" stroke-width="1"/><circle cx="363.4964285688411" cy="184.63070382341525" r="32.890050484568015" fill="rgba(0,0,0,0.1)" /><circle cx="361.4964285688411" cy="182.63070382341525" r="32.890050484568015" fill="url(#grad_5)" stroke="rgba(0,0,0,0.05)" stroke-width="1"/><circle cx="86.18977886493902" cy="181.8184602923702" r="19.49552878465705" fill="rgba(0,0,0,0.1)" /><circle cx="84.18977886493902" cy="179.8184602923702" r="19.49552878465705" fill="url(#grad_8)" stroke="rgba(0,0,0,0.05)" stroke-width="1"/><circle cx="342.1391381139062" cy="179.70063401054136" r="34.59005925121282" fill="rgba(0,0,0,0.1)" /><circle cx="340.1391381139062" cy="177.70063401054136" r="34.59005925121282" fill="url(#grad_9)" stroke="rgba(0,0,0,0.05)" stroke-width="1"/><circle cx="140.4875259951679" cy="182.87668474214522" r="16.046648258576198" fill="rgba(0,0,0,0.1)" /><circle cx="138.4875259951679" cy="180.87668474214522" r="16.046648258576198" fill="url(#grad_2)" stroke="rgba(0,0,0,0.05)" stroke-width="1"/><circle cx="342.3018503489536" cy="181.5347291489805" r="19.919610288062493" fill="rgba(0,0,0,0.1)" /><circle cx="340.3018503489536" cy="179.5347291489805" r="19.919610288062493" fill="url(#grad_4)" stroke="rgba(0,0,0,0.05)" stroke-width="1"/><circle cx="174.42986536322502" cy="183.07505208162934" r="17.172234998716732" fill="rgba(0,0,0,0.1)" /><circle cx="172.42986536322502" cy="181.07505208162934" r="17.172234998716732" fill="url(#grad_6)" stroke="rgba(0,0,0,0.05)" stroke-width="1"/><circle cx="43.635166653412895" cy="177.97903778586692" r="17.939332932352176" fill="rgba(0,0,0,0.1)" /><circle cx="41.635166653412895" cy="175.97903778586692" r="17.939332932352176" fill="url(#grad_4)" stroke="rgba(0,0,0,0.05)" stroke-width="1"/><circle cx="117.90709552493733" cy="182.0277539218311" r="31.54968102127745" fill="rgba(0,0,0,0.1)" /><circle cx="115.90709552493733" cy="180.0277539218311" r="31.54968102127745" fill="url(#grad_0)" stroke="rgba(0,0,0,0.05)" stroke-width="1"/><circle cx="156.9787971856859" cy="181.72103954877053" r="29.530217362988743" fill="rgba(0,0,0,0.1)" /><circle cx="154.9787971856859" cy="179.72103954877053" r="29.530217362988743" fill="url(#grad_8)" stroke="rgba(0,0,0,0.05)" stroke-width="1"/><circle cx="349.27247100085555" cy="188.16849095703597" r="31.139708703938034" fill="rgba(0,0,0,0.1)" /><circle cx="347.27247100085555" cy="186.16849095703597" r="31.139708703938034" fill="url(#grad_6)" stroke="rgba(0,0,0,0.05)" stroke-width="1"/><circle cx="123.16679318447405" cy="186.08110701867326" r="23.102886451198366" fill="rgba(0,0,0,0.1)" /><circle cx="121.16679318447405" cy="184.08110701867326" r="23.102886451198366" fill="url(#grad_0)" stroke="rgba(0,0,0,0.05)" stroke-width="1"/><circle cx="165.10614250292974" cy="186.9055196498448" r="23.655340150675315" fill="rgba(0,0,0,0.1)" /><circle cx="163.10614250292974" cy="184.9055196498448" r="23.655340150675315" fill="url(#grad_8)" stroke="rgba(0,0,0,0.05)" stroke-width="1"/><circle cx="361.84714327790243" cy="189.38815291553877" r="23.663446494344377" fill="rgba(0,0,0,0.1)" /><circle cx="359.84714327790243" cy="187.38815291553877" r="23.663446494344377" fill="url(#grad_8)" stroke="rgba(0,0,0,0.05)" stroke-width="1"/><circle cx="173.40584412183537" cy="188.76430677037388" r="21.19834851609418" fill="rgba(0,0,0,0.1)" /><circle cx="171.40584412183537" cy="186.76430677037388" r="21.19834851609418" fill="url(#grad_3)" stroke="rgba(0,0,0,0.05)" stroke-width="1"/><circle cx="301.7804896354831" cy="186.60418520575843" r="16.87830001253525" fill="rgba(0,0,0,0.1)" /><circle cx="299.7804896354831" cy="184.60418520575843" r="16.87830001253525" fill="url(#grad_5)" stroke="rgba(0,0,0,0.05)" stroke-width="1"/><circle cx="321.46007470395324" cy="184.69369656422663" r="29.815816812058408" fill="rgba(0,0,0,0.1)" /><circle cx="319.46007470395324" cy="182.69369656422663" r="29.815816812058408" fill="url(#grad_0)" stroke="rgba(0,0,0,0.05)" stroke-width="1"/><circle cx="128.76138988153855" cy="189.99166692266624" r="22.51670831602449" fill="rgba(0,0,0,0.1)" /><circle cx="126.76138988153856" cy="187.99166692266624" r="22.51670831602449" fill="url(#grad_7)" stroke="rgba(0,0,0,0.05)" stroke-width="1"/><circle cx="260.96078037007464" cy="188.71221193910642" r="16.75944755733203" fill="rgba(0,0,0,0.1)" /><circle cx="258.96078037007464" cy="186.71221193910642" r="16.75944755733203" fill="url(#grad_4)" stroke="rgba(0,0,0,0.05)" stroke-width="1"/><circle cx="152.89876224740874" cy="191.29241534391295" r="26.000660735034682" fill="rgba(0,0,0,0.1)" /><circle cx="150.89876224740874" cy="189.29241534391295" r="26.000660735034682" fill="url(#grad_3)" stroke="rgba(0,0,0,0.05)" stroke-width="1"/><circle cx="267.27325181983036" cy="191.0768932422757" r="22.24242172397063" fill="rgba(0,0,0,0.1)" /><circle cx="265.27325181983036" cy="189.0768932422757" r="22.24242172397063" fill="url(#grad_5)" stroke="rgba(0,0,0,0.05)" stroke-width="1"/><circle cx="87.11764735029442" cy="196.78861349505564" r="21.74992828971949" fill="rgba(0,0,0,0.1)" /><circle cx="85.11764735029442" cy="194.78861349505564" r="21.74992828971949" fill="url(#grad_5)" stroke="rgba(0,0,0,0.05)" stroke-width="1"/><circle cx="251.7152309880504" cy="200.61950374512483" r="28.869094904580976" fill="rgba(0,0,0,0.1)" /><circle cx="249.7152309880504" cy="198.61950374512483" r="28.869094904580976" fill="url(#grad_8)" stroke="rgba(0,0,0,0.05)" stroke-width="1"/><circle cx="94.92771880858356" cy="192.10362014889643" r="31.318093522347546" fill="rgba(0,0,0,0.1)" /><circle cx="92.92771880858356" cy="190.10362014889643" r="31.318093522347546" fill="url(#grad_2)" stroke="rgba(0,0,0,0.05)" stroke-width="1"/><circle cx="126.86453579462774" cy="197.8626882138459" r="27.737239705097377" fill="rgba(0,0,0,0.1)" /><circle cx="124.86453579462774" cy="195.8626882138459" r="27.737239705097377" fill="url(#grad_8)" stroke="rgba(0,0,0,0.05)" stroke-width="1"/><circle cx="89.86700733730231" cy="194.8744283349977" r="23.899306565668972" fill="rgba(0,0,0,0.1)" /><circle cx="87.86700733730231" cy="192.8744283349977" r="23.899306565668972" fill="url(#grad_3)" stroke="rgba(0,0,0,0.05)" stroke-width="1"/><circle cx="51.73782481740433" cy="201.4171555133439" r="31.045812801405567" fill="rgba(0,0,0,0.1)" /><circle cx="49.73782481740433" cy="199.4171555133439" r="31.045812801405567" fill="url(#grad_5)" stroke="rgba(0,0,0,0.05)" stroke-width="1"/><circle cx="40.74799317682088" cy="200.89971935825693" r="20.116244326362214" fill="rgba(0,0,0,0.1)" /><circle cx="38.74799317682088" cy="198.89971935825693" r="20.116244326362214" fill="url(#grad_5)" stroke="rgba(0,0,0,0.05)" stroke-width="1"/><circle cx="159.6383050360934" cy="195.36417086952957" r="30.542176348677643" fill="rgba(0,0,0,0.1)" /><circle cx="157.6383050360934" cy="193.36417086952957" r="30.542176348677643" fill="url(#grad_6)" stroke="rgba(0,0,0,0.05)" stroke-width="1"/><circle cx="99.50824395294852" cy="202.18302506818083" r="25.52631845443798" fill="rgba(0,0,0,0.1)" /><circle cx="97.50824395294852" cy="200.18302506818083" r="25.52631845443798" fill="url(#grad_7)" stroke="rgba(0,0,0,0.05)" stroke-width="1"/><circle cx="112.16801773121247" cy="199.40684684652445" r="26.518632113276325" fill="rgba(0,0,0,0.1)" /><circle cx="110.16801773121247" cy="197.40684684652445" r="26.518632113276325" fill="url(#grad_9)" stroke="rgba(0,0,0,0.05)" stroke-width="1"/><circle cx="135.41204201985437" cy="206.2300857404241" r="32.46484675816128" fill="rgba(0,0,0,0.1)" /><circle cx="133.41204201985437" cy="204.2300857404241" r="32.46484675816128" fill="url(#grad_4)" stroke="rgba(0,0,0,0.05)" stroke-width="1"/><circle cx="210.70779806175335" cy="205.9631994611006" r="33.060454970131914" fill="rgba(0,0,0,0.1)" /><circle cx="208.70779806175335" cy="203.9631994611006" r="33.060454970131914" fill="url(#grad_2)" stroke="rgba(0,0,0,0.05)" stroke-width="1"/><circle cx="256.0453160682972" cy="204.19450605151064" r="30.10381477872993" fill="rgba(0,0,0,0.1)" /><circle cx="254.0453160682972" cy="202.19450605151064" r="30.10381477872993" fill="url(#grad_7)" stroke="rgba(0,0,0,0.05)" stroke-width="1"/><circle cx="87.55223791823651" cy="205.34589476434297" r="25.5918674140256" fill="rgba(0,0,0,0.1)" /><circle cx="85.55223791823651" cy="203.34589476434297" r="25.5918674140256" fill="url(#grad_6)" stroke="rgba(0,0,0,0.05)" stroke-width="1"/><circle cx="123.5947236165118" cy="209.20341650940563" r="28.969031991688205" fill="rgba(0,0,0,0.1)" /><circle cx="121.5947236165118" cy="207.20341650940563" r="28.969031991688205" fill="url(#grad_9)" stroke="rgba(0,0,0,0.05)" stroke-width="1"/><circle cx="217.0760414086745" cy="207.06947002269268" r="17.485838819271667" fill="rgba(0,0,0,0.1)" /><circle cx="215.0760414086745" cy="205.06947002269268" r="17.485838819271667" fill="url(#grad_1)" stroke="rgba(0,0,0,0.05)" stroke-width="1"/><circle cx="301.1407091161336" cy="201.89698407222426" r="31.052328322244122" fill="rgba(0,0,0,0.1)" /><circle cx="299.1407091161336" cy="199.89698407222426" r="31.052328322244122" fill="url(#grad_0)" stroke="rgba(0,0,0,0.05)" stroke-width="1"/><circle cx="257.1798316306154" cy="211.65072829732998" r="23.042292115310786" fill="rgba(0,0,0,0.1)" /><circle cx="255.1798316306154" cy="209.65072829732998" r="23.042292115310786" fill="url(#grad_9)" stroke="rgba(0,0,0,0.05)" stroke-width="1"/><circle cx="130.19152093266334" cy="207.47620605875628" r="26.252011604203894" fill="rgba(0,0,0,0.1)" /><circle cx="128.19152093266334" cy="205.47620605875628" r="26.252011604203894" fill="url(#grad_1)" stroke="rgba(0,0,0,0.05)" stroke-width="1"/><circle cx="49.05233840928629" cy="213.7783891873976" r="27.10257500703684" fill="rgba(0,0,0,0.1)" /><circle cx="47.05233840928629" cy="211.7783891873976" r="27.10257500703684" fill="url(#grad_0)" stroke="rgba(0,0,0,0.05)" stroke-width="1"/><circle cx="237.91049597000006" cy="214.52187043146614" r="17.050541847871457" fill="rgba(0,0,0,0.1)" /><circle cx="235.91049597000006" cy="212.52187043146614" r="17.050541847871457" fill="url(#grad_8)" stroke="rgba(0,0,0,0.05)" stroke-width="1"/><circle cx="178.81258954353726" cy="215.14768840614622" r="16.50269679378452" fill="rgba(0,0,0,0.1)" /><circle cx="176.81258954353726" cy="213.14768840614622" r="16.50269679378452" fill="url(#grad_2)" stroke="rgba(0,0,0,0.05)" stroke-width="1"/><circle cx="110.56293748817534" cy="210.95714259236613" r="22.31527999566823" fill="rgba(0,0,0,0.1)" /><circle cx="108.56293748817534" cy="208.95714259236613" r="22.31527999566823" fill="url(#grad_0)" stroke="rgba(0,0,0,0.05)" stroke-width="1"/><circle cx="330.09355496036756" cy="213.33124002129082" r="27.863823557795648" fill="rgba(0,0,0,0.1)" /><circle cx="328.09355496036756" cy="211.33124002129082" r="27.863823557795648" fill="url(#grad_9)" stroke="rgba(0,0,0,0.05)" stroke-width="1"/><circle cx="99.05420856531008" cy="212.38182679317902" r="32.833214106182155" fill="rgba(0,0,0,0.1)" /><circle cx="97.05420856531008" cy="210.38182679317902" r="32.833214106182155" fill="url(#grad_2)" stroke="rgba(0,0,0,0.05)" stroke-width="1"/><circle cx="167.1673612490301" cy="219.65630001004178" r="25.601885653216332" fill="rgba(0,0,0,0.1)" /><circle cx="165.1673612490301" cy="217.65630001004178" r="25.601885653216332" fill="url(#grad_1)" stroke="rgba(0,0,0,0.05)" stroke-width="1"/><circle cx="56.83178013598909" cy="217.448720509526" r="26.934034109954837" fill="rgba(0,0,0,0.1)" /><circle cx="54.83178013598909" cy="215.448720509526" r="26.934034109954837" fill="url(#grad_6)" stroke="rgba(0,0,0,0.05)" stroke-width="1"/><circle cx="282.051672607853" cy="214.60900791973953" r="28.284477058012307" fill="rgba(0,0,0,0.1)" /><circle cx="280.051672607853" cy="212.60900791973953" r="28.284477058012307" fill="url(#grad_1)" stroke="rgba(0,0,0,0.05)" stroke-width="1"/><circle cx="333.00373456411484" cy="215.389891938619" r="18.622965715281442" fill="rgba(0,0,0,0.1)" /><circle cx="331.00373456411484" cy="213.389891938619" r="18.622965715281442" fill="url(#grad_4)" stroke="rgba(0,0,0,0.05)" stroke-width="1"/><circle cx="322.8314547382521" cy="217.60952908651774" r="34.3924016642723" fill="rgba(0,0,0,0.1)" /><circle cx="320.8314547382521" cy="215.60952908651774" r="34.3924016642723" fill="url(#grad_8)" stroke="rgba(0,0,0,0.05)" stroke-width="1"/><circle cx="122.33517474851838" cy="221.61272752680344" r="21.657695315984043" fill="rgba(0,0,0,0.1)" /><circle cx="120.33517474851838" cy="219.61272752680344" r="21.657695315984043" fill="url(#grad_8)" stroke="rgba(0,0,0,0.05)" stroke-width="1"/><circle cx="338.36667791686745" cy="224.26054738376763" r="31.488941280791835" fill="rgba(0,0,0,0.1)" /><circle cx="336.36667791686745" cy="222.26054738376763" r="31.488941280791835" fill="url(#grad_5)" stroke="rgba(0,0,0,0.05)" stroke-width="1"/><circle cx="118.92886724254637" cy="220.87194745589784" r="22.799425910223334" fill="rgba(0,0,0,0.1)" /><circle cx="116.92886724254637" cy="218.87194745589784" r="22.799425910223334" fill="url(#grad_6)" stroke="rgba(0,0,0,0.05)" stroke-width="1"/><circle cx="57.72695016296237" cy="226.088378121572" r="16.69588959079635" fill="rgba(0,0,0,0.1)" /><circle cx="55.72695016296237" cy="224.088378121572" r="16.69588959079635" fill="url(#grad_4)" stroke="rgba(0,0,0,0.05)" stroke-width="1"/><circle cx="273.0887165469944" cy="223.75470116999472" r="25.51890467368401" fill="rgba(0,0,0,0.1)" /><circle cx="271.0887165469944" cy="221.75470116999472" r="25.51890467368401" fill="url(#grad_3)" stroke="rgba(0,0,0,0.05)" stroke-width="1"/><circle cx="194.84940480975325" cy="221.29103840688913" r="28.206671584334675" fill="rgba(0,0,0,0.1)" /><circle cx="192.84940480975325" cy="219.29103840688913" r="28.206671584334675" fill="url(#grad_4)" stroke="rgba(0,0,0,0.05)" stroke-width="1"/><circle cx="83.60477253700904" cy="225.13105044120758" r="28.823668369707583" fill="rgba(0,0,0,0.1)" /><circle cx="81.60477253700904" cy="223.13105044120758" r="28.823668369707583" fill="url(#grad_7)" stroke="rgba(0,0,0,0.05)" stroke-width="1"/><circle cx="91.84046160095305" cy="230.10525808224932" r="28.22555201884677" fill="rgba(0,0,0,0.1)" /><circle cx="89.84046160095305" cy="228.10525808224932" r="28.22555201884677" fill="url(#grad_3)" stroke="rgba(0,0,0,0.05)" stroke-width="1"/><circle cx="293.477570117351" cy="224.96007561379753" r="25.084886806073783" fill="rgba(0,0,0,0.1)" /><circle cx="291.477570117351" cy="222.96007561379753" r="25.084886806073783" fill="url(#grad_8)" stroke="rgba(0,0,0,0.05)" stroke-width="1"/><circle cx="172.9248413110311" cy="223.83440733511037" r="15.520984460534354" fill="rgba(0,0,0,0.1)" /><circle cx="170.9248413110311" cy="221.83440733511037" r="15.520984460534354" fill="url(#grad_3)" stroke="rgba(0,0,0,0.05)" stroke-width="1"/><circle cx="361.5479504653913" cy="226.78752294126477" r="33.140248636770856" fill="rgba(0,0,0,0.1)" /><circle cx="359.5479504653913" cy="224.78752294126477" r="33.140248636770856" fill="url(#grad_7)" stroke="rgba(0,0,0,0.05)" stroke-width="1"/><circle cx="102.15324644199956" cy="227.63838362297622" r="16.509212693859286" fill="rgba(0,0,0,0.1)" /><circle cx="100.15324644199956" cy="225.63838362297622" r="16.509212693859286" fill="url(#grad_2)" stroke="rgba(0,0,0,0.05)" stroke-width="1"/><circle cx="267.0204384484509" cy="226.92654344660522" r="23.097265600660926" fill="rgba(0,0,0,0.1)" /><circle cx="265.0204384484509" cy="224.92654344660522" r="23.097265600660926" fill="url(#grad_7)" stroke="rgba(0,0,0,0.05)" stroke-width="1"/><circle cx="214.87818017624704" cy="226.0489073474315" r="20.17924921303177" fill="rgba(0,0,0,0.1)" /><circle cx="212.87818017624704" cy="224.0489073474315" r="20.17924921303177" fill="url(#grad_3)" stroke="rgba(0,0,0,0.05)" stroke-width="1"/><circle cx="314.8066794201771" cy="231.3352028932336" r="22.06829291955751" fill="rgba(0,0,0,0.1)" /><circle cx="312.8066794201771" cy="229.3352028932336" r="22.06829291955751" fill="url(#grad_5)" stroke="rgba(0,0,0,0.05)" stroke-width="1"/><circle cx="81.4332424578983" cy="234.28368893445247" r="32.251288069647565" fill="rgba(0,0,0,0.1)" /><circle cx="79.4332424578983" cy="232.28368893445247" r="32.251288069647565" fill="url(#grad_8)" stroke="rgba(0,0,0,0.05)" stroke-width="1"/><circle cx="194.15816010618954" cy="230.76443284764775" r="19.87550163963546" fill="rgba(0,0,0,0.1)" /><circle cx="192.15816010618954" cy="228.76443284764775" r="19.87550163963546" fill="url(#grad_5)" stroke="rgba(0,0,0,0.05)" stroke-width="1"/><circle cx="139.739079916186" cy="235.86617548313967" r="23.158424601309193" fill="rgba(0,0,0,0.1)" /><circle cx="137.739079916186" cy="233.86617548313967" r="23.158424601309193" fill="url(#grad_4)" stroke="rgba(0,0,0,0.05)" stroke-width="1"/><circle cx="231.71907330696678" cy="243.75807373609103" r="24.498873541608614" fill="rgba(0,0,0,0.1)" /><circle cx="229.71907330696678" cy="241.75807373609103" r="24.498873541608614" fill="url(#grad_4)" stroke="rgba(0,0,0,0.05)" stroke-width="1"/><circle cx="321.66278343109974" cy="235.12404848490212" r="28.538040297127075" fill="rgba(0,0,0,0.1)" /><circle cx="319.66278343109974" cy="233.12404848490212" r="28.538040297127075" fill="url(#grad_3)" stroke="rgba(0,0,0,0.05)" stroke-width="1"/><circle cx="92.39656773966028" cy="243.4908932483567" r="20.388728715553256" fill="rgba(0,0,0,0.1)" /><circle cx="90.39656773966028" cy="241.4908932483567" r="20.388728715553256" fill="url(#grad_5)" stroke="rgba(0,0,0,0.05)" stroke-width="1"/><circle cx="260.54910482062274" cy="241.79009570207006" r="18.52725397583454" fill="rgba(0,0,0,0.1)" /><circle cx="258.54910482062274" cy="239.79009570207006" r="18.52725397583454" fill="url(#grad_6)" stroke="rgba(0,0,0,0.05)" stroke-width="1"/><circle cx="361.27062421451194" cy="240.0349580777116" r="27.974172270078185" fill="rgba(0,0,0,0.1)" /><circle cx="359.27062421451194" cy="238.0349580777116" r="27.974172270078185" fill="url(#grad_3)" stroke="rgba(0,0,0,0.05)" stroke-width="1"/><circle cx="360.7372826900149" cy="238.95506034209396" r="23.053893905295553" fill="rgba(0,0,0,0.1)" /><circle cx="358.7372826900149" cy="236.95506034209396" r="23.053893905295553" fill="url(#grad_0)" stroke="rgba(0,0,0,0.05)" stroke-width="1"/><circle cx="67.43566298139761" cy="243.57731003576515" r="23.171224441846505" fill="rgba(0,0,0,0.1)" /><circle cx="65.43566298139761" cy="241.57731003576515" r="23.171224441846505" fill="url(#grad_4)" stroke="rgba(0,0,0,0.05)" stroke-width="1"/><circle cx="179.42762664744157" cy="244.89117151443884" r="27.808276523422492" fill="rgba(0,0,0,0.1)" /><circle cx="177.42762664744157" cy="242.89117151443884" r="27.808276523422492" fill="url(#grad_6)" stroke="rgba(0,0,0,0.05)" stroke-width="1"/><circle cx="129.43673457216772" cy="246.1776613023144" r="17.883879917637625" fill="rgba(0,0,0,0.1)" /><circle cx="127.43673457216771" cy="244.1776613023144" r="17.883879917637625" fill="url(#grad_4)" stroke="rgba(0,0,0,0.05)" stroke-width="1"/><circle cx="148.47145282879944" cy="249.24562260790103" r="33.90140363966099" fill="rgba(0,0,0,0.1)" /><circle cx="146.47145282879944" cy="247.24562260790103" r="33.90140363966099" fill="url(#grad_4)" stroke="rgba(0,0,0,0.05)" stroke-width="1"/><circle cx="374.91126229703735" cy="250.76239045093325" r="20.265911211520198" fill="rgba(0,0,0,0.1)" /><circle cx="372.91126229703735" cy="248.76239045093325" r="20.265911211520198" fill="url(#grad_1)" stroke="rgba(0,0,0,0.05)" stroke-width="1"/><circle cx="64.69842917986531" cy="248.73383558402904" r="17.609240828340603" fill="rgba(0,0,0,0.1)" /><circle cx="62.698429179865315" cy="246.73383558402904" r="17.609240828340603" fill="url(#grad_4)" stroke="rgba(0,0,0,0.05)" stroke-width="1"/><circle cx="260.78801341627945" cy="252.6976260315759" r="25.378782680629044" fill="rgba(0,0,0,0.1)" /><circle cx="258.78801341627945" cy="250.6976260315759" r="25.378782680629044" fill="url(#grad_1)" stroke="rgba(0,0,0,0.05)" stroke-width="1"/><circle cx="101.84278143289346" cy="250.2588724487183" r="30.219551437023426" fill="rgba(0,0,0,0.1)" /><circle cx="99.84278143289346" cy="248.2588724487183" r="30.219551437023426" fill="url(#grad_6)" stroke="rgba(0,0,0,0.05)" stroke-width="1"/><circle cx="204.52841080559253" cy="253.18248051552018" r="15.009194259302232" fill="rgba(0,0,0,0.1)" /><circle cx="202.52841080559253" cy="251.18248051552018" r="15.009194259302232" fill="url(#grad_0)" stroke="rgba(0,0,0,0.05)" stroke-width="1"/><circle cx="304.06214176684307" cy="254.54539375454226" r="26.439179440865413" fill="rgba(0,0,0,0.1)" /><circle cx="302.06214176684307" cy="252.54539375454226" r="26.439179440865413" fill="url(#grad_4)" stroke="rgba(0,0,0,0.05)" stroke-width="1"/><circle cx="176.4049146303102" cy="257.35729185948844" r="34.88365259119237" fill="rgba(0,0,0,0.1)" /><circle cx="174.4049146303102" cy="255.3572918594884" r="34.88365259119237" fill="url(#grad_1)" stroke="rgba(0,0,0,0.05)" stroke-width="1"/><circle cx="205.931983214927" cy="252.56785745701794" r="17.762550963422065" fill="rgba(0,0,0,0.1)" /><circle cx="203.931983214927" cy="250.56785745701794" r="17.762550963422065" fill="url(#grad_0)" stroke="rgba(0,0,0,0.05)" stroke-width="1"/><circle cx="275.03839902842844" cy="255.8454270249398" r="30.933021656116253" fill="rgba(0,0,0,0.1)" /><circle cx="273.03839902842844" cy="253.8454270249398" r="30.933021656116253" fill="url(#grad_3)" stroke="rgba(0,0,0,0.05)" stroke-width="1"/><circle cx="269.95403390311174" cy="252.69722662725286" r="33.59839739046984" fill="rgba(0,0,0,0.1)" /><circle cx="267.95403390311174" cy="250.69722662725286" r="33.59839739046984" fill="url(#grad_1)" stroke="rgba(0,0,0,0.05)" stroke-width="1"/><circle cx="286.75175506519923" cy="253.0472412598008" r="21.361793603147955" fill="rgba(0,0,0,0.1)" /><circle cx="284.75175506519923" cy="251.0472412598008" r="21.361793603147955" fill="url(#grad_3)" stroke="rgba(0,0,0,0.05)" stroke-width="1"/><circle cx="148.02980327913625" cy="256.4033629431669" r="20.38617377202125" fill="rgba(0,0,0,0.1)" /><circle cx="146.02980327913625" cy="254.40336294316688" r="20.38617377202125" fill="url(#grad_9)" stroke="rgba(0,0,0,0.05)" stroke-width="1"/><circle cx="309.0148251154454" cy="255.22326021833513" r="18.187754957461173" fill="rgba(0,0,0,0.1)" /><circle cx="307.0148251154454" cy="253.22326021833513" r="18.187754957461173" fill="url(#grad_1)" stroke="rgba(0,0,0,0.05)" stroke-width="1"/><circle cx="143.3633184958073" cy="258.7597666603969" r="17.725694115789448" fill="rgba(0,0,0,0.1)" /><circle cx="141.3633184958073" cy="256.7597666603969" r="17.725694115789448" fill="url(#grad_3)" stroke="rgba(0,0,0,0.05)" stroke-width="1"/><circle cx="143.59642066721958" cy="257.7337679869323" r="27.587587153588345" fill="rgba(0,0,0,0.1)" /><circle cx="141.59642066721958" cy="255.73376798693235" r="27.587587153588345" fill="url(#grad_5)" stroke="rgba(0,0,0,0.05)" stroke-width="1"/><circle cx="77.89859933436301" cy="261.7451412090452" r="33.5977369968262" fill="rgba(0,0,0,0.1)" /><circle cx="75.89859933436301" cy="259.7451412090452" r="33.5977369968262" fill="url(#grad_1)" stroke="rgba(0,0,0,0.05)" stroke-width="1"/><circle cx="50.33890828243144" cy="258.77684045860076" r="28.207421921585944" fill="rgba(0,0,0,0.1)" /><circle cx="48.33890828243144" cy="256.77684045860076" r="28.207421921585944" fill="url(#grad_3)" stroke="rgba(0,0,0,0.05)" stroke-width="1"/><circle cx="348.22924857723444" cy="262.41874480031345" r="34.891944932549876" fill="rgba(0,0,0,0.1)" /><circle cx="346.22924857723444" cy="260.41874480031345" r="34.891944932549876" fill="url(#grad_3)" stroke="rgba(0,0,0,0.05)" stroke-width="1"/><circle cx="33.579373209384826" cy="260.23576132940565" r="28.27517068540104" fill="rgba(0,0,0,0.1)" /><circle cx="31.57937320938483" cy="258.23576132940565" r="28.27517068540104" fill="url(#grad_6)" stroke="rgba(0,0,0,0.05)" stroke-width="1"/><circle cx="304.625048508102" cy="257.31574095666736" r="19.085492120053367" fill="rgba(0,0,0,0.1)" /><circle cx="302.625048508102" cy="255.31574095666733" r="19.085492120053367" fill="url(#grad_9)" stroke="rgba(0,0,0,0.05)" stroke-width="1"/><circle cx="309.69574986375824" cy="262.7780168091476" r="30.055661184925718" fill="rgba(0,0,0,0.1)" /><circle cx="307.69574986375824" cy="260.7780168091476" r="30.055661184925718" fill="url(#grad_3)" stroke="rgba(0,0,0,0.05)" stroke-width="1"/><circle cx="248.75887075739388" cy="262.8101093509775" r="22.195123535511023" fill="rgba(0,0,0,0.1)" /><circle cx="246.75887075739388" cy="260.8101093509775" r="22.195123535511023" fill="url(#grad_2)" stroke="rgba(0,0,0,0.05)" stroke-width="1"/><circle cx="237.88982716194823" cy="260.53454249693743" r="31.18181713405231" fill="rgba(0,0,0,0.1)" /><circle cx="235.88982716194823" cy="258.53454249693743" r="31.18181713405231" fill="url(#grad_2)" stroke="rgba(0,0,0,0.05)" stroke-width="1"/><circle cx="65.85129265237339" cy="270.22518960508404" r="17.00968655670322" fill="rgba(0,0,0,0.1)" /><circle cx="63.85129265237339" cy="268.22518960508404" r="17.00968655670322" fill="url(#grad_2)" stroke="rgba(0,0,0,0.05)" stroke-width="1"/><circle cx="297.9044468054408" cy="262.337950628405" r="21.262190136345083" fill="rgba(0,0,0,0.1)" /><circle cx="295.9044468054408" cy="260.337950628405" r="21.262190136345083" fill="url(#grad_6)" stroke="rgba(0,0,0,0.05)" stroke-width="1"/><circle cx="120.46843184697624" cy="267.99103589411686" r="17.675590645640767" fill="rgba(0,0,0,0.1)" /><circle cx="118.46843184697624" cy="265.99103589411686" r="17.675590645640767" fill="url(#grad_7)" stroke="rgba(0,0,0,0.05)" stroke-width="1"/><circle cx="284.27726084128045" cy="271.1599701517512" r="23.75921076509364" fill="rgba(0,0,0,0.1)" /><circle cx="282.27726084128045" cy="269.1599701517512" r="23.75921076509364" fill="url(#grad_8)" stroke="rgba(0,0,0,0.05)" stroke-width="1"/><circle cx="161.1347872439376" cy="267.8652575191592" r="25.81759027713969" fill="rgba(0,0,0,0.1)" /><circle cx="159.1347872439376" cy="265.8652575191592" r="25.81759027713969" fill="url(#grad_0)" stroke="rgba(0,0,0,0.05)" stroke-width="1"/><circle cx="86.53250658188934" cy="273.7702698434197" r="24.96237907298636" fill="rgba(0,0,0,0.1)" /><circle cx="84.53250658188934" cy="271.7702698434197" r="24.96237907298636" fill="url(#grad_6)" stroke="rgba(0,0,0,0.05)" stroke-width="1"/><circle cx="339.8277072862409" cy="274.6264288379036" r="17.264061703571162" fill="rgba(0,0,0,0.1)" /><circle cx="337.8277072862409" cy="272.6264288379036" r="17.264061703571162" fill="url(#grad_2)" stroke="rgba(0,0,0,0.05)" stroke-width="1"/><circle cx="203.77309445061553" cy="275.57491963418903" r="25.291818160142366" fill="rgba(0,0,0,0.1)" /><circle cx="201.77309445061553" cy="273.57491963418903" r="25.291818160142366" fill="url(#grad_6)" stroke="rgba(0,0,0,0.05)" stroke-width="1"/><circle cx="233.08251826771368" cy="283.6647938475009" r="17.105634840462148" fill="rgba(0,0,0,0.1)" /><circle cx="231.08251826771368" cy="281.6647938475009" r="17.105634840462148" fill="url(#grad_1)" stroke="rgba(0,0,0,0.05)" stroke-width="1"/><circle cx="375.3160153981227" cy="286.77812873581365" r="15.205245270202667" fill="rgba(0,0,0,0.1)" /><circle cx="373.3160153981227" cy="284.77812873581365" r="15.205245270202667" fill="url(#grad_8)" stroke="rgba(0,0,0,0.05)" stroke-width="1"/></svg>